0
SECTION
2
HEADER
9
$INSUNITS
70
4
9
$ACADVER
1
AC1014
9
$HANDSEED
5
FFFF
0
ENDSEC
0
SECTION
2
TABLES
0
TABLE
2
VPORT
5
8
100
AcDbSymbolTable
0
ENDTAB
0
TABLE
2
LTYPE
5
5
100
AcDbSymbolTable
0
LTYPE
5
14
100
AcDbSymbolTableRecord
100
AcDbLinetypeTableRecord
2
BYBLOCK
70
0
0
LTYPE
5
15
100
AcDbSymbolTableRecord
100
AcDbLinetypeTableRecord
2
BYLAYER
70
0
0
LTYPE
5
16
100
AcDbSymbolTableRecord
100
AcDbLinetypeTableRecord
2
DASHED
70
0
3
Dashed __ __ __ __ __ __ __ __ __ __ __ __ __ _
72
65
73
2
40
0.75
49
0.5
74
0
49
-0.25
74
0
0
ENDTAB
0
TABLE
2
LAYER
5
2
100
AcDbSymbolTable
70
2
0
LAYER
5
50
100
AcDbSymbolTableRecord
100
AcDbLayerTableRecord
2
0
70
0
62
7
6
CONTINUOUS
0
ENDTAB
0
TABLE
2
STYLE
5
3
100
AcDbSymbolTable
70
1
0
STYLE
5
11
100
AcDbSymbolTableRecord
100
AcDbTextStyleTableRecord
2
STANDARD
70
0
0
ENDTAB
0
TABLE
2
VIEW
5
6
100
AcDbSymbolTable
70
0
0
ENDTAB
0
TABLE
2
UCS
5
7
100
AcDbSymbolTable
70
0
0
ENDTAB
0
TABLE
2
APPID
5
9
100
AcDbSymbolTable
70
2
0
APPID
5
12
100
AcDbSymbolTableRecord
100
AcDbRegAppTableRecord
2
ACAD
70
0
0
ENDTAB
0
TABLE
2
DIMSTYLE
5
A
100
AcDbSymbolTable
70
1
0
ENDTAB
0
TABLE
2
BLOCK_RECORD
5
1
100
AcDbSymbolTable
70
1
0
BLOCK_RECORD
5
1F
100
AcDbSymbolTableRecord
100
AcDbBlockTableRecord
2
*MODEL_SPACE
0
BLOCK_RECORD
5
1B
100
AcDbSymbolTableRecord
100
AcDbBlockTableRecord
2
*PAPER_SPACE
0
ENDTAB
0
ENDSEC
0
SECTION
2
BLOCKS
0
BLOCK
5
20
100
AcDbEntity
100
AcDbBlockBegin
2
*MODEL_SPACE
0
ENDBLK
5
21
100
AcDbEntity
100
AcDbBlockEnd
0
BLOCK
5
1C
100
AcDbEntity
100
AcDbBlockBegin
2
*PAPER_SPACE
0
ENDBLK
5
1D
100
AcDbEntity
100
AcDbBlockEnd
0
ENDSEC
0
SECTION
2
ENTITIES
0
LWPOLYLINE
5
100
100
AcDbEntity
8
0
100
AcDbPolyline
90
108
70
1
43
0.0
10
31.456250000000061
20
65.356250000000131
42
-0.41421356237307161
10
33.45625000000009
20
63.356250000000145
10
33.456250000000054
20
63.006250000000236
42
0.41421356237309243
10
35.456250000000047
20
61.006249999999831
10
60.181381582594042
20
61.006249999999653
42
-0.1243688756258943
10
61.131328949556618
20
60.766249999999957
42
0.25264557631977391
10
63.981171050444239
20
60.766250000000056
42
-0.12436887562596895
10
64.931118417407163
20
61.006249999999831
10
150.28125000000003
20
61.006250000000236
42
0.41421356237309243
10
152.28125000000006
20
63.006250000000236
10
152.28124999999955
20
63.356250000000145
42
-0.41421356237305862
10
154.28124999999994
20
65.356250000000557
10
155.28125000000003
20
65.356250000000131
42
-0.41421356237313145
10
157.28125000000006
20
63.356250000000145
10
157.28124999999991
20
63.006250000000236
42
0.41421356237311585
10
159.28125
20
61.006249999999852
10
165.18138158259418
20
61.006249999999653
42
-0.12436887562589169
10
166.13132894955652
20
60.76625000000007
42
0.25264557631974094
10
168.98117105044335
20
60.766250000000142
42
-0.12436887562590218
10
169.93111841740608
20
61.006249999999852
10
173.30625000000003
20
61.006250000000328
42
-0.41421356237307422
10
175.30625000000009
20
59.006250000000442
10
175.30625000000009
20
-59.00624999999966
42
-0.414213562373069
10
173.30625000000003
20
-61.006249999999653
10
169.93111841740807
20
-61.006249999999646
42
-0.12436887562603084
10
168.98117105044506
20
-60.766249999999644
42
0.2526455763199883
10
166.13132894955515
20
-60.766249999999559
42
-0.1243688756259915
10
165.18138158259211
20
-61.006249999999596
10
159.28125
20
-61.006249999999646
42
0.41421356237310025
10
157.28125000000006
20
-63.006249999999625
10
157.28125000000011
20
-63.356249999999648
42
-0.41421356237310025
10
155.28125000000003
20
-65.356249999999648
10
154.28125
20
-65.356249999999591
42
-0.41421356237307161
10
152.28125000000006
20
-63.35624999999964
10
152.28125000000006
20
-63.006249999999639
42
0.41421356237310542
10
150.28125000000003
20
-61.006249999999682
10
91.415625000000063
20
-61.006249999999639
42
0.41421356237309764
10
89.415625000000063
20
-63.006249999999625
10
89.415625000000063
20
-63.356249999999633
42
-0.41421356237309764
10
87.415625000000077
20
-65.356249999999648
10
86.415625000000063
20
-65.356249999999648
42
-0.41421356237309764
10
84.415625000000063
20
-63.356249999999633
10
84.415625000000063
20
-63.006249999999625
42
0.41421356237309631
10
82.415625000000077
20
-61.006249999999625
10
64.931118417408058
20
-61.00624999999981
42
-0.12436887562597927
10
63.981171050444985
20
-60.7662499999998
42
0.25264557632001067
10
61.131328949555133
20
-60.766249999999602
42
-0.12436887562600775
10
60.181381582592053
20
-61.006249999999618
10
11.637500000000038
20
-61.006249999999625
42
0.41421356237307944
10
9.6375000000000099
20
-63.006249999999611
10
9.6375000000000455
20
-63.356249999999633
42
-0.41421356237309631
10
7.6375000000000526
20
-65.356249999999633
10
6.6375000000000384
20
-65.356249999999619
42
-0.41421356237308593
10
4.6375000000000544
20
-63.356249999999548
10
4.6375000000000544
20
-63.006249999999611
42
0.41421356237309503
10
2.6375000000000526
20
-61.006249999999611
10
-83.60625000000006
20
-61.006249999999618
42
0.41421356237309503
10
-85.606250000000045
20
-63.006249999999618
10
-85.606250000000045
20
-63.356249999999584
42
-0.41421356237309243
10
-87.606250000000045
20
-65.356249999999619
10
-88.606250000000045
20
-65.356249999999605
42
-0.41421356237311191
10
-90.606250000000031
20
-63.356249999999605
10
-90.606250000000031
20
-63.006249999999596
42
0.41421356237308982
10
-92.606250000000045
20
-61.006249999999618
10
-144.32812500000006
20
-61.006249999999611
42
0.41421356237309243
10
-146.32812500000006
20
-63.006249999999596
10
-146.32812500000003
20
-63.356249999999605
42
-0.41421356237309115
10
-148.32812500000006
20
-65.356249999999605
10
-149.32812500000006
20
-65.356249999999591
42
-0.41421356237309631
10
-151.32812500000006
20
-63.356249999999591
10
-151.32812499999994
20
-63.006249999999596
42
0.41421356237309503
10
-153.32812499999994
20
-61.006249999999611
10
-165.18138158259245
20
-61.006249999999625
42
-0.12436887562598686
10
-166.13132894955544
20
-60.766249999999587
42
0.25264557631994944
10
-168.98117105044449
20
-60.766249999999609
42
-0.12436887562598586
10
-169.9311184174075
20
-61.006249999999611
10
-173.30624999999998
20
-61.006249999999625
42
-0.41421356237309631
10
-175.30625000000001
20
-59.006249999999589
10
-175.30624999999947
20
59.006250000000442
42
-0.41421356237309764
10
-173.30624999999998
20
61.006249999999952
10
-169.9311184174064
20
61.006249999999831
42
-0.12436887562593192
10
-168.98117105044363
20
60.766250000000113
42
0.25264557631979684
10
-166.13132894955615
20
60.76625000000017
42
-0.12436887562590368
10
-165.18138158259353
20
61.006249999999952
10
-149.75625000000002
20
61.006250000000328
42
0.41421356237308721
10
-147.75625000000002
20
63.006250000000236
10
-147.75625000000045
20
63.356250000000145
42
-0.41421356237310802
10
-145.75625000000005
20
65.356250000000543
10
-144.75625000000005
20
65.356250000000131
42
-0.41421356237309764
10
-142.75625000000005
20
63.356250000000145
10
-142.75625000000005
20
63.006250000000236
42
0.41421356237309764
10
-140.75625000000005
20
61.006249999999952
10
-64.931118417405941
20
61.006249999999667
42
-0.12436887562587649
10
-63.981171050443564
20
60.766250000000035
42
0.25264557631975149
10
-61.131328949556611
20
60.766250000000142
42
-0.12436887562592563
10
-60.181381582593936
20
61.006249999999831
10
-59.268749999999955
20
61.006250000000328
42
0.41421356237310025
10
-57.26874999999994
20
63.006250000000236
10
-57.268750000000352
20
63.356250000000145
42
-0.41421356237308982
10
-55.268749999999955
20
65.356250000000543
10
-54.268749999999955
20
65.356250000000131
42
-0.41421356237309764
10
-52.26874999999994
20
63.356250000000145
10
-52.26874999999994
20
63.006250000000236
42
0.41421356237308982
10
-50.268749999999955
20
61.006249999999952
10
26.456250000000061
20
61.006250000000236
42
0.41421356237308204
10
28.456250000000054
20
63.006250000000236
10
28.456249999999663
20
63.356250000000145
42
-0.41421356237309764
10
30.456250000000047
20
65.356250000000543
0
CIRCLE
5
101
100
AcDbEntity
8
0
100
AcDbCircle
10
154.78125000000006
20
-63.256249999999653
30
0
40
1.1500000000000501
210
0
220
0
230
1
0
CIRCLE
5
102
100
AcDbEntity
8
0
100
AcDbCircle
10
-148.82812500000006
20
-63.256249999999596
30
0
40
1.1499999999999999
210
0
220
0
230
1
0
CIRCLE
5
103
100
AcDbEntity
8
0
100
AcDbCircle
10
30.956250000000054
20
63.256250000000321
30
0
40
1.1500000000000199
210
0
220
0
230
1
0
CIRCLE
5
104
100
AcDbEntity
8
0
100
AcDbCircle
10
-145.25625000000002
20
63.256250000000321
30
0
40
1.1499999999999999
210
0
220
0
230
1
0
CIRCLE
5
105
100
AcDbEntity
8
0
100
AcDbCircle
10
86.915625000000063
20
-63.256249999999639
30
0
40
1.1500000000000199
210
0
220
0
230
1
0
CIRCLE
5
106
100
AcDbEntity
8
0
100
AcDbCircle
10
-88.106250000000031
20
-63.256249999999611
30
0
40
1.1499999999999999
210
0
220
0
230
1
0
CIRCLE
5
107
100
AcDbEntity
8
0
100
AcDbCircle
10
154.78125000000006
20
63.256250000000236
30
0
40
1.1500000000000501
210
0
220
0
230
1
0
CIRCLE
5
108
100
AcDbEntity
8
0
100
AcDbCircle
10
-54.76874999999994
20
63.256250000000321
30
0
40
1.1499999999999999
210
0
220
0
230
1
0
CIRCLE
5
109
100
AcDbEntity
8
0
100
AcDbCircle
10
7.1375000000000455
20
-63.256249999999632
30
0
40
1.1499999999999799
210
0
220
0
230
1
0
LWPOLYLINE
5
110
100
AcDbEntity
8
0
100
AcDbPolyline
90
8
70
1
43
0.0
10
-161.30644230000001
20
57.816648500000014
10
-161.30644230000001
20
58.468648499999986
10
-167.30645229999999
20
58.468648499999986
10
-167.30645229999999
20
57.816648500000014
10
-172.11717230000002
20
57.816648500000014
10
-172.11717230000002
20
42.196648500000002
10
-156.49714230000001
20
42.196648500000002
10
-156.49714230000001
20
57.816648500000014
0
LWPOLYLINE
5
111
100
AcDbEntity
8
0
100
AcDbPolyline
90
8
70
1
43
0.0
10
-118.39724230000002
20
42.196648500000002
10
-118.39724230000002
20
57.816648500000014
10
-123.20664230000003
20
57.816648500000014
10
-123.20664230000003
20
58.468648499999986
10
-129.20634230000002
20
58.468648499999986
10
-129.20634230000002
20
57.816648500000014
10
-134.01714230000002
20
57.816648500000014
10
-134.01714230000002
20
42.196648500000002
0
LWPOLYLINE
5
112
100
AcDbEntity
8
0
100
AcDbPolyline
90
8
70
1
43
0.0
10
-99.347242300000005
20
42.196648500000002
10
-99.347242300000005
20
57.816648500000014
10
-104.15664230000002
20
57.816648500000014
10
-104.15664230000002
20
58.468648499999986
10
-110.15634230000001
20
58.468648499999986
10
-110.15634230000001
20
57.816648500000014
10
-114.9685423
20
57.816648500000014
10
-114.9685423
20
42.196648500000002
0
LWPOLYLINE
5
113
100
AcDbEntity
8
0
100
AcDbPolyline
90
8
70
1
43
0.0
10
-80.297242300000008
20
42.196648500000002
10
-80.297242300000008
20
57.816648500000014
10
-85.106642300000019
20
57.816648500000014
10
-85.106642300000019
20
58.468648499999986
10
-91.106342300000009
20
58.468648499999986
10
-91.106342300000009
20
57.816648500000014
10
-95.918542300000027
20
57.816648500000014
10
-95.918542300000027
20
42.196648500000002
0
LWPOLYLINE
5
114
100
AcDbEntity
8
0
100
AcDbPolyline
90
8
70
1
43
0.0
10
-61.247542300000006
20
42.196648500000002
10
-61.247542300000006
20
57.816648500000014
10
-66.056542300000004
20
57.816648500000014
10
-66.056542300000004
20
58.468648499999986
10
-72.056542300000004
20
58.468648499999986
10
-72.056542300000004
20
57.816648500000014
10
-76.867142300000012
20
57.816648500000014
10
-76.867142300000012
20
42.196648500000002
0
LWPOLYLINE
5
115
100
AcDbEntity
8
0
100
AcDbPolyline
90
8
70
1
43
0.0
10
-32.672542300000025
20
42.196648500000002
10
-32.672542300000025
20
57.816648500000014
10
-37.481542300000008
20
57.816648500000014
10
-37.481542300000008
20
58.468648499999986
10
-43.481542300000022
20
58.468648499999986
10
-43.481542300000022
20
57.816648500000014
10
-48.293542300000013
20
57.816648500000014
10
-48.293542300000013
20
42.196648500000002
0
LWPOLYLINE
5
116
100
AcDbEntity
8
0
100
AcDbPolyline
90
8
70
1
43
0.0
10
-13.622542300000013
20
42.196648500000002
10
-13.622542300000013
20
57.816648500000014
10
-18.431542299999997
20
57.816648500000014
10
-18.431542299999997
20
58.468648499999986
10
-24.431542300000011
20
58.468648499999986
10
-24.431542300000011
20
57.816648500000014
10
-29.242542300000007
20
57.816648500000014
10
-29.242542300000007
20
42.196648500000002
0
LWPOLYLINE
5
117
100
AcDbEntity
8
0
100
AcDbPolyline
90
8
70
1
43
0.0
10
5.4274576999999979
20
42.196648500000002
10
5.4274576999999979
20
57.816648500000014
10
0.61845769999997913
20
57.816648500000014
10
0.61845769999997913
20
58.468648499999986
10
-5.3815423000000351
20
58.468648499999986
10
-5.3815423000000351
20
57.816648500000014
10
-10.192542300000014
20
57.816648500000014
10
-10.192542300000014
20
42.196648500000002
0
LWPOLYLINE
5
118
100
AcDbEntity
8
0
100
AcDbPolyline
90
8
70
1
43
0.0
10
24.477457700000009
20
42.196648500000002
10
24.477457700000009
20
57.816648500000014
10
19.66845769999999
20
57.816648500000014
10
19.66845769999999
20
58.468648499999986
10
13.668457699999976
20
58.468648499999986
10
13.668457699999976
20
57.816648500000014
10
8.8574576999999977
20
57.816648500000014
10
8.8574576999999977
20
42.196648500000002
0
LWPOLYLINE
5
119
100
AcDbEntity
8
0
100
AcDbPolyline
90
8
70
1
43
0.0
10
53.052457700000026
20
42.196648500000002
10
53.052457700000026
20
57.816648500000014
10
48.243457699999972
20
57.816648500000014
10
48.243457699999972
20
58.468648499999986
10
42.243457699999993
20
58.468648499999986
10
42.243457699999993
20
57.816648500000014
10
37.432457700000015
20
57.816648500000014
10
37.432457700000015
20
42.196648500000002
0
LWPOLYLINE
5
120
100
AcDbEntity
8
0
100
AcDbPolyline
90
8
70
1
43
0.0
10
72.102457700000031
20
42.196648500000002
10
72.102457700000031
20
57.816648500000014
10
67.293457699999976
20
57.816648500000014
10
67.293457699999976
20
58.468648499999986
10
61.293457700000005
20
58.468648499999986
10
61.293457700000005
20
57.816648500000014
10
56.482457700000026
20
57.816648500000014
10
56.482457700000026
20
42.196648500000002
0
LWPOLYLINE
5
121
100
AcDbEntity
8
0
100
AcDbPolyline
90
8
70
1
43
0.0
10
91.152457700000014
20
42.196648500000002
10
91.152457700000014
20
57.816648500000014
10
86.343457699999988
20
57.816648500000014
10
86.343457699999988
20
58.468648499999986
10
80.343457700000016
20
58.468648499999986
10
80.343457700000016
20
57.816648500000014
10
75.532457700000009
20
57.816648500000014
10
75.532457700000009
20
42.196648500000002
0
LWPOLYLINE
5
122
100
AcDbEntity
8
0
100
AcDbPolyline
90
8
70
1
43
0.0
10
110.20245770000002
20
42.196648500000002
10
110.20245770000002
20
57.816648500000014
10
105.3934577
20
57.816648500000014
10
105.3934577
20
58.468648499999986
10
99.393457699999999
20
58.468648499999986
10
99.393457699999999
20
57.816648500000014
10
94.58245770000002
20
57.816648500000014
10
94.58245770000002
20
42.196648500000002
0
LWPOLYLINE
5
123
100
AcDbEntity
8
0
100
AcDbPolyline
90
8
70
1
43
0.0
10
134.01545770000001
20
42.196648500000002
10
134.01545770000001
20
57.816648500000014
10
129.20445769999998
20
57.816648500000014
10
129.20445769999998
20
58.468648499999986
10
123.20445769999995
20
58.468648499999986
10
123.20445769999995
20
57.816648500000014
10
118.39545770000001
20
57.816648500000014
10
118.39545770000001
20
42.196648500000002
0
LWPOLYLINE
5
124
100
AcDbEntity
8
0
100
AcDbPolyline
90
8
70
1
43
0.0
10
153.06545770000002
20
42.196648500000002
10
153.06545770000002
20
57.816648500000014
10
148.25445769999999
20
57.816648500000014
10
148.25445769999999
20
58.468648499999986
10
142.25445769999996
20
58.468648499999986
10
142.25445769999996
20
57.816648500000014
10
137.44545770000002
20
57.816648500000014
10
137.44545770000002
20
42.196648500000002
0
LWPOLYLINE
5
125
100
AcDbEntity
8
0
100
AcDbPolyline
90
8
70
1
43
0.0
10
172.11545769999998
20
42.196648500000002
10
172.11545769999998
20
57.816648500000014
10
167.3044577
20
57.816648500000014
10
167.3044577
20
58.468648499999986
10
161.30445769999997
20
58.468648499999986
10
161.30445769999997
20
57.816648500000014
10
156.4954577
20
57.816648500000014
10
156.4954577
20
42.196648500000002
0
LWPOLYLINE
5
126
100
AcDbEntity
8
0
100
AcDbPolyline
90
8
70
1
43
0.0
10
-99.347242300000005
20
34.0054485
10
-104.15664230000002
20
34.0054485
10
-104.15664230000002
20
34.654548499999997
10
-110.15634230000001
20
34.654548499999997
10
-110.15634230000001
20
34.0054485
10
-114.9685423
20
34.0054485
10
-114.9685423
20
18.385448499999999
10
-99.347242300000005
20
18.385448499999999
0
LWPOLYLINE
5
127
100
AcDbEntity
8
0
100
AcDbPolyline
90
8
70
1
43
0.0
10
-118.39724230000002
20
34.0054485
10
-123.20664230000003
20
34.0054485
10
-123.20664230000003
20
34.654548499999997
10
-129.20634230000002
20
34.654548499999997
10
-129.20634230000002
20
34.0054485
10
-134.01714230000002
20
34.0054485
10
-134.01714230000002
20
18.385448499999999
10
-118.39724230000002
20
18.385448499999999
0
LWPOLYLINE
5
128
100
AcDbEntity
8
0
100
AcDbPolyline
90
8
70
1
43
0.0
10
-137.4472423
20
34.0054485
10
-142.2564423
20
34.0054485
10
-142.2564423
20
34.654548499999997
10
-148.2564423
20
34.654548499999997
10
-148.2564423
20
34.0054485
10
-153.0671423
20
34.0054485
10
-153.0671423
20
18.385448499999999
10
-137.4472423
20
18.385448499999999
0
LWPOLYLINE
5
129
100
AcDbEntity
8
0
100
AcDbPolyline
90
8
70
1
43
0.0
10
-156.49714230000001
20
34.0054485
10
-161.30644230000001
20
34.0054485
10
-161.30644230000001
20
34.654548499999997
10
-167.30645229999999
20
34.654548499999997
10
-167.30645229999999
20
34.0054485
10
-172.11717230000002
20
34.0054485
10
-172.11717230000002
20
18.385448499999999
10
-156.49714230000001
20
18.385448499999999
0
LWPOLYLINE
5
130
100
AcDbEntity
8
0
100
AcDbPolyline
90
8
70
1
43
0.0
10
-80.297242300000008
20
34.0054485
10
-85.106642300000019
20
34.0054485
10
-85.106642300000019
20
34.654548499999997
10
-91.106342300000009
20
34.654548499999997
10
-91.106342300000009
20
34.0054485
10
-95.918542300000027
20
34.0054485
10
-95.918542300000027
20
18.385448499999999
10
-80.297242300000008
20
18.385448499999999
0
LWPOLYLINE
5
131
100
AcDbEntity
8
0
100
AcDbPolyline
90
8
70
1
43
0.0
10
-61.247542300000006
20
34.0054485
10
-66.056542300000004
20
34.0054485
10
-66.056542300000004
20
34.654548499999997
10
-72.056542300000004
20
34.654548499999997
10
-72.056542300000004
20
34.0054485
10
-76.867142300000012
20
34.0054485
10
-76.867142300000012
20
18.385448499999999
10
-61.247542300000006
20
18.385448499999999
0
LWPOLYLINE
5
132
100
AcDbEntity
8
0
100
AcDbPolyline
90
8
70
1
43
0.0
10
-42.19754230000003
20
34.0054485
10
-47.006542300000014
20
34.0054485
10
-47.006542300000014
20
34.654548499999997
10
-53.007542300000011
20
34.654548499999997
10
-53.007542300000011
20
34.0054485
10
-57.818542300000018
20
34.0054485
10
-57.818542300000018
20
18.385448499999999
10
-42.19754230000003
20
18.385448499999999
0
LWPOLYLINE
5
133
100
AcDbEntity
8
0
100
AcDbPolyline
90
8
70
1
43
0.0
10
-23.147542300000019
20
34.0054485
10
-27.956542300000002
20
34.0054485
10
-27.956542300000002
20
34.654548499999997
10
-33.956542300000017
20
34.654548499999997
10
-33.956542300000017
20
34.0054485
10
-38.767542300000017
20
34.0054485
10
-38.767542300000017
20
18.385448499999999
10
-23.147542300000019
20
18.385448499999999
0
LWPOLYLINE
5
134
100
AcDbEntity
8
0
100
AcDbPolyline
90
8
70
1
43
0.0
10
-4.0975423000000077
20
34.0054485
10
-8.906542299999991
20
34.0054485
10
-8.906542299999991
20
34.654548499999997
10
-14.906542300000005
20
34.654548499999997
10
-14.906542300000005
20
34.0054485
10
-19.717542300000002
20
34.0054485
10
-19.717542300000002
20
18.385448499999999
10
-4.0975423000000077
20
18.385448499999999
0
LWPOLYLINE
5
135
100
AcDbEntity
8
0
100
AcDbPolyline
90
8
70
1
43
0.0
10
14.952457700000004
20
34.0054485
10
10.143457699999985
20
34.0054485
10
10.143457699999985
20
34.654548499999997
10
4.1434576999999706
20
34.654548499999997
10
4.1434576999999706
20
34.0054485
10
-0.66754230000000803
20
34.0054485
10
-0.66754230000000803
20
18.385448499999999
10
14.952457700000004
20
18.385448499999999
0
LWPOLYLINE
5
136
100
AcDbEntity
8
0
100
AcDbPolyline
90
8
70
1
43
0.0
10
34.002457700000015
20
34.0054485
10
29.193457699999996
20
34.0054485
10
29.193457699999996
20
34.654548499999997
10
23.193457700000017
20
34.654548499999997
10
23.193457700000017
20
34.0054485
10
18.382457700000039
20
34.0054485
10
18.382457700000039
20
18.385448499999999
10
34.002457700000015
20
18.385448499999999
0
LWPOLYLINE
5
137
100
AcDbEntity
8
0
100
AcDbPolyline
90
8
70
1
43
0.0
10
53.052457700000026
20
34.0054485
10
48.243457699999972
20
34.0054485
10
48.243457699999972
20
34.654548499999997
10
42.243457699999993
20
34.654548499999997
10
42.243457699999993
20
34.0054485
10
37.432457700000015
20
34.0054485
10
37.432457700000015
20
18.385448499999999
10
53.052457700000026
20
18.385448499999999
0
LWPOLYLINE
5
138
100
AcDbEntity
8
0
100
AcDbPolyline
90
8
70
1
43
0.0
10
72.102457700000031
20
34.0054485
10
67.293457699999976
20
34.0054485
10
67.293457699999976
20
34.654548499999997
10
61.293457700000005
20
34.654548499999997
10
61.293457700000005
20
34.0054485
10
56.482457700000026
20
34.0054485
10
56.482457700000026
20
18.385448499999999
10
72.102457700000031
20
18.385448499999999
0
LWPOLYLINE
5
139
100
AcDbEntity
8
0
100
AcDbPolyline
90
8
70
1
43
0.0
10
134.01545770000001
20
34.0054485
10
129.20445769999998
20
34.0054485
10
129.20445769999998
20
34.654548499999997
10
123.20445769999995
20
34.654548499999997
10
123.20445769999995
20
34.0054485
10
118.39545770000001
20
34.0054485
10
118.39545770000001
20
18.385448499999999
10
134.01545770000001
20
18.385448499999999
0
LWPOLYLINE
5
140
100
AcDbEntity
8
0
100
AcDbPolyline
90
8
70
1
43
0.0
10
153.06545770000002
20
34.0054485
10
148.25445769999999
20
34.0054485
10
148.25445769999999
20
34.654548499999997
10
142.25445769999996
20
34.654548499999997
10
142.25445769999996
20
34.0054485
10
137.44545770000002
20
34.0054485
10
137.44545770000002
20
18.385448499999999
10
153.06545770000002
20
18.385448499999999
0
LWPOLYLINE
5
141
100
AcDbEntity
8
0
100
AcDbPolyline
90
8
70
1
43
0.0
10
172.11545769999998
20
34.0054485
10
167.3044577
20
34.0054485
10
167.3044577
20
34.654548499999997
10
161.30445769999997
20
34.654548499999997
10
161.30445769999997
20
34.0054485
10
156.4954577
20
34.0054485
10
156.4954577
20
18.385448499999999
10
172.11545769999998
20
18.385448499999999
0
LWPOLYLINE
5
142
100
AcDbEntity
8
0
100
AcDbPolyline
90
8
70
1
43
0.0
10
-156.54534230000002
20
15.604548499999993
10
-162.54674230000003
20
15.604548499999993
10
-162.54674230000003
20
14.95544849999999
10
-167.35468230000004
20
14.95544849999999
10
-167.35468230000004
20
-0.66455150000000351
10
-151.73464230000002
20
-0.66455150000000351
10
-151.73464230000002
20
14.95544849999999
10
-156.54534230000002
20
14.95544849999999
0
LWPOLYLINE
5
143
100
AcDbEntity
8
0
100
AcDbPolyline
90
8
70
1
43
0.0
10
-143.54214230000002
20
-0.66455150000000351
10
-127.92224230000002
20
-0.66455150000000351
10
-127.92224230000002
20
14.95544849999999
10
-132.73164230000003
20
14.95544849999999
10
-132.73164230000003
20
15.604548499999993
10
-138.73144230000003
20
15.604548499999993
10
-138.73144230000003
20
14.95544849999999
10
-143.54214230000002
20
14.95544849999999
0
LWPOLYLINE
5
144
100
AcDbEntity
8
0
100
AcDbPolyline
90
8
70
1
43
0.0
10
-124.4935423
20
-0.66455150000000351
10
-108.87224230000001
20
-0.66455150000000351
10
-108.87224230000001
20
14.95544849999999
10
-113.68164230000002
20
14.95544849999999
10
-113.68164230000002
20
15.604548499999993
10
-119.68134230000001
20
15.604548499999993
10
-119.68134230000001
20
14.95544849999999
10
-124.4935423
20
14.95544849999999
0
LWPOLYLINE
5
145
100
AcDbEntity
8
0
100
AcDbPolyline
90
8
70
1
43
0.0
10
-105.44214230000001
20
-0.66455150000000351
10
-89.822242300000013
20
-0.66455150000000351
10
-89.822242300000013
20
14.95544849999999
10
-94.63164230000001
20
14.95544849999999
10
-94.63164230000001
20
15.604548499999993
10
-100.63134230000003
20
15.604548499999993
10
-100.63134230000003
20
14.95544849999999
10
-105.44214230000001
20
14.95544849999999
0
LWPOLYLINE
5
146
100
AcDbEntity
8
0
100
AcDbPolyline
90
8
70
1
43
0.0
10
-75.581642300000013
20
14.95544849999999
10
-75.581642300000013
20
15.604548499999993
10
-81.581342300000003
20
15.604548499999993
10
-81.581342300000003
20
14.95544849999999
10
-86.392142300000003
20
14.95544849999999
10
-86.392142300000003
20
-0.66455150000000351
10
-70.772542300000012
20
-0.66455150000000351
10
-70.772542300000012
20
14.95544849999999
0
LWPOLYLINE
5
147
100
AcDbEntity
8
0
100
AcDbPolyline
90
8
70
1
43
0.0
10
-51.722542300000015
20
-0.66455150000000351
10
-51.722542300000015
20
14.95544849999999
10
-56.531542300000019
20
14.95544849999999
10
-56.531542300000019
20
15.604548499999993
10
-62.531542300000012
20
15.604548499999993
10
-62.531542300000012
20
14.95544849999999
10
-67.342542300000019
20
14.95544849999999
10
-67.342542300000019
20
-0.66455150000000351
0
LWPOLYLINE
5
148
100
AcDbEntity
8
0
100
AcDbPolyline
90
8
70
1
43
0.0
10
-32.672542300000025
20
-0.66455150000000351
10
-32.672542300000025
20
14.95544849999999
10
-37.481542300000008
20
14.95544849999999
10
-37.481542300000008
20
15.604548499999993
10
-43.481542300000022
20
15.604548499999993
10
-43.481542300000022
20
14.95544849999999
10
-48.293542300000013
20
14.95544849999999
10
-48.293542300000013
20
-0.66455150000000351
0
LWPOLYLINE
5
149
100
AcDbEntity
8
0
100
AcDbPolyline
90
8
70
1
43
0.0
10
-13.622542300000013
20
-0.66455150000000351
10
-13.622542300000013
20
14.95544849999999
10
-18.431542299999997
20
14.95544849999999
10
-18.431542299999997
20
15.604548499999993
10
-24.431542300000011
20
15.604548499999993
10
-24.431542300000011
20
14.95544849999999
10
-29.242542300000007
20
14.95544849999999
10
-29.242542300000007
20
-0.66455150000000351
0
LWPOLYLINE
5
150
100
AcDbEntity
8
0
100
AcDbPolyline
90
8
70
1
43
0.0
10
5.4274576999999979
20
-0.66455150000000351
10
5.4274576999999979
20
14.95544849999999
10
0.61845769999997913
20
14.95544849999999
10
0.61845769999997913
20
15.604548499999993
10
-5.3815423000000351
20
15.604548499999993
10
-5.3815423000000351
20
14.95544849999999
10
-10.192542300000014
20
14.95544849999999
10
-10.192542300000014
20
-0.66455150000000351
0
LWPOLYLINE
5
151
100
AcDbEntity
8
0
100
AcDbPolyline
90
8
70
1
43
0.0
10
24.477457700000009
20
-0.66455150000000351
10
24.477457700000009
20
14.95544849999999
10
19.66845769999999
20
14.95544849999999
10
19.66845769999999
20
15.604548499999993
10
13.668457699999976
20
15.604548499999993
10
13.668457699999976
20
14.95544849999999
10
8.8574576999999977
20
14.95544849999999
10
8.8574576999999977
20
-0.66455150000000351
0
LWPOLYLINE
5
152
100
AcDbEntity
8
0
100
AcDbPolyline
90
8
70
1
43
0.0
10
43.527457700000021
20
-0.66455150000000351
10
43.527457700000021
20
14.95544849999999
10
38.718457700000002
20
14.95544849999999
10
38.718457700000002
20
15.604548499999993
10
32.718457700000023
20
15.604548499999993
10
32.718457700000023
20
14.95544849999999
10
27.907457700000009
20
14.95544849999999
10
27.907457700000009
20
-0.66455150000000351
0
LWPOLYLINE
5
153
100
AcDbEntity
8
0
100
AcDbPolyline
90
8
70
1
43
0.0
10
62.577457700000032
20
-0.66455150000000351
10
62.577457700000032
20
14.95544849999999
10
57.768457699999978
20
14.95544849999999
10
57.768457699999978
20
15.604548499999993
10
51.768457699999999
20
15.604548499999993
10
51.768457699999999
20
14.95544849999999
10
46.95745770000002
20
14.95544849999999
10
46.95745770000002
20
-0.66455150000000351
0
LWPOLYLINE
5
154
100
AcDbEntity
8
0
100
AcDbPolyline
90
8
70
1
43
0.0
10
81.626457700000003
20
-0.66455150000000351
10
81.626457700000003
20
14.95544849999999
10
76.818457699999982
20
14.95544849999999
10
76.818457699999982
20
15.604548499999993
10
70.81845770000001
20
15.604548499999993
10
70.81845770000001
20
14.95544849999999
10
66.007457700000032
20
14.95544849999999
10
66.007457700000032
20
-0.66455150000000351
0
LWPOLYLINE
5
155
100
AcDbEntity
8
0
100
AcDbPolyline
90
8
70
1
43
0.0
10
134.01545770000001
20
-0.66455150000000351
10
134.01545770000001
20
14.95544849999999
10
129.20445769999998
20
14.95544849999999
10
129.20445769999998
20
15.604548499999993
10
123.20445769999995
20
15.604548499999993
10
123.20445769999995
20
14.95544849999999
10
118.39545770000001
20
14.95544849999999
10
118.39545770000001
20
-0.66455150000000351
0
LWPOLYLINE
5
156
100
AcDbEntity
8
0
100
AcDbPolyline
90
8
70
1
43
0.0
10
153.06545770000002
20
-0.66455150000000351
10
153.06545770000002
20
14.95544849999999
10
148.25445769999999
20
14.95544849999999
10
148.25445769999999
20
15.604548499999993
10
142.25445769999996
20
15.604548499999993
10
142.25445769999996
20
14.95544849999999
10
137.44545770000002
20
14.95544849999999
10
137.44545770000002
20
-0.66455150000000351
0
LWPOLYLINE
5
157
100
AcDbEntity
8
0
100
AcDbPolyline
90
8
70
1
43
0.0
10
172.11545769999998
20
-0.66455150000000351
10
172.11545769999998
20
14.95544849999999
10
167.3044577
20
14.95544849999999
10
167.3044577
20
15.604548499999993
10
161.30445769999997
20
15.604548499999993
10
161.30445769999997
20
14.95544849999999
10
156.4954577
20
14.95544849999999
10
156.4954577
20
-0.66455150000000351
0
LWPOLYLINE
5
158
100
AcDbEntity
8
0
100
AcDbPolyline
90
8
70
1
43
0.0
10
-149.35334230000001
20
-4.0945515000000032
10
-154.16414230000001
20
-4.0945515000000032
10
-154.16414230000001
20
-3.4454515000000008
10
-160.16404230000003
20
-3.4454515000000008
10
-160.16404230000003
20
-4.0945515000000032
10
-164.97343230000001
20
-4.0945515000000032
10
-164.97343230000001
20
-19.71455150000001
10
-149.35334230000001
20
-19.71455150000001
0
LWPOLYLINE
5
159
100
AcDbEntity
8
0
100
AcDbPolyline
90
8
70
1
43
0.0
10
-123.15974230000002
20
-4.0945515000000032
10
-127.97014230000002
20
-4.0945515000000032
10
-127.97014230000002
20
-3.4454515000000008
10
-133.97024230000002
20
-3.4454515000000008
10
-133.97024230000002
20
-4.0945515000000032
10
-138.77964230000001
20
-4.0945515000000032
10
-138.77964230000001
20
-19.71455150000001
10
-123.15974230000002
20
-19.71455150000001
0
LWPOLYLINE
5
160
100
AcDbEntity
8
0
100
AcDbPolyline
90
8
70
1
43
0.0
10
-104.10974230000001
20
-4.0945515000000032
10
-108.92014230000001
20
-4.0945515000000032
10
-108.92014230000001
20
-3.4454515000000008
10
-114.92024230000001
20
-3.4454515000000008
10
-114.92024230000001
20
-4.0945515000000032
10
-119.72964230000002
20
-4.0945515000000032
10
-119.72964230000002
20
-19.71455150000001
10
-104.10974230000001
20
-19.71455150000001
0
LWPOLYLINE
5
161
100
AcDbEntity
8
0
100
AcDbPolyline
90
8
70
1
43
0.0
10
-85.059742300000011
20
-4.0945515000000032
10
-89.870142300000012
20
-4.0945515000000032
10
-89.870142300000012
20
-3.4454515000000008
10
-95.870242300000001
20
-3.4454515000000008
10
-95.870242300000001
20
-4.0945515000000032
10
-100.67964230000001
20
-4.0945515000000032
10
-100.67964230000001
20
-19.71455150000001
10
-85.059742300000011
20
-19.71455150000001
0
LWPOLYLINE
5
162
100
AcDbEntity
8
0
100
AcDbPolyline
90
8
70
1
43
0.0
10
-66.009542300000007
20
-4.0945515000000032
10
-70.8205423
20
-4.0945515000000032
10
-70.8205423
20
-3.4454515000000008
10
-76.82024229999999
20
-3.4454515000000008
10
-76.82024229999999
20
-4.0945515000000032
10
-81.629642300000015
20
-4.0945515000000032
10
-81.629642300000015
20
-19.71455150000001
10
-66.009542300000007
20
-19.71455150000001
0
LWPOLYLINE
5
163
100
AcDbEntity
8
0
100
AcDbPolyline
90
8
70
1
43
0.0
10
-46.959542299999995
20
-4.0945515000000032
10
-51.770542299999995
20
-4.0945515000000032
10
-51.770542299999995
20
-3.4454515000000008
10
-57.77054230000001
20
-3.4454515000000008
10
-57.77054230000001
20
-4.0945515000000032
10
-62.579542299999993
20
-4.0945515000000032
10
-62.579542299999993
20
-19.71455150000001
10
-46.959542299999995
20
-19.71455150000001
0
LWPOLYLINE
5
164
100
AcDbEntity
8
0
100
AcDbPolyline
90
8
70
1
43
0.0
10
-27.909542300000005
20
-4.0945515000000032
10
-32.720542299999984
20
-4.0945515000000032
10
-32.720542299999984
20
-3.4454515000000008
10
-38.720542299999998
20
-3.4454515000000008
10
-38.720542299999998
20
-4.0945515000000032
10
-43.529542299999981
20
-4.0945515000000032
10
-43.529542299999981
20
-19.71455150000001
10
-27.909542300000005
20
-19.71455150000001
0
LWPOLYLINE
5
165
100
AcDbEntity
8
0
100
AcDbPolyline
90
8
70
1
43
0.0
10
-8.859542299999994
20
-4.0945515000000032
10
-13.670542300000008
20
-4.0945515000000032
10
-13.670542300000008
20
-3.4454515000000008
10
-19.670542300000005
20
-3.4454515000000008
10
-19.670542300000005
20
-4.0945515000000032
10
-24.479542300000006
20
-4.0945515000000032
10
-24.479542300000006
20
-19.71455150000001
10
-8.859542299999994
20
-19.71455150000001
0
LWPOLYLINE
5
166
100
AcDbEntity
8
0
100
AcDbPolyline
90
8
70
1
43
0.0
10
10.190457700000017
20
-4.0945515000000032
10
5.3794576999999677
20
-4.0945515000000032
10
5.3794576999999677
20
-3.4454515000000008
10
-0.62054230000001098
20
-3.4454515000000008
10
-0.62054230000001098
20
-4.0945515000000032
10
-5.4295422999999943
20
-4.0945515000000032
10
-5.4295422999999943
20
-19.71455150000001
10
10.190457700000017
20
-19.71455150000001
0
LWPOLYLINE
5
167
100
AcDbEntity
8
0
100
AcDbPolyline
90
8
70
1
43
0.0
10
29.240457699999993
20
-4.0945515000000032
10
24.429457699999979
20
-4.0945515000000032
10
24.429457699999979
20
-3.4454515000000008
10
18.4294577
20
-3.4454515000000008
10
18.4294577
20
-4.0945515000000032
10
13.620457699999982
20
-4.0945515000000032
10
13.620457699999982
20
-19.71455150000001
10
29.240457699999993
20
-19.71455150000001
0
LWPOLYLINE
5
168
100
AcDbEntity
8
0
100
AcDbPolyline
90
8
70
1
43
0.0
10
48.290457700000005
20
-4.0945515000000032
10
43.47945769999999
20
-4.0945515000000032
10
43.47945769999999
20
-3.4454515000000008
10
37.479457699999976
20
-3.4454515000000008
10
37.479457699999976
20
-4.0945515000000032
10
32.670457699999993
20
-4.0945515000000032
10
32.670457699999993
20
-19.71455150000001
10
48.290457700000005
20
-19.71455150000001
0
LWPOLYLINE
5
169
100
AcDbEntity
8
0
100
AcDbPolyline
90
8
70
1
43
0.0
10
67.340457699999973
20
-4.0945515000000032
10
62.529457700000002
20
-4.0945515000000032
10
62.529457700000002
20
-3.4454515000000008
10
56.529457699999988
20
-3.4454515000000008
10
56.529457699999988
20
-4.0945515000000032
10
51.720457700000004
20
-4.0945515000000032
10
51.720457700000004
20
-19.71455150000001
10
67.340457699999973
20
-19.71455150000001
0
LWPOLYLINE
5
170
100
AcDbEntity
8
0
100
AcDbPolyline
90
8
70
1
43
0.0
10
142.25445769999996
20
-23.144551500000009
10
137.44545770000002
20
-23.144551500000009
10
137.44545770000002
20
-38.76455150000001
10
153.06545770000002
20
-38.76455150000001
10
153.06545770000002
20
-23.144551500000009
10
148.25445769999999
20
-23.144551500000009
10
148.25445769999999
20
-22.495451500000012
10
142.25445769999996
20
-22.495451500000012
0
LWPOLYLINE
5
171
100
AcDbEntity
8
0
100
AcDbPolyline
90
8
70
1
43
0.0
10
-149.40164229999999
20
-23.144551500000009
10
-149.40164229999999
20
-22.495451500000012
10
-155.40154230000002
20
-22.495451500000012
10
-155.40154230000002
20
-23.144551500000009
10
-160.21094230000003
20
-23.144551500000009
10
-160.21094230000003
20
-38.76455150000001
10
-144.59084230000002
20
-38.76455150000001
10
-144.59084230000002
20
-23.144551500000009
0
LWPOLYLINE
5
172
100
AcDbEntity
8
0
100
AcDbPolyline
90
8
70
1
43
0.0
10
-113.63474230000001
20
-38.76455150000001
10
-113.63474230000001
20
-23.144551500000009
10
-118.44514230000001
20
-23.144551500000009
10
-118.44514230000001
20
-22.495451500000012
10
-124.44524230000002
20
-22.495451500000012
10
-124.44524230000002
20
-23.144551500000009
10
-129.2546423
20
-23.144551500000009
10
-129.2546423
20
-38.76455150000001
0
LWPOLYLINE
5
173
100
AcDbEntity
8
0
100
AcDbPolyline
90
8
70
1
43
0.0
10
-94.584742300000002
20
-38.76455150000001
10
-94.584742300000002
20
-23.144551500000009
10
-99.395142300000003
20
-23.144551500000009
10
-99.395142300000003
20
-22.495451500000012
10
-105.39524230000001
20
-22.495451500000012
10
-105.39524230000001
20
-23.144551500000009
10
-110.20464230000002
20
-23.144551500000009
10
-110.20464230000002
20
-38.76455150000001
0
LWPOLYLINE
5
174
100
AcDbEntity
8
0
100
AcDbPolyline
90
8
70
1
43
0.0
10
-75.534742300000005
20
-38.76455150000001
10
-75.534742300000005
20
-23.144551500000009
10
-80.345142300000006
20
-23.144551500000009
10
-80.345142300000006
20
-22.495451500000012
10
-86.345242300000024
20
-22.495451500000012
10
-86.345242300000024
20
-23.144551500000009
10
-91.154642300000006
20
-23.144551500000009
10
-91.154642300000006
20
-38.76455150000001
0
LWPOLYLINE
5
175
100
AcDbEntity
8
0
100
AcDbPolyline
90
8
70
1
43
0.0
10
-56.484542300000001
20
-38.76455150000001
10
-56.484542300000001
20
-23.144551500000009
10
-61.295542300000001
20
-23.144551500000009
10
-61.295542300000001
20
-22.495451500000012
10
-67.295542300000022
20
-22.495451500000012
10
-67.295542300000022
20
-23.144551500000009
10
-72.104542299999991
20
-23.144551500000009
10
-72.104542299999991
20
-38.76455150000001
0
LWPOLYLINE
5
176
100
AcDbEntity
8
0
100
AcDbPolyline
90
8
70
1
43
0.0
10
-37.43454229999999
20
-38.76455150000001
10
-37.43454229999999
20
-23.144551500000009
10
-42.24554229999999
20
-23.144551500000009
10
-42.24554229999999
20
-22.495451500000012
10
-48.246542300000002
20
-22.495451500000012
10
-48.246542300000002
20
-23.144551500000009
10
-53.054542299999987
20
-23.144551500000009
10
-53.054542299999987
20
-38.76455150000001
0
LWPOLYLINE
5
177
100
AcDbEntity
8
0
100
AcDbPolyline
90
8
70
1
43
0.0
10
-18.3845423
20
-38.76455150000001
10
-18.3845423
20
-23.144551500000009
10
-23.195542300000014
20
-23.144551500000009
10
-23.195542300000014
20
-22.495451500000012
10
-29.19554230000001
20
-22.495451500000012
10
-29.19554230000001
20
-23.144551500000009
10
-34.004542300000011
20
-23.144551500000009
10
-34.004542300000011
20
-38.76455150000001
0
LWPOLYLINE
5
178
100
AcDbEntity
8
0
100
AcDbPolyline
90
8
70
1
43
0.0
10
0.6654577000000117
20
-38.76455150000001
10
0.6654577000000117
20
-23.144551500000009
10
-4.145542300000038
20
-23.144551500000009
10
-4.145542300000038
20
-22.495451500000012
10
-10.145542300000017
20
-22.495451500000012
10
-10.145542300000017
20
-23.144551500000009
10
-14.9545423
20
-23.144551500000009
10
-14.9545423
20
-38.76455150000001
0
LWPOLYLINE
5
179
100
AcDbEntity
8
0
100
AcDbPolyline
90
8
70
1
43
0.0
10
19.715457699999988
20
-38.76455150000001
10
19.715457699999988
20
-23.144551500000009
10
14.904457699999973
20
-23.144551500000009
10
14.904457699999973
20
-22.495451500000012
10
8.9044576999999947
20
-22.495451500000012
10
8.9044576999999947
20
-23.144551500000009
10
4.0954577000000114
20
-23.144551500000009
10
4.0954577000000114
20
-38.76455150000001
0
LWPOLYLINE
5
180
100
AcDbEntity
8
0
100
AcDbPolyline
90
8
70
1
43
0.0
10
38.765457699999999
20
-38.76455150000001
10
38.765457699999999
20
-23.144551500000009
10
33.954457699999985
20
-23.144551500000009
10
33.954457699999985
20
-22.495451500000012
10
27.954457699999971
20
-22.495451500000012
10
27.954457699999971
20
-23.144551500000009
10
23.145457699999987
20
-23.144551500000009
10
23.145457699999987
20
-38.76455150000001
0
LWPOLYLINE
5
181
100
AcDbEntity
8
0
100
AcDbPolyline
90
8
70
1
43
0.0
10
57.81545770000001
20
-38.76455150000001
10
57.81545770000001
20
-23.144551500000009
10
53.004457699999996
20
-23.144551500000009
10
53.004457699999996
20
-22.495451500000012
10
47.004457699999982
20
-22.495451500000012
10
47.004457699999982
20
-23.144551500000009
10
42.195457699999999
20
-23.144551500000009
10
42.195457699999999
20
-38.76455150000001
0
LWPOLYLINE
5
182
100
AcDbEntity
8
0
100
AcDbPolyline
90
8
70
1
43
0.0
10
93.534457700000004
20
-38.76455150000001
10
93.534457700000004
20
-23.144551500000009
10
88.723457699999983
20
-23.144551500000009
10
88.723457699999983
20
-22.495451500000012
10
82.723457699999983
20
-22.495451500000012
10
82.723457699999983
20
-23.144551500000009
10
77.912457700000033
20
-23.144551500000009
10
77.912457700000033
20
-38.76455150000001
0
LWPOLYLINE
5
183
100
AcDbEntity
8
0
100
AcDbPolyline
90
8
70
1
43
0.0
10
-156.54534230000002
20
-42.194551500000017
10
-156.54534230000002
20
-41.545551500000009
10
-162.54674230000003
20
-41.545551500000009
10
-162.54674230000003
20
-42.194551500000017
10
-167.35468230000004
20
-42.194551500000017
10
-167.35468230000004
20
-57.814611500000012
10
-151.73464230000002
20
-57.814611500000012
10
-151.73464230000002
20
-42.194551500000017
0
LWPOLYLINE
5
184
100
AcDbEntity
8
0
100
AcDbPolyline
90
8
70
1
43
0.0
10
-127.92224230000002
20
-57.814611500000012
10
-127.92224230000002
20
-42.194551500000017
10
-132.73164230000003
20
-42.194551500000017
10
-132.73164230000003
20
-41.545551500000009
10
-138.73144230000003
20
-41.545551500000009
10
-138.73144230000003
20
-42.194551500000017
10
-143.54214230000002
20
-42.194551500000017
10
-143.54214230000002
20
-57.814611500000012
0
LWPOLYLINE
5
185
100
AcDbEntity
8
0
100
AcDbPolyline
90
8
70
1
43
0.0
10
-104.10974230000001
20
-57.814611500000012
10
-104.10974230000001
20
-42.194551500000017
10
-108.92014230000001
20
-42.194551500000017
10
-108.92014230000001
20
-41.545551500000009
10
-114.92024230000001
20
-41.545551500000009
10
-114.92024230000001
20
-42.194551500000017
10
-119.72964230000002
20
-42.194551500000017
10
-119.72964230000002
20
-57.814611500000012
0
LWPOLYLINE
5
186
100
AcDbEntity
8
0
100
AcDbPolyline
90
8
70
1
43
0.0
10
-23.147542300000019
20
-57.814611500000012
10
-23.147542300000019
20
-42.194551500000017
10
-27.956542300000002
20
-42.194551500000017
10
-27.956542300000002
20
-41.545551500000009
10
-33.956542300000017
20
-41.545551500000009
10
-33.956542300000017
20
-42.194551500000017
10
-38.767542300000017
20
-42.194551500000017
10
-38.767542300000017
20
-57.814611500000012
0
LWPOLYLINE
5
187
100
AcDbEntity
8
0
100
AcDbPolyline
90
8
70
1
43
0.0
10
57.81545770000001
20
-57.814611500000012
10
57.81545770000001
20
-42.194551500000017
10
53.004457699999996
20
-42.194551500000017
10
53.004457699999996
20
-41.545551500000009
10
47.004457699999982
20
-41.545551500000009
10
47.004457699999982
20
-42.194551500000017
10
42.195457699999999
20
-42.194551500000017
10
42.195457699999999
20
-57.814611500000012
0
LWPOLYLINE
5
188
100
AcDbEntity
8
0
100
AcDbPolyline
90
8
70
1
43
0.0
10
81.626457700000003
20
-57.814611500000012
10
81.626457700000003
20
-42.194551500000017
10
76.818457699999982
20
-42.194551500000017
10
76.818457699999982
20
-41.545551500000009
10
70.81845770000001
20
-41.545551500000009
10
70.81845770000001
20
-42.194551500000017
10
66.007457700000032
20
-42.194551500000017
10
66.007457700000032
20
-57.814611500000012
0
LWPOLYLINE
5
189
100
AcDbEntity
8
0
100
AcDbPolyline
90
8
70
1
43
0.0
10
105.4404577
20
-57.814611500000012
10
105.4404577
20
-42.194551500000017
10
100.62945769999999
20
-42.194551500000017
10
100.62945769999999
20
-41.545551500000009
10
94.629457699999975
20
-41.545551500000009
10
94.629457699999975
20
-42.194551500000017
10
89.82045770000002
20
-42.194551500000017
10
89.82045770000002
20
-57.814611500000012
0
LWPOLYLINE
5
190
100
AcDbEntity
8
0
100
AcDbPolyline
90
8
70
1
43
0.0
10
134.01545770000001
20
-57.814611500000012
10
134.01545770000001
20
-42.194551500000017
10
129.20445769999998
20
-42.194551500000017
10
129.20445769999998
20
-41.545551500000009
10
123.20445769999995
20
-41.545551500000009
10
123.20445769999995
20
-42.194551500000017
10
118.39545770000001
20
-42.194551500000017
10
118.39545770000001
20
-57.814611500000012
0
LWPOLYLINE
5
191
100
AcDbEntity
8
0
100
AcDbPolyline
90
8
70
1
43
0.0
10
153.06545770000002
20
-57.814611500000012
10
153.06545770000002
20
-42.194551500000017
10
148.25445769999999
20
-42.194551500000017
10
148.25445769999999
20
-41.545551500000009
10
142.25445769999996
20
-41.545551500000009
10
142.25445769999996
20
-42.194551500000017
10
137.44545770000002
20
-42.194551500000017
10
137.44545770000002
20
-57.814611500000012
0
LWPOLYLINE
5
192
100
AcDbEntity
8
0
100
AcDbPolyline
90
8
70
1
43
0.0
10
172.11545769999998
20
-57.814611500000012
10
172.11545769999998
20
-42.194551500000017
10
167.3044577
20
-42.194551500000017
10
167.3044577
20
-41.545551500000009
10
161.30445769999997
20
-41.545551500000009
10
161.30445769999997
20
-42.194551500000017
10
156.4954577
20
-42.194551500000017
10
156.4954577
20
-57.814611500000012
0
LWPOLYLINE
5
193
100
AcDbEntity
8
0
100
AcDbPolyline
90
4
70
1
43
0.0
10
3.8524576999999827
20
-43.914551500000016
10
16.652457699999985
20
-43.914551500000016
10
16.652457699999985
20
-50.314551500000007
10
3.8524576999999827
20
-50.314551500000007
0
LWPOLYLINE
5
194
100
AcDbEntity
8
0
100
AcDbPolyline
90
4
70
1
43
0.0
10
-78.567542300000014
20
-43.914551500000016
10
-65.767542300000017
20
-43.914551500000016
10
-65.767542300000017
20
-50.314551500000007
10
-78.567542300000014
20
-50.314551500000007
0
LINE
5
195
100
AcDbEntity
8
0
100
AcDbLine
10
-97.617542299999968
20
-42.196249999999978
30
0
11
-97.617542299999968
21
-57.816249999999975
31
0
0
LINE
5
196
100
AcDbEntity
8
0
100
AcDbLine
10
-97.617542299999968
20
-57.816249999999975
30
0
11
-81.997542300000021
21
-57.816249999999982
31
0
0
LINE
5
197
100
AcDbEntity
8
0
100
AcDbLine
10
-81.997542300000021
20
-57.816249999999982
30
0
11
-81.997542300000021
21
-42.196249999999978
31
0
0
LINE
5
198
100
AcDbEntity
8
0
100
AcDbLine
10
-81.997542300000021
20
-42.196249999999978
30
0
11
-86.807542300000023
21
-42.196249999999978
31
0
0
LINE
5
199
100
AcDbEntity
8
0
100
AcDbLine
10
-86.807542300000023
20
-42.196249999999978
30
0
11
-86.807542300000023
21
-41.546249999999972
31
0
0
LINE
5
200
100
AcDbEntity
8
0
100
AcDbLine
10
-86.807542300000023
20
-41.546249999999972
30
0
11
-92.807542300000023
21
-41.546249999999972
31
0
0
LINE
5
201
100
AcDbEntity
8
0
100
AcDbLine
10
-92.807542300000023
20
-41.546249999999972
30
0
11
-92.807542300000023
21
-42.196249999999978
31
0
0
LINE
5
202
100
AcDbEntity
8
0
100
AcDbLine
10
-92.807542300000023
20
-42.196249999999978
30
0
11
-97.617542299999968
21
-42.196249999999978
31
0
0
LWPOLYLINE
5
203
100
AcDbEntity
8
0
100
AcDbPolyline
90
8
70
1
43
0.0
10
30.892457699999927
20
-42.196249999999992
10
30.892457699999927
20
-41.546249999999986
10
24.89245769999993
20
-41.546249999999986
10
24.89245769999993
20
-42.196249999999992
10
20.082457699999985
20
-42.196249999999992
10
20.082457699999985
20
-57.816249999999975
10
35.702457699999933
20
-57.816249999999968
10
35.702457699999933
20
-42.196249999999992
0
LINE
5
204
100
AcDbEntity
8
0
100
AcDbLine
10
75.640457699999985
20
-4.6645515000000044
30
0
11
77.940457699999982
21
-4.6645515000000035
31
0
0
LINE
5
205
100
AcDbEntity
8
0
100
AcDbLine
10
77.940457699999982
20
-4.6645515000000035
30
0
11
77.940457699999982
21
-8.1145515000000046
31
0
0
LINE
5
206
100
AcDbEntity
8
0
100
AcDbLine
10
75.640457699999985
20
-4.6645515000000044
30
0
11
75.640457699999985
21
-13.964551500000006
31
0
0
LINE
5
207
100
AcDbEntity
8
0
100
AcDbLine
10
75.640457699999985
20
-13.964551500000006
30
0
11
77.940457699999982
21
-13.964551500000004
31
0
0
LINE
5
208
100
AcDbEntity
8
0
100
AcDbLine
10
77.940457699999982
20
-13.964551500000004
30
0
11
77.940457699999982
21
-10.514551500000007
31
0
0
ARC
5
209
100
AcDbEntity
8
0
100
AcDbCircle
10
77.940457699999982
20
-9.3145515000000092
30
0
40
1.1999999999999977
210
0
220
0
230
1
100
AcDbArc
50
-90
51
90
0
LWPOLYLINE
5
210
100
AcDbEntity
8
0
100
AcDbPolyline
90
6
70
1
43
0.0
10
105.27875000000003
20
-13.964551499997819
10
105.27875000000003
20
-10.514551500011127
42
0.99999999999999989
10
105.27875000000006
20
-8.114551500006062
10
105.27875000000003
20
-4.6645514999978559
10
102.97875000000003
20
-4.6645514999978435
10
102.97875000000006
20
-13.964551499997848
0
LINE
5
211
100
AcDbEntity
8
0
100
AcDbLine
10
82.67545770000001
20
-4.0945515000000032
30
0
11
82.67545770000001
21
-19.71455150000001
31
0
0
LINE
5
212
100
AcDbEntity
8
0
100
AcDbLine
10
82.67545770000001
20
-19.71455150000001
30
0
11
98.296457700000019
21
-19.71455150000001
31
0
0
LINE
5
213
100
AcDbEntity
8
0
100
AcDbLine
10
98.296457700000019
20
-19.71455150000001
30
0
11
98.296457700000019
21
-10.191249999999972
31
0
0
LINE
5
214
100
AcDbEntity
8
0
100
AcDbLine
10
98.296457700000019
20
-10.191249999999972
30
0
11
100.67875000000002
21
-10.19124999999997
31
0
0
LINE
5
215
100
AcDbEntity
8
0
100
AcDbLine
10
100.67875000000002
20
-10.19124999999997
30
0
11
100.67875000000002
21
-0.6662499999999677
31
0
0
LINE
5
216
100
AcDbEntity
8
0
100
AcDbLine
10
100.67875000000002
20
-0.6662499999999677
30
0
11
105.44124999999987
21
-0.66624999999996493
31
0
0
LINE
5
217
100
AcDbEntity
8
0
100
AcDbLine
10
105.44124999999987
20
-0.66624999999996493
30
0
11
105.44124999999994
21
14.953750000000024
31
0
0
LINE
5
218
100
AcDbEntity
8
0
100
AcDbLine
10
105.44124999999994
20
14.953750000000024
30
0
11
100.63124999999999
21
14.953750000000014
31
0
0
LINE
5
219
100
AcDbEntity
8
0
100
AcDbLine
10
100.63124999999999
20
14.953750000000014
30
0
11
100.63124999999998
21
15.603750000000026
31
0
0
LINE
5
220
100
AcDbEntity
8
0
100
AcDbLine
10
100.63124999999998
20
15.603750000000026
30
0
11
94.63124999999998
21
15.603750000000019
31
0
0
LINE
5
221
100
AcDbEntity
8
0
100
AcDbLine
10
94.63124999999998
20
15.603750000000019
30
0
11
94.63124999999998
21
14.953750000000019
31
0
0
LINE
5
222
100
AcDbEntity
8
0
100
AcDbLine
10
94.63124999999998
20
14.953750000000019
30
0
11
89.821249999999949
21
14.953750000000019
31
0
0
LINE
5
223
100
AcDbEntity
8
0
100
AcDbLine
10
89.821249999999949
20
14.953750000000019
30
0
11
89.821249999999907
21
5.4287500000000213
31
0
0
LINE
5
224
100
AcDbEntity
8
0
100
AcDbLine
10
89.821249999999907
20
5.4287500000000213
30
0
11
85.058750000000003
21
5.4287500000000168
31
0
0
LINE
5
225
100
AcDbEntity
8
0
100
AcDbLine
10
85.058750000000003
20
5.4287500000000168
30
0
11
85.058750000000003
21
0.61875000000002733
31
0
0
LINE
5
226
100
AcDbEntity
8
0
100
AcDbLine
10
85.058750000000003
20
0.61875000000002733
30
0
11
84.408749999999998
21
0.61875000000003233
31
0
0
LINE
5
227
100
AcDbEntity
8
0
100
AcDbLine
10
84.408749999999998
20
0.61875000000003233
30
0
11
84.408749999999998
21
-4.0945515000000032
31
0
0
LINE
5
228
100
AcDbEntity
8
0
100
AcDbLine
10
84.408749999999998
20
-4.0945515000000032
30
0
11
82.67545770000001
21
-4.0945515000000032
31
0
0
LINE
5
229
100
AcDbEntity
8
0
100
AcDbLine
10
75.532457700000009
20
34.0054485
30
0
11
75.532457700000009
21
18.385448499999999
31
0
0
LINE
5
230
100
AcDbEntity
8
0
100
AcDbLine
10
75.532457700000009
20
18.385448499999999
30
0
11
110.20245770000002
21
18.385448499999999
31
0
0
LINE
5
231
100
AcDbEntity
8
0
100
AcDbLine
10
110.20245770000002
20
18.385448499999999
30
0
11
110.20245770000002
21
34.0054485
31
0
0
LINE
5
232
100
AcDbEntity
8
0
100
AcDbLine
10
110.20245770000002
20
34.0054485
30
0
11
105.3934577
21
34.0054485
31
0
0
LINE
5
233
100
AcDbEntity
8
0
100
AcDbLine
10
105.3934577
20
34.0054485
30
0
11
105.3934577
21
34.654548499999997
31
0
0
LINE
5
234
100
AcDbEntity
8
0
100
AcDbLine
10
105.3934577
20
34.654548499999997
30
0
11
99.393457699999999
21
34.654548499999997
31
0
0
LINE
5
235
100
AcDbEntity
8
0
100
AcDbLine
10
80.343457700000016
20
34.0054485
30
0
11
80.343457700000016
21
34.654548499999997
31
0
0
LINE
5
236
100
AcDbEntity
8
0
100
AcDbLine
10
80.343457700000016
20
34.0054485
30
0
11
75.532457700000009
21
34.0054485
31
0
0
LINE
5
237
100
AcDbEntity
8
0
100
AcDbLine
10
80.343457700000016
20
34.654548499999997
30
0
11
86.343457699999988
21
34.654548499999997
31
0
0
LINE
5
238
100
AcDbEntity
8
0
100
AcDbLine
10
86.343457699999988
20
34.0054485
30
0
11
86.343457699999988
21
34.654548499999997
31
0
0
LINE
5
239
100
AcDbEntity
8
0
100
AcDbLine
10
86.343457699999988
20
34.0054485
30
0
11
89.868750000000034
21
34.003749999999769
31
0
0
LINE
5
240
100
AcDbEntity
8
0
100
AcDbLine
10
89.868750000000034
20
34.003749999999769
30
0
11
89.868750000000034
21
34.653749999999775
31
0
0
LINE
5
241
100
AcDbEntity
8
0
100
AcDbLine
10
89.868750000000034
20
34.653749999999775
30
0
11
95.868750000000063
21
34.653750000000088
31
0
0
LINE
5
242
100
AcDbEntity
8
0
100
AcDbLine
10
95.868750000000063
20
34.653750000000088
30
0
11
95.868750000000063
21
34.003750000000075
31
0
0
LINE
5
243
100
AcDbEntity
8
0
100
AcDbLine
10
95.868750000000063
20
34.003750000000075
30
0
11
99.393457699999999
21
34.0054485
31
0
0
LINE
5
244
100
AcDbEntity
8
0
100
AcDbLine
10
99.393457699999999
20
34.0054485
30
0
11
99.393457699999999
21
34.654548499999997
31
0
0
ENDSEC
0
SECTION
2
OBJECTS
0
DICTIONARY
5
C
100
AcDbDictionary
3
ACAD_GROUP
350
D
3
ACAD_MLINESTYLE
350
17
0
DICTIONARY
5
D
100
AcDbDictionary
0
DICTIONARY
5
1A
330
C
100
AcDbDictionary
0
DICTIONARY
5
17
100
AcDbDictionary
0
ENDSEC
0
EOF
