<?xml version="1.0" encoding="UTF-8"?>
<svg id="B.Silkscreen.Art" xmlns="http://www.w3.org/2000/svg" width="356.7066mm" height="128.1067mm" viewBox="0 0 1011.1369 363.137">
  <line x1="985.7834" y1="25.3536" x2="1010.7834" y2=".3536" style="fill: none; stroke: #000; stroke-linejoin: round;"/>
  <g>
    <path d="M584.7874,95.6627c.2738.1182.6553.1826,1.0424.1826.9633,0,1.4589-.5835,1.4589-1.4605,0-.7645-.2983-1.3855-.7571-1.7629-.3333-.2763-.7808-.4238-1.2551-.4238-.4711,0-.8338.1002-.9943.176l-.3203-.9527c.1606-.0929.6064-.2282,1.2022-.2282.7734,0,1.4417.1866,2.0123.5787.8338.5575,1.3839,1.5127,1.3839,2.749,0,1.4417-.9707,2.3277-2.4238,2.3277-.6593,0-1.1541-.1068-1.445-.2372l.0962-.9487Z"/>
    <path d="M579.3847,91.1891c.7865,0,1.489.2918,2.0008.7808.6455.6202,1.0131,1.6072,1.0131,2.5966,0,1.2747-.8036,2.2861-2.2258,2.2861-.8215,0-1.5127-.2893-2.0245-.7865-.6308-.6178-.9805-1.5942-.9805-2.5876,0-1.313.7686-2.2894,2.2168-2.2894ZM579.5233,92.1663c-.8598,0-1.1076.6602-1.1076,1.3448,0,.6349.2396,1.5322.6699,1.9625.2494.251.5713.4018.9153.4018.8012,0,1.1492-.5787,1.1492-1.3488,0-.6634-.2478-1.511-.6846-1.9479-.2543-.2551-.5762-.4124-.9421-.4124Z"/>
    <path d="M575.2632,96.763h-1.1606l-.4091-2.163h-.357c-.4646,0-.6928.2046-.7425.8688-.053.6756-.1117,1.1483-.1549,1.2942h-1.2054c.0962-.2266.1402-.9421.2078-1.5575.0538-.4955.198-.8566.524-1l-.0049-.0277c-.7017-.2298-1.2413-.7368-1.2413-1.5493,0-.5102.2543-.8582.6064-1.0709.3822-.2412.9234-.3154,1.4426-.3154.5444,0,1.1003.0489,1.467.1386l1.0277,5.3823ZM573.2339,92.2022c-.0986-.022-.2388-.0391-.4564-.0391-.4678,0-.8386.1972-.8386.6406,0,.5355.4646.9193,1.1011.9193h.4817l-.2877-1.5208Z"/>
    <path d="M568.8964,96.763h-1.1459l-.3773-1.9764c-.1206.013-.2861.035-.4784.035-.6683,0-1.3073-.1614-1.7547-.511-.4271-.3284-.7417-.8525-.7417-1.5395,0-.5298.2217-.9177.5941-1.1671.3961-.2828.9617-.3619,1.4548-.3619.5298,0,1.0766.0505,1.4295.1386l1.0196,5.3823ZM566.8866,92.2112c-.0962-.022-.2567-.0375-.4768-.0375-.4531,0-.8346.172-.8346.6976,0,.5485.4637,1.0008,1.1679,1.0008.1989,0,.3268-.0171.4531-.0424l-.3097-1.6186Z"/>
    <path d="M559.4741,91.1891c.7865,0,1.489.2918,2.0008.7808.6455.6202,1.0131,1.6072,1.0131,2.5966,0,1.2747-.8036,2.2861-2.2258,2.2861-.8215,0-1.5127-.2893-2.0245-.7865-.6308-.6178-.9805-1.5942-.9805-2.5876,0-1.313.7686-2.2894,2.2168-2.2894ZM559.6126,92.1663c-.8598,0-1.1076.6602-1.1076,1.3448,0,.6349.2396,1.5322.6699,1.9625.2494.251.5713.4018.9153.4018.8012,0,1.1492-.5787,1.1492-1.3488,0-.6634-.2478-1.511-.6846-1.9479-.2543-.2551-.5762-.4124-.9421-.4124Z"/>
    <path d="M555.3518,96.763h-1.1606l-.4091-2.163h-.357c-.4646,0-.6928.2046-.7425.8688-.053.6756-.1117,1.1483-.1549,1.2942h-1.2054c.0962-.2266.1402-.9421.2086-1.5575.053-.4955.1972-.8566.5232-1l-.0049-.0277c-.7017-.2298-1.2413-.7368-1.2413-1.5493,0-.5102.2543-.8582.6064-1.0709.3822-.2412.9234-.3154,1.4426-.3154.5444,0,1.1003.0489,1.467.1386l1.0277,5.3823ZM553.3224,92.2022c-.0986-.022-.2388-.0391-.4564-.0391-.4678,0-.8386.1972-.8386.6406,0,.5355.4646.9193,1.1011.9193h.4817l-.2877-1.5208Z"/>
    <path d="M545.8113,95.3383l-.1108,1.4246h-1.2298l.6382-5.4842h1.5053l2.6749,5.4842h-1.2519l-.6447-1.4246h-1.5811ZM547.0444,94.4451l-.5412-1.1818c-.1483-.3138-.2991-.7392-.4409-1.0758h-.0171c-.0261.3342-.053.7751-.0758,1.0758l-.1076,1.1818h1.1826Z"/>
    <path d="M541.7624,96.763h-1.172l-.8395-4.4613h-1.4678l-.1964-1.0228h4.0799l.2005,1.0228h-1.445l.8403,4.4613Z"/>
    <path d="M535.8299,91.2788l1.0391,5.4842h-1.1712l-1.0399-5.4842h1.172Z"/>
    <path d="M529.741,91.1891c.7865,0,1.489.2918,2.0008.7808.6455.6202,1.0131,1.6072,1.0131,2.5966,0,1.2747-.8036,2.2861-2.2258,2.2861-.8215,0-1.5127-.2893-2.0245-.7865-.6308-.6178-.9805-1.5942-.9805-2.5876,0-1.313.7686-2.2894,2.2168-2.2894ZM529.8795,92.1663c-.8598,0-1.1076.6602-1.1076,1.3448,0,.6349.2396,1.5322.6699,1.9625.2494.251.5713.4018.9153.4018.8012,0,1.1492-.5787,1.1492-1.3488,0-.6634-.2478-1.511-.6846-1.9479-.2543-.2551-.5762-.4124-.9421-.4124Z"/>
    <path d="M524.5339,96.763l-.361-1.921c-.163-.8647-.2934-1.639-.3529-2.1744l-.0269-.0024c-.1443.6691-.2934,1.1655-.5355,1.912l-.7645,2.1858h-1.2135l-1.0391-5.4842h1.0954l.3765,1.996c.1491.8044.2274,1.4051.2518,1.9666l.0212.0033c.1304-.6056.2771-1.1736.5004-1.8721l.7237-2.0938h1.3757l1.0391,5.4842h-1.0905Z"/>
    <path d="M573.2844,79.017l1.9193,10.1281h-2.1638l-.8003-4.2511h-3.6765l.8044,4.2511h-2.1728l-1.9193-10.1281h2.1728l.7498,3.9495h3.6732l-.7506-3.9495h2.1638Z"/>
    <path d="M563.7089,79.017l1.9185,10.1281h-2.163l-1.9202-10.1281h2.1647Z"/>
    <path d="M561.4643,84.4344l.2918,1.5224h-3.8965l-.291-1.5224h3.8958Z"/>
    <path d="M556.4537,89.1451h-2.163l-1.551-8.2381h-2.7107l-.3619-1.89h7.5331l.3716,1.89h-2.6691l1.551,8.2381Z"/>
    <path d="M543.8211,83.0268h3.6121l-.4181-2.1679h-3.8134l-.3594-1.8419h5.9952l1.9193,10.1281h-6.2112l-.3505-1.8452h4.0449l-.4686-2.4483h-3.5966l-.3537-1.8248Z"/>
    <path d="M543.3663,89.1451h-2.1337l-.6536-3.3831-1.0701-1.022-1.6985,4.4051h-2.357l2.3513-5.7548-4.1036-4.3733h2.6993l2.8158,3.366c.2893.3651.6031.727.9071,1.1622l.0456.0016-.8566-4.5298h2.1345l1.9193,10.1281Z"/>
    <path d="M515.2563,76.7849v23.7351h77.6482v-23.7351h-77.6482ZM517.4095,98.7674v-21.44h74.9525v21.44h-74.9525Z"/>
  </g>
  <g>
    <path d="M595.9311,76.7849v23.7351h61.1321v-23.7351h-61.1321ZM598.0843,98.7674v-21.44h58.4364v21.44h-58.4364Z"/>
    <path d="M648.7992,93.752v-11.1884c0-.1209.0873-.2242.2065-.2444l1.7269-.2919c.1192-.0202.2065-.1234.2065-.2444v-1.5959s1.3117.8198,1.3117.8198c.0725.0453.1165.1247.1165.2102v1.9953c0,.1212-.0876.2246-.2071.2445l-1.5517.2584c-.1195.0199-.2071.1233-.2071.2445v9.7924c0,.1369-.111.2478-.2478.2478h-1.1065c-.1369,0-.2478-.111-.2478-.2478Z"/>
    <path d="M610.5076,93.752v-11.1884c0-.1209.0873-.2242.2065-.2444l1.7269-.2919c.1192-.0202.2065-.1234.2065-.2444v-1.5959s1.3117.8198,1.3117.8198c.0725.0453.1165.1247.1165.2102v1.9953c0,.1212-.0876.2246-.2071.2445l-1.5517.2584c-.1195.0199-.2071.1233-.2071.2445v9.7924c0,.1369-.111.2478-.2478.2478h-1.1065c-.1369,0-.2478-.111-.2478-.2478Z"/>
    <path d="M638.704,89.6268v-7.0632c0-.1209.0873-.2242.2065-.2444l1.7269-.2919c.1192-.0202.2065-.1234.2065-.2444v-1.5959s1.3117.8198,1.3117.8198c.0725.0453.1165.1247.1165.2102v1.9953c0,.1212-.0876.2246-.2071.2445l-1.5517.2584c-.1195.0199-.2071.1233-.2071.2445v4.3347c0,.0578-.0202.1138-.0572.1583l-1.1065,1.3325c-.1482.1785-.4385.0737-.4385-.1583Z"/>
    <path d="M619.9607,88.4889v5.3321c0,.1369-.111.2478-.2478.2478h-1.1065c-.1369,0-.2478-.111-.2478-.2478v-8.3726"/>
    <path d="M645.3451,96.4528v.8567c0,.1369.111.2478.2478.2478h6.5987c.1369,0,.2478-.111.2478-.2478v-2.1504c0-.0854-.044-.1649-.1165-.2102l-1.3117-.8198v1.828c0,.1369-.111.2478-.2478.2478h-5.1705c-.1369,0-.2478.111-.2478.2478Z"/>
    <path d="M632.4447,93.752v-11.1884c0-.1209.0873-.2242.2065-.2444l1.7269-.2919c.1192-.0202.2065-.1234.2065-.2444v-1.5959s1.3117.8198,1.3117.8198c.0725.0453.1165.1247.1165.2102v1.9953c0,.1212-.0876.2246-.2071.2445l-1.5517.2584c-.1195.0199-.2071.1233-.2071.2445v9.7924c0,.1369-.111.2478-.2478.2478h-1.1065c-.1369,0-.2478-.111-.2478-.2478Z"/>
    <path d="M628.9907,96.4528v.8567c0,.1369.111.2478.2478.2478h6.5987c.1369,0,.2478-.111.2478-.2478v-2.1504c0-.0854-.044-.1649-.1165-.2102l-1.3117-.8198v1.828c0,.1369-.111.2478-.2478.2478h-5.1705c-.1369,0-.2478.111-.2478.2478Z"/>
    <path d="M614.9332,96.4528v.8567c0,.1369.111.2478.2478.2478h6.5987c.1369,0,.2478-.111.2478-.2478v-2.1504c0-.0854-.044-.1649-.1165-.2102l-1.3117-.8198v1.828c0,.1369-.111.2478-.2478.2478h-5.1705c-.1369,0-.2478.111-.2478.2478Z"/>
    <path d="M603.566,96.205l1.7254,1.3023c.043.0325.0954.05.1493.05h8.4833c.1369,0,.2478-.111.2478-.2478v-2.1504c0-.0854-.044-.1649-.1165-.2102l-1.3117-.8198v1.828c0,.1369-.111.2478-.2478.2478h-8.9298Z"/>
    <path d="M645.1347,86.6193l-6.302,9.5206c-.0459.0693-.1235.111-.2067.111h-.9892c-.1369,0-.2478.111-.2478.2478v.8108c0,.1369.111.2478.2478.2478h2.2835c.0831,0,.1608-.0417.2067-.111l5.421-8.1896c.0269-.0406.0412-.0881.0412-.1368v-2.3637c0-.2456-.3189-.3416-.4545-.1368Z"/>
    <path d="M629.4185,85.2501l-3.7417,10.8213c-.0345.0999-.1286.1668-.2342.1668h-.9422c-.1356,0-.2461.109-.2478.2446l-.0104.8106c-.0018.1381.1097.251.2478.251h1.8647c.1057,0,.1997-.067.2342-.1668l2.8159-8.144c.009-.0261.0136-.0534.0136-.081v-3.9027Z"/>
    <path d="M620.0022,80.6026l1.1196.6158c.0527.029.0931.0762.1136.1327l3.1725,8.7575c.0274.0755.0164.1596-.0294.2256l-.5589.8059-3.8174-10.5375Z"/>
    <path d="M607.4594,83.5352v-1.0422c0-.1266-.0926-.2339-.2186-.2463-.6323-.0627-2.4591-.1269-3.1005,1.1183-.781,1.516.1493,2.5152.8958,2.4692s.5742-.6432.8269-1.0796c.2351-.406.49-.812,1.3843-.9776.1186-.022.2121-.1212.2121-.2418Z"/>
    <path d="M607.4594,90.1083v-1.0302c0-.1279-.0954-.2357-.2229-.2467-.7333-.0633-3.0699-.157-3.8793,1.1143-.9652,1.516.0729,3.0492.9955,3.0033s.4457-1.2174.758-1.6538c.2944-.4114.9477-.787,2.1273-.9442.1229-.0164.2214-.1187.2214-.2427Z"/>
  </g>
  <g>
    <g id="CIRCLE">
      <circle cx="543.2551" cy="329.9847" r=".6854"/>
    </g>
    <g id="CIRCLE-2" data-name="CIRCLE">
      <circle cx="527.1308" cy="329.9847" r="4.0311"/>
    </g>
    <g id="CIRCLE-3" data-name="CIRCLE">
      <circle cx="519.0687" cy="343.9487" r=".6854"/>
    </g>
    <g id="CIRCLE-4" data-name="CIRCLE">
      <circle cx="511.0065" cy="329.9847" r="2.0155"/>
    </g>
    <g id="CIRCLE-5" data-name="CIRCLE">
      <circle cx="505.6318" cy="329.9847" r=".6854"/>
    </g>
    <g id="CIRCLE-6" data-name="CIRCLE">
      <circle cx="516.3813" cy="329.9847" r=".6854"/>
    </g>
    <g id="CIRCLE-7" data-name="CIRCLE">
      <circle cx="519.0687" cy="316.0206" r=".6854"/>
    </g>
    <g id="LWPOLYLINE">
      <path d="M542.0331,323.2515c-3.7186-8.2303-13.4052-11.8877-21.6354-8.169-.115.052-.1661.1873-.1141.3023s.1873.1661.3023.1141c8.0003-3.6147,17.4161-.0595,21.0309,7.9408.7109,1.5734,1.1607,3.2522,1.3318,4.9703.0125.1256.1244.2172.25.2047s.2172-.1244.2047-.25c-.176-1.7675-.6387-3.4945-1.3701-5.1132Z"/>
    </g>
    <g id="LWPOLYLINE-2" data-name="LWPOLYLINE">
      <path d="M525.5561,345.8023c-1.7181-.171-3.3969-.6209-4.9703-1.3318-.115-.052-.2503-.0009-.3023.1141s-.0009.2503.1141.3023c1.6187.7314,3.3457,1.1941,5.1132,1.3701,8.9869.8947,16.9976-5.6654,17.8923-14.6523.0125-.1256-.0792-.2375-.2047-.25s-.2375.0792-.25.2047c-.8697,8.7358-8.6565,15.1126-17.3923,14.2429Z"/>
    </g>
    <g id="LWPOLYLINE-3" data-name="LWPOLYLINE">
      <path d="M511.0479,327.026c-.0228.1241.0593.2432.1834.266s.2432-.0593.266-.1834c.7435-4.0415,3.0232-7.638,6.3609-10.0351.1025-.0736.1259-.2164.0523-.3189s-.2164-.1259-.3189-.0523c-3.4337,2.466-5.7789,6.1659-6.5438,10.3236Z"/>
    </g>
    <g id="LWPOLYLINE-4" data-name="LWPOLYLINE">
      <path d="M517.5917,343.2669c.1025.0736.2452.0502.3189-.0523s.0502-.2452-.0523-.3189c-3.3377-2.3971-5.6174-5.9936-6.3609-10.0351-.0228-.1241-.1419-.2062-.266-.1834s-.2062.1419-.1834.266c.7649,4.1577,3.1101,7.8576,6.5438,10.3236Z"/>
    </g>
  </g>
  <g>
    <g>
      <path d="M381.5204,339.4151c0-.3454.1618-.5299.5064-.5299.3301,0,.5064.1845.5064.5299v.1383h.0154c.2071-.415.6367-.6682,1.182-.6682.9433,0,1.7572.6828,1.7572,2.1333,0,1.1051-.614,1.872-1.796,1.872-.445,0-.8818-.2451-1.0816-.5372h-.0154v.2306c0,.8826.2767,1.2273.9595,1.2273.6286,0,.7208-.5752,1.1892-.5752.2451,0,.4595.1998.4595.4757,0,.5445-.8357.9287-1.6876.9287-1.1666,0-1.995-.6221-1.995-1.9724v-3.253ZM384.3673,340.9805c0-.6909-.2225-1.22-.9441-1.22-.521,0-.8284.36-.8284,1.1739,0,.7977.3835,1.1278.8818,1.1278.6375,0,.8907-.5679.8907-1.0816Z"/>
      <path d="M379.0578,337.9265c0,.322-.2605.5833-.5825.5833s-.5833-.2613-.5833-.5833c0-.3228.2613-.5833.5833-.5833s.5825.2605.5825.5833ZM379.0351,342.5378c0,.2993-.123.5598-.5598.5598-.4377,0-.5598-.2605-.5598-.5598v-3.092c0-.2993.1222-.5606.5598-.5606.4369,0,.5598.2613.5598.5606v3.092Z"/>
      <path d="M375.1373,342.1002c0,.6601-.3382.9975-1.1504.9975-.5372,0-.8139-.1764-.8139-.4983,0-.2378.1456-.3762.3916-.3762h.161c.1998,0,.2921-.0922.2921-.2605v-2.2409h-.3382c-.3301,0-.5064-.0995-.5064-.3681s.1764-.3681.5064-.3681h.3382v-.6828c0-.3689.2217-.5606.5598-.5606.3374,0,.5598.1917.5598.5606v.6828h.1917c.3147,0,.445.1222.445.3681,0,.2451-.1302.3681-.445.3681h-.1917v2.3785Z"/>
      <path d="M371.0559,342.5378c0,.2993-.123.5598-.5606.5598-.4369,0-.5598-.2605-.5598-.5598v-1.8494c0-.5598-.4603-.8818-.8511-.8818-.4838,0-.7063.322-.7063.7742v1.957c0,.2993-.123.5598-.5606.5598-.4369,0-.5598-.2605-.5598-.5598v-2.1795c0-1.135.7362-1.4732,1.4125-1.4732.6359,0,1.0274.2993,1.2499.5914h.0154v-1.5428c0-.3681.2225-.5598.5598-.5598.3382,0,.5606.1917.5606.5598v4.6041Z"/>
      <path d="M361.0355,339.4458c0-.2993.123-.5606.5606-.5606.4369,0,.5598.2613.5598.5606v1.8486c0,.5606.4603.8826.8511.8826.4838,0,.7063-.322.7063-.775v-1.9562c0-.2993.123-.5606.5606-.5606.4369,0,.5598.2613.5598.5606v2.1787c0,1.1358-.7362,1.4732-1.4117,1.4732-.6367,0-1.0436-.2912-1.3583-.7055h-.0154v.1456c0,.3374-.1529.5598-.5064.5598-.3527,0-.5064-.2225-.5064-.5598v-3.092Z"/>
      <path d="M358.611,342.5686c0,.3454-.161.5291-.5064.5291-.3301,0-.5064-.1836-.5064-.5291v-.1764h-.0146c-.1845.4757-.6375.7055-1.182.7055-.936,0-1.7572-.6828-1.7572-2.1325,0-1.0744.5445-2.08,1.7264-2.08.4992,0,.8826.2071,1.1043.5679h.0162v-1.5193c0-.3681.2217-.5598.5598-.5598s.5598.1917.5598.5598v4.6348ZM355.7649,341.0031c0,.6601.2912,1.2046.8899,1.22.6521,0,.898-.5833.898-1.22,0-.5752-.2152-1.2507-.898-1.2426-.7135,0-.8899.7208-.8899,1.2426Z"/>
      <path d="M352.2894,342.4229c0,.3446-.284.6286-.6294.6286-.3446,0-.6294-.284-.6294-.6286,0-.3454.2848-.6294.6294-.6294.3454,0,.6294.284.6294.6294Z"/>
      <path d="M348.7217,341.0719c0,1.1747-.6521,2.0258-2.033,2.0258-1.1512,0-1.703-.6747-1.703-1.1658,0-.2225.1836-.4296.4676-.4296.5906,0,.4223.7208,1.2046.7208.614,0,.9441-.4522.9441-1.1512,0-1.0129-.5145-1.3114-.9514-1.3114-.8058,0-.614.6593-1.1439.6593-.2832,0-.521-.161-.521-.483,0-.5218.6974-1.0517,1.6342-1.0517,1.3737,0,2.1018.898,2.1018,2.1867Z"/>
      <path d="M343.0214,340.9878c0,1.1205-.5453,2.1099-2.0711,2.1099-1.5274,0-2.0727-.9894-2.0727-2.1099,0-1.1811.7216-2.1026,2.0727-2.1026,1.3494,0,2.0711.9215,2.0711,2.1026ZM341.9017,340.9878c0-.7289-.2993-1.2734-.9514-1.2734-.6529,0-.9522.5445-.9522,1.2734,0,.6828.284,1.2815.9522,1.2815.6666,0,.9514-.5987.9514-1.2815Z"/>
      <path d="M336.6222,342.5378c0,.2993-.123.5598-.5598.5598s-.5598-.2605-.5598-.5598v-1.8648c0-.5218-.3835-.8664-.8139-.8664-.4369,0-.6132.322-.6132.7208v2.0104c0,.2993-.123.5598-.5606.5598s-.5598-.2605-.5598-.5598v-1.8648c0-.5218-.3843-.8664-.8131-.8664-.4377,0-.614.322-.614.7208v2.0104c0,.2993-.123.5598-.5602.5598s-.5602-.2605-.5602-.5598v-2.2943c0-1.0048.6217-1.3583,1.3963-1.3583.6068,0,1.0048.2686,1.3203.7063.2071-.5291.6901-.7063,1.0744-.7063.5671,0,1.0582.2613,1.3494.7063h.0162v-.1456c0-.3382.199-.5606.5291-.5606s.5291.2225.5291.5606v3.092Z"/>
      <path d="M328.3056,342.4844c.0307.0841.0615.1683.0615.2532,0,.2451-.2225.3907-.3988.3907-.2993,0-.3762-.1917-.4219-.3147l-1.834-4.8257c-.0307-.0849-.0615-.1691-.0615-.2532,0-.2459.2225-.3916.3992-.3916.2989,0,.3758.1917.4219.3147l1.8336,4.8265Z"/>
      <path d="M318.3467,340.5962c0-.3446.146-.5291.5141-.5291h1.5501c.3147,0,.4911.1764.4911.483,0,.3843-.2993.4838-.5679.4838h-.8207c.0611.6755.6444,1.1278,1.3118,1.1278,1.0282,0,1.5654-.7516,1.5654-1.8413,0-1.3963-.6828-1.9643-1.5501-1.9643-1.2277,0-.9975.8673-1.6188.8673-.2686,0-.591-.1157-.591-.5526,0-.4911.7443-1.3276,2.1406-1.3276,1.711,0,2.8776,1.0282,2.8776,2.893,0,1.5492-.7443,2.8922-2.6932,2.8922-.7827,0-1.2815-.2912-1.6423-.7443-.0765.4911-.1764.7135-.5372.7135-.2528,0-.4296-.1917-.4296-.4215v-2.08Z"/>
      <path d="M312.3395,341.203c-.3758,0-.4911-.1003-.4911-.4838,0-.9206.7366-1.834,2.0258-1.834,1.3272,0,2.1176.8753,2.1176,2.1795,0,.974-.5906,2.033-2.156,2.033-.6751,0-1.7572-.3147-1.7572-.9894,0-.2071.1917-.4377.4603-.4377.4526,0,.4526.5526,1.2968.5526.6521,0,1.0359-.4296,1.0359-1.0202h-2.5322ZM314.8717,340.5582c-.123-.5445-.4603-.8899-1.0206-.8899-.4988,0-.8826.3762-.9437.8899h1.9643Z"/>
      <path d="M309.5933,342.5378c0,.2993-.123.5598-.5602.5598s-.5602-.2605-.5602-.5598v-1.8494c0-.5598-.4603-.8818-.8515-.8818-.4834,0-.7059.322-.7059.7742v1.957c0,.2993-.123.5598-.5602.5598s-.5602-.2605-.5602-.5598v-2.1795c0-1.135.7366-1.4732,1.4121-1.4732.6367,0,1.0432.2921,1.3579.7063h.0154v-.1456c0-.3382.1533-.5606.5064-.5606.3527,0,.5064.2225.5064.5606v3.092Z"/>
      <path d="M299.8877,341.203c-.3758,0-.4911-.1003-.4911-.4838,0-.9206.7366-1.834,2.0258-1.834,1.3272,0,2.1176.8753,2.1176,2.1795,0,.974-.5906,2.033-2.156,2.033-.6751,0-1.7572-.3147-1.7572-.9894,0-.2071.1917-.4377.4603-.4377.4526,0,.4526.5526,1.2968.5526.6521,0,1.0359-.4296,1.0359-1.0202h-2.5322ZM302.4198,340.5582c-.123-.5445-.4603-.8899-1.0206-.8899-.4988,0-.8826.3762-.9437.8899h1.9643Z"/>
      <path d="M297.0796,342.5378c0,.2993-.1226.5598-.5602.5598-.4373,0-.5598-.2605-.5598-.5598v-1.3041c0-.9287-.2455-1.2434-.6986-1.2434h-.1994c-.2763,0-.5521-.1456-.5521-.5598,0-.3147.2605-.5453.6136-.5453.5449,0,.7981.4838.9283.9514h.0154v-.4296c0-.3374.2225-.5218.5064-.5218s.5064.1845.5064.5218v3.1309Z"/>
      <path d="M288.9006,340.0364c0-.8058.7443-1.1512,1.8186-1.1512,1.1508,0,1.7798.5679,1.7798,1.0129,0,.2306-.1917.4296-.4757.4296-.445,0-.468-.6132-1.2964-.6132-.3762,0-.7063.1375-.7063.4603,0,.322.2152.3835.4834.4142l.6832.0769c.8592.0995,1.565.3608,1.565,1.2887,0,.7063-.629,1.1431-1.2661,1.1431-.5906,0-1.097-.1683-1.5343-.6521-.0154.3454-.1768.6521-.6601.6521-.2686,0-.5064-.1764-.5064-.4296,0-.1764.1153-.284.1153-.7516v-1.8801ZM290.0206,341.5476c0,.415.3762.8139.9898.8139.3839,0,.6217-.2071.6217-.4603,0-.3382-.2532-.4838-.7212-.5526l-.4069-.0615c-.1302-.0227-.3604-.0615-.4834-.1764v.4369Z"/>
      <path d="M286.3384,342.5378c0,.3681-.2225.5598-.5602.5598-.3374,0-.5598-.1917-.5598-.5598v-4.6041c0-.3681.2225-.5598.5598-.5598.3378,0,.5602.1917.5602.5598v4.6041Z"/>
      <path d="M282.5939,342.4691c0,.3754-.2455.6286-.629.6286s-.6294-.2532-.6294-.6286v-1.4967h-1.3963c-1.22,0-1.9182-.7443-1.9182-1.7491,0-1.2281.8519-1.7499,1.9105-1.7499h1.9258c.4454,0,.7366.1764.7366.737v4.2586ZM281.3355,338.4402h-1.0432c-.6217,0-1.0129.2306-1.0129.7831,0,.4757.3758.7823.8822.7823h1.1739v-1.5654Z"/>
      <path d="M272.3592,340.0364c0-.8058.7443-1.1512,1.8186-1.1512,1.1508,0,1.7798.5679,1.7798,1.0129,0,.2306-.1917.4296-.4757.4296-.445,0-.468-.6132-1.2964-.6132-.3762,0-.7063.1375-.7063.4603,0,.322.2152.3835.4834.4142l.6832.0769c.8592.0995,1.565.3608,1.565,1.2887,0,.7063-.629,1.1431-1.2661,1.1431-.5906,0-1.097-.1683-1.5343-.6521-.0154.3454-.1768.6521-.6601.6521-.2686,0-.5064-.1764-.5064-.4296,0-.1764.1153-.284.1153-.7516v-1.8801ZM273.4793,341.5476c0,.415.3762.8139.9898.8139.3839,0,.6217-.2071.6217-.4603,0-.3382-.2532-.4838-.7212-.5526l-.4069-.0615c-.1302-.0227-.3604-.0615-.4834-.1764v.4369Z"/>
      <path d="M269.8582,342.5378c0,.2993-.123.5598-.5602.5598s-.5602-.2605-.5602-.5598v-1.8494c0-.5598-.4603-.8818-.8515-.8818-.4834,0-.7059.322-.7059.7742v1.957c0,.2993-.123.5598-.5602.5598s-.5602-.2605-.5602-.5598v-2.1795c0-1.135.7366-1.4732,1.4121-1.4732.6367,0,1.0432.2921,1.3579.7063h.0154v-.1456c0-.3382.1533-.5606.5064-.5606.3527,0,.5064.2225.5064.5606v3.092Z"/>
      <path d="M263.8509,341.0719c0,1.1747-.6521,2.0258-2.0334,2.0258-1.1508,0-1.7034-.6747-1.7034-1.1658,0-.2225.184-.4296.468-.4296.591,0,.4223.7208,1.2046.7208.614,0,.9441-.4522.9441-1.1512,0-1.0129-.5141-1.3114-.9518-1.3114-.8054,0-.6136.6593-1.1431.6593-.284,0-.5218-.161-.5218-.483,0-.5218.6982-1.0517,1.6346-1.0517,1.3733,0,2.1022.898,2.1022,2.1867Z"/>
      <path d="M254.2601,340.0364c0-.8058.7443-1.1512,1.8186-1.1512,1.1508,0,1.7798.5679,1.7798,1.0129,0,.2306-.1917.4296-.4757.4296-.445,0-.468-.6132-1.2964-.6132-.3762,0-.7063.1375-.7063.4603,0,.322.2152.3835.4834.4142l.6832.0769c.8592.0995,1.565.3608,1.565,1.2887,0,.7063-.629,1.1431-1.2661,1.1431-.5906,0-1.097-.1683-1.5343-.6521-.0154.3454-.1768.6521-.6601.6521-.2686,0-.5064-.1764-.5064-.4296,0-.1764.1153-.284.1153-.7516v-1.8801ZM255.3802,341.5476c0,.415.3762.8139.9898.8139.3839,0,.6217-.2071.6217-.4603,0-.3382-.2532-.4838-.7212-.5526l-.4069-.0615c-.1302-.0227-.3604-.0615-.4834-.1764v.4369Z"/>
      <path d="M251.7595,342.5378c0,.3681-.2225.5598-.5602.5598s-.5602-.1917-.5602-.5598v-.8519l-.3912-.3454-1.059,1.4967c-.0841.123-.2302.2605-.5064.2605-.2989,0-.5291-.2605-.5291-.5445,0-.1845.0765-.3066.1149-.3608l1.1662-1.5654-.8284-.8664c-.0999-.1076-.1691-.1691-.1691-.3689,0-.284.2763-.5064.5295-.5064.1691,0,.3147.0922.4296.2152l1.243,1.381v-2.5476c0-.3681.2225-.5598.5602-.5598s.5602.1917.5602.5598v4.6041Z"/>
      <path d="M242.6214,341.203c-.3758,0-.4911-.1003-.4911-.4838,0-.9206.7366-1.834,2.0258-1.834,1.3272,0,2.1176.8753,2.1176,2.1795,0,.974-.5906,2.033-2.156,2.033-.6751,0-1.7572-.3147-1.7572-.9894,0-.2071.1917-.4377.4603-.4377.4526,0,.4526.5526,1.2968.5526.6521,0,1.0359-.4296,1.0359-1.0202h-2.5322ZM245.1536,340.5582c-.123-.5445-.4603-.8899-1.0206-.8899-.4988,0-.8826.3762-.9437.8899h1.9643Z"/>
      <path d="M239.7599,342.4844c0,.3139-.1533.6132-.5598.6132-.4069,0-.5602-.2993-.5602-.6132v-3.4221h-.0154l-1.1739,3.6672c-.0845.2613-.2763.3681-.5372.3681s-.4526-.1068-.5372-.3681l-1.1739-3.6672h-.0154v3.4221c0,.3139-.1533.6132-.5602.6132s-.5598-.2993-.5598-.6132v-4.4892c0-.5064.3454-.6213.6828-.6213h.3527c.3916,0,.5756.1537.7059.5752l1.082,3.5451h.0154l1.097-3.5451c.1307-.4215.3147-.5752.7063-.5752h.3681c.3378,0,.6828.1149.6828.6213v4.4892Z"/>
      <path d="M229.5478,339.5607c.3988-.0922.8592-.2152.8592-.5987s-.322-.6521-.9053-.6521c-1.1739,0-1.0663.8211-1.6496.8211-.3066,0-.5752-.1845-.5752-.4992,0-.7362,1.1585-1.2887,2.1406-1.2887,1.0663,0,2.2021.4603,2.2021,1.6884,0,.5906-.2071,1.22-1.351,1.5112l-1.419.3608c-.4296.1076-.5372.3527-.5372.5752,0,.3681.3608.7289,1.0129.7289,1.2734,0,1.097-.9975,1.7798-.9975.3074,0,.5299.2152.5299.5218,0,.5987-.7135,1.3963-2.3097,1.3963-1.5193,0-2.2709-.7443-2.2709-1.7418,0-.644.2912-1.3276,1.4425-1.5881l1.0509-.2378Z"/>
      <path d="M223.2489,342.4691c0,.3754-.2459.6286-.6294.6286s-.6294-.2532-.6294-.6286v-3.9366h-1.1892c-.36,0-.6521-.1845-.6521-.5291,0-.3454.2921-.5299.6521-.5299h3.6373c.3608,0,.6521.1845.6521.5299,0,.3446-.2912.5291-.6521.5291h-1.1892v3.9366Z"/>
      <path d="M217.9394,342.4691c0,.3754-.2451.6286-.6294.6286-.3835,0-.6286-.2532-.6286-.6286v-1.6196h-1.2434c-.6901,0-.8664.3916-.8664,1.3583,0,.2225-.0542.8899-.7443.8899-.2921,0-.5914-.199-.5914-.4911,0-.2605.1691-.4983.1691-1.135,0-.5606.1149-1.0282.7597-1.1205v-.0154c-.5987-.1383-.9514-.7289-.9514-1.3276,0-.7135.3988-1.5347,1.8947-1.5347h2.0953c.445,0,.7362.1764.7362.737v4.2586ZM216.6814,338.4402h-1.2968c-.5526,0-.9134.1537-.9134.7443,0,.6221.4757.7443.9514.7443h1.2588v-1.4886Z"/>
    </g>
    <g>
      <path d="M381.0819,329.3438c-.0227-.1068-.0307-.1764-.0307-.2225,0-.2144.1537-.3293.3382-.3293.1375,0,.3147.038.3681.2759l.0307.1383c.2225-.3228.483-.4757.9514-.4757.7597,0,1.4578.775,1.4578,1.8332,0,.7597-.4757,1.351-1.1278,1.351-.3535,0-.614-.1764-.7985-.3916h-.0146c-.0081.2605-.1618.3916-.4611.3916-.4595,0-1.9408-.4684-1.9408-2.2102,0-1.4651,1.2354-2.3785,2.7013-2.3785,1.6415,0,2.9771,1.2434,2.9771,2.9003,0,1.6884-1.3664,2.8849-3.0241,2.8849-.775,0-1.9408-.483-1.9408-.8972,0-.1618.1383-.2993.2921-.2993.2605,0,.4983.5064,1.6488.5064,1.2434,0,2.1948-.8292,2.1948-2.1948,0-1.22-.9441-2.2094-2.1253-2.2094s-2.0338.6674-2.0338,1.9101c0,.8292.3996,1.182.6755,1.182.1076,0,.1464-.0615.1464-.1537,0-.0615-.0307-.2071-.0469-.2759l-.2378-1.3357ZM383.369,330.4027c0-.4522-.3228-.8438-.7677-.8438-.3835,0-.5906.2686-.5906.6601,0,.4911.3074.8664.7443.8664.3527,0,.614-.2451.614-.6828Z"/>
      <path d="M379.0416,332.452c0,.3754-.2459.6286-.6294.6286s-.6286-.2532-.6286-.6286v-1.4967h-1.3972c-1.22,0-1.9173-.7443-1.9173-1.7491,0-1.2281.8511-1.7499,1.9101-1.7499h1.9262c.445,0,.7362.1772.7362.737v4.2586ZM377.7836,328.4239h-1.0436c-.6221,0-1.0129.2298-1.0129.7823,0,.4757.3762.7823.8826.7823h1.1739v-1.5646Z"/>
      <path d="M370.3415,330.0193c0-.8058.7443-1.1512,1.8186-1.1512,1.1504,0,1.7798.5679,1.7798,1.0129,0,.2306-.1925.4296-.4757.4296-.445,0-.4684-.6132-1.2968-.6132-.3762,0-.7063.1375-.7063.4603,0,.322.2152.3835.4838.4142l.6828.0769c.8592.0995,1.5646.3608,1.5646,1.2887,0,.7063-.6286,1.1431-1.2653,1.1431-.5906,0-1.097-.1683-1.5347-.6521-.0154.3454-.1772.6521-.6601.6521-.2686,0-.5064-.1764-.5064-.4296,0-.1764.1157-.284.1157-.7516v-1.8801ZM371.4612,331.5305c0,.415.3762.8139.9902.8139.3835,0,.6213-.2071.6213-.4603,0-.3382-.2532-.4838-.7216-.5526l-.4061-.0615c-.1311-.0227-.3608-.0615-.4838-.1764v.4369Z"/>
      <path d="M369.3748,332.5207c0,.2993-.123.5598-.5606.5598-.4369,0-.5598-.2605-.5598-.5598v-1.8494c0-.5598-.4603-.8818-.8511-.8818-.4838,0-.7063.322-.7063.7742v1.957c0,.2993-.123.5598-.5606.5598-.4369,0-.5598-.2605-.5598-.5598v-2.1795c0-1.135.7362-1.4732,1.4125-1.4732.6359,0,1.0428.2921,1.3575.7063h.0154v-.1456c0-.3382.1529-.5606.5064-.5606.3527,0,.5064.2225.5064.5606v3.092Z"/>
      <path d="M364.9018,331.0548c0,1.1747-.6521,2.0258-2.0338,2.0258-1.1504,0-1.703-.6747-1.703-1.1658,0-.2225.1836-.4296.4684-.4296.5906,0,.4223.7208,1.2038.7208.6148,0,.9441-.4522.9441-1.1512,0-1.0129-.5137-1.3114-.9514-1.3114-.805,0-.614.6593-1.1431.6593-.284,0-.5218-.161-.5218-.483,0-.5218.6982-1.0517,1.6342-1.0517,1.3737,0,2.1026.898,2.1026,2.1867Z"/>
      <path d="M356.8457,330.0193c0-.8058.7443-1.1512,1.8186-1.1512,1.1504,0,1.7798.5679,1.7798,1.0129,0,.2306-.1917.4296-.4757.4296-.445,0-.4676-.6132-1.296-.6132-.377,0-.7071.1375-.7071.4603,0,.322.2152.3835.4838.4142l.6828.0769c.8592.0995,1.5654.3608,1.5654,1.2887,0,.7063-.6286,1.1431-1.2661,1.1431-.5906,0-1.097-.1683-1.5339-.6521-.0162.3454-.1772.6521-.6601.6521-.2686,0-.5064-.1764-.5064-.4296,0-.1764.1149-.284.1149-.7516v-1.8801ZM357.9654,331.5305c0,.415.377.8139.9902.8139.3835,0,.6213-.2071.6213-.4603,0-.3382-.2524-.4838-.7208-.5526l-.4069-.0615c-.1302-.0227-.3608-.0615-.4838-.1764v.4369Z"/>
      <path d="M355.8798,332.5207c0,.3681-.2233.5598-.5606.5598s-.5606-.1917-.5606-.5598v-.8519l-.3907-.3454-1.059,1.4967c-.0841.123-.2298.2605-.5064.2605-.2993,0-.5291-.2605-.5291-.5445,0-.1845.076-.3066.1149-.3608l1.1666-1.5654-.8284-.8664c-.1003-.1076-.1699-.1691-.1699-.3689,0-.284.2767-.5064.5299-.5064.1691,0,.3147.0922.4296.2152l1.2426,1.381v-2.5467c0-.3689.2233-.5606.5606-.5606s.5606.1917.5606.5606v4.6032Z"/>
      <path d="M348.2759,331.1859c-.3762,0-.4911-.1003-.4911-.4838,0-.9206.7362-1.834,2.0258-1.834,1.3268,0,2.118.8753,2.118,2.1795,0,.974-.5906,2.033-2.1568,2.033-.6747,0-1.7572-.3147-1.7572-.9894,0-.2071.1925-.4377.4611-.4377.4522,0,.4522.5526,1.296.5526.6521,0,1.0363-.4296,1.0363-1.0202h-2.5322ZM350.8081,330.5411c-.123-.5445-.4603-.8899-1.0202-.8899-.4992,0-.8834.3762-.9441.8899h1.9643Z"/>
      <path d="M346.9483,332.4673c0,.3139-.1529.6132-.5598.6132-.4061,0-.5598-.2993-.5598-.6132v-3.4221h-.0154l-1.1739,3.6672c-.0841.2613-.2767.3681-.5372.3681s-.453-.1068-.5372-.3681l-1.1739-3.6672h-.0154v3.4221c0,.3139-.1537.6132-.5598.6132-.4069,0-.5606-.2993-.5606-.6132v-4.4892c0-.5064.3454-.6213.6836-.6213h.3527c.3916,0,.5752.1537.7055.576l1.0824,3.5443h.0146l1.097-3.5443c.1311-.4223.3155-.576.7071-.576h.3673c.3382,0,.6828.1149.6828.6213v4.4892Z"/>
      <path d="M338.2709,329.5436c.3996-.0922.8592-.2152.8592-.5987s-.322-.6521-.9045-.6521c-1.1747,0-1.0671.8211-1.6504.8211-.3066,0-.5752-.1845-.5752-.4983,0-.737,1.1585-1.2896,2.1406-1.2896,1.0671,0,2.2021.4603,2.2021,1.6884,0,.5906-.2071,1.22-1.3502,1.5112l-1.419.3608c-.4304.1076-.5372.3527-.5372.5752,0,.3681.36.7289,1.0129.7289,1.2734,0,1.097-.9975,1.7798-.9975.3066,0,.5291.2152.5291.5218,0,.5987-.7135,1.3963-2.3089,1.3963-1.5193,0-2.2717-.7443-2.2717-1.7418,0-.644.2912-1.3276,1.4425-1.5881l1.0509-.2378Z"/>
      <path d="M333.5075,332.452c0,.3754-.2459.6286-.6294.6286s-.6294-.2532-.6294-.6286v-3.9366h-1.1892c-.3608,0-.6521-.1836-.6521-.5291s.2912-.5299.6521-.5299h3.6373c.3608,0,.6521.1845.6521.5299s-.2912.5291-.6521.5291h-1.1892v3.9366Z"/>
      <path d="M329.7319,332.452c0,.3754-.2455.6286-.629.6286-.3839,0-.629-.2532-.629-.6286v-1.6196h-1.243c-.6909,0-.8673.3916-.8673,1.3583,0,.2225-.0538.8899-.7443.8899-.2916,0-.5906-.199-.5906-.4911,0-.2605.1687-.4983.1687-1.135,0-.5606.1149-1.0282.7597-1.1205v-.0154c-.5987-.1383-.9514-.7289-.9514-1.3276,0-.7135.3988-1.5347,1.8951-1.5347h2.0945c.4454,0,.7366.1772.7366.737v4.2586ZM328.4739,328.4239h-1.2968c-.5526,0-.9134.1529-.9134.7435,0,.6221.4761.7443.9518.7443h1.2584v-1.4878Z"/>
      <path d="M318.6764,329.0525c0-.3066.1994-.5906.5521-.5906.1076,0,.1921.0307.2609.0688-.038-.7823-.8131-.6059-.8131-.9433,0-.123.0918-.2306.2609-.2306.2378,0,.5829.2225.6982.3301.2378.2459.3912.5064.3912,1.0282s-.2225.9668-.7212.9668c-.345,0-.629-.284-.629-.6294ZM320.4182,329.0525c0-.3066.1994-.5906.5521-.5906.1076,0,.1921.0307.2609.0688-.0384-.7823-.8131-.6059-.8131-.9433,0-.123.0918-.2306.2609-.2306.2378,0,.5829.2225.6982.3301.2378.2459.3912.5064.3912,1.0282s-.2225.9668-.7212.9668c-.3454,0-.629-.284-.629-.6294Z"/>
      <path d="M317.7177,334.0093c0,.3681-.2225.5598-.5602.5598s-.5602-.1917-.5602-.5598v-1.4967h-.0154c-.2071.3608-.5906.5679-1.1047.5679-1.1816,0-1.7264-1.0048-1.7264-2.0791,0-1.4505.8211-2.1333,1.7572-2.1333.5449,0,.9975.2306,1.1816.7063h.0154v-.1764c0-.3454.1764-.5299.5064-.5299.345,0,.5064.1845.5064.5299v4.6113ZM314.8708,330.9634c0,.5218.1768,1.2426.8903,1.2426.6828.0081.8976-.6674.8976-1.2426,0-.6375-.2455-1.22-.8976-1.22-.5987.0154-.8903.5598-.8903,1.22Z"/>
      <path d="M309.3085,330.0193c0-.8058.7443-1.1512,1.8186-1.1512,1.1508,0,1.7798.5679,1.7798,1.0129,0,.2306-.1917.4296-.4757.4296-.445,0-.468-.6132-1.2964-.6132-.3762,0-.7063.1375-.7063.4603,0,.322.2152.3835.4834.4142l.6832.0769c.8592.0995,1.565.3608,1.565,1.2887,0,.7063-.629,1.1431-1.2661,1.1431-.5906,0-1.097-.1683-1.5343-.6521-.0154.3454-.1768.6521-.6601.6521-.2686,0-.5064-.1764-.5064-.4296,0-.1764.1153-.284.1153-.7516v-1.8801ZM310.4286,331.5305c0,.415.3762.8139.9898.8139.3839,0,.6217-.2071.6217-.4603,0-.3382-.2532-.4838-.7212-.5526l-.4069-.0615c-.1302-.0227-.3604-.0615-.4834-.1764v.4369Z"/>
      <path d="M308.3422,332.5207c0,.2993-.123.5598-.5602.5598s-.5602-.2605-.5602-.5598v-1.8494c0-.5598-.4603-.8818-.8515-.8818-.4834,0-.7059.322-.7059.7742v1.957c0,.2993-.123.5598-.5602.5598s-.5602-.2605-.5602-.5598v-2.1795c0-1.135.7366-1.4732,1.4121-1.4732.6367,0,1.0432.2921,1.3579.7063h.0154v-.1456c0-.3382.1533-.5606.5064-.5606.3527,0,.5064.2225.5064.5606v3.092Z"/>
      <path d="M303.8692,331.0548c0,1.1747-.6521,2.0258-2.0334,2.0258-1.1508,0-1.7034-.6747-1.7034-1.1658,0-.2225.184-.4296.468-.4296.591,0,.4223.7208,1.2046.7208.614,0,.9441-.4522.9441-1.1512,0-1.0129-.5141-1.3114-.9518-1.3114-.8054,0-.6136.6593-1.1431.6593-.284,0-.5218-.161-.5218-.483,0-.5218.6982-1.0517,1.6346-1.0517,1.3733,0,2.1022.898,2.1022,2.1867Z"/>
      <path d="M295.8131,330.0193c0-.8058.7443-1.1512,1.8186-1.1512,1.1508,0,1.7798.5679,1.7798,1.0129,0,.2306-.1917.4296-.4757.4296-.445,0-.468-.6132-1.2964-.6132-.3762,0-.7063.1375-.7063.4603,0,.322.2152.3835.4834.4142l.6832.0769c.8592.0995,1.565.3608,1.565,1.2887,0,.7063-.629,1.1431-1.2661,1.1431-.5906,0-1.097-.1683-1.5343-.6521-.0154.3454-.1768.6521-.6601.6521-.2686,0-.5064-.1764-.5064-.4296,0-.1764.1153-.284.1153-.7516v-1.8801ZM296.9332,331.5305c0,.415.3762.8139.9898.8139.3839,0,.6217-.2071.6217-.4603,0-.3382-.2532-.4838-.7212-.5526l-.4069-.0615c-.1302-.0227-.3604-.0615-.4834-.1764v.4369Z"/>
      <path d="M294.8467,332.5207c0,.3681-.2225.5598-.5602.5598s-.5602-.1917-.5602-.5598v-.8519l-.3912-.3454-1.059,1.4967c-.0841.123-.2302.2605-.5064.2605-.2989,0-.5295-.2605-.5295-.5445,0-.1845.0769-.3066.1153-.3608l1.1662-1.5654-.8284-.8664c-.0999-.1076-.1691-.1691-.1691-.3689,0-.284.2763-.5064.5295-.5064.1687,0,.3147.0922.4296.2152l1.243,1.381v-2.5467c0-.3689.2225-.5606.5602-.5606s.5602.1917.5602.5606v4.6032Z"/>
      <path d="M287.2433,331.1859c-.3758,0-.4911-.1003-.4911-.4838,0-.9206.7366-1.834,2.0258-1.834,1.3272,0,2.1176.8753,2.1176,2.1795,0,.974-.5906,2.033-2.156,2.033-.6751,0-1.7572-.3147-1.7572-.9894,0-.2071.1917-.4377.4603-.4377.4526,0,.4526.5526,1.2968.5526.6521,0,1.0359-.4296,1.0359-1.0202h-2.5322ZM289.7755,330.5411c-.123-.5445-.4603-.8899-1.0206-.8899-.4988,0-.8826.3762-.9437.8899h1.9643Z"/>
      <path d="M284.2205,327.9862c0,.3066-.1994.5906-.5526.5906-.1072,0-.1917-.0307-.2605-.0688.038.7823.8131.6059.8131.9433,0,.123-.0918.2306-.2609.2306-.2378,0-.5829-.2225-.6982-.3301-.2378-.2459-.3912-.5064-.3912-1.0282s.2225-.9668.7212-.9668c.345,0,.629.284.629.6294ZM285.9622,327.9862c0,.3066-.1994.5906-.5526.5906-.1072,0-.1917-.0307-.2609-.0688.0384.7823.8135.6059.8135.9433,0,.123-.0922.2306-.2609.2306-.2378,0-.5829-.2225-.6982-.3301-.2378-.2459-.3912-.5064-.3912-1.0282s.2225-.9668.7212-.9668c.345,0,.629.284.629.6294Z"/>
      <path d="M279.5634,334.0093c0,.3681-.2225.5598-.5602.5598s-.5602-.1917-.5602-.5598v-1.4967h-.0154c-.2071.3608-.5906.5679-1.1047.5679-1.1816,0-1.7264-1.0048-1.7264-2.0791,0-1.4505.8211-2.1333,1.7572-2.1333.5449,0,.9975.2306,1.1816.7063h.0154v-.1764c0-.3454.1764-.5299.5064-.5299.345,0,.5064.1845.5064.5299v4.6113ZM276.7165,330.9634c0,.5218.1768,1.2426.8903,1.2426.6828.0081.8976-.6674.8976-1.2426,0-.6375-.2455-1.22-.8976-1.22-.5987.0154-.8903.5598-.8903,1.22Z"/>
      <path d="M271.1542,330.0193c0-.8058.7443-1.1512,1.8186-1.1512,1.1504,0,1.7798.5679,1.7798,1.0129,0,.2306-.1917.4296-.4757.4296-.445,0-.4676-.6132-1.2968-.6132-.3754,0-.7055.1375-.7055.4603,0,.322.2144.3835.483.4142l.6828.0769c.86.0995,1.5654.3608,1.5654,1.2887,0,.7063-.6294,1.1431-1.2661,1.1431-.5906,0-1.097-.1683-1.5347-.6521-.0154.3454-.1764.6521-.6593.6521-.2686,0-.5064-.1764-.5064-.4296,0-.1764.1149-.284.1149-.7516v-1.8801ZM272.2747,331.5305c0,.415.3754.8139.9894.8139.3835,0,.6213-.2071.6213-.4603,0-.3382-.2532-.4838-.7208-.5526l-.4069-.0615c-.1302-.0227-.3608-.0615-.483-.1764v.4369Z"/>
      <path d="M270.1882,332.5207c0,.2993-.123.5598-.5598.5598-.4377,0-.5606-.2605-.5606-.5598v-1.8494c0-.5598-.4603-.8818-.8519-.8818-.483,0-.7055.322-.7055.7742v1.957c0,.2993-.123.5598-.5606.5598-.4369,0-.5598-.2605-.5598-.5598v-2.1795c0-1.135.737-1.4732,1.4117-1.4732.6367,0,1.0436.2921,1.3583.7063h.0154v-.1456c0-.3382.1537-.5606.5064-.5606s.5064.2225.5064.5606v3.092Z"/>
      <path d="M265.7144,331.0548c0,1.1747-.6521,2.0258-2.033,2.0258-1.1512,0-1.703-.6747-1.703-1.1658,0-.2225.1836-.4296.4676-.4296.5906,0,.4223.7208,1.2046.7208.614,0,.9441-.4522.9441-1.1512,0-1.0129-.5145-1.3114-.9514-1.3114-.8058,0-.614.6593-1.1431.6593-.284,0-.5218-.161-.5218-.483,0-.5218.6982-1.0517,1.6342-1.0517,1.3729,0,2.1018.898,2.1018,2.1867Z"/>
      <path d="M257.6592,330.0193c0-.8058.7443-1.1512,1.8186-1.1512,1.1504,0,1.7798.5679,1.7798,1.0129,0,.2306-.1917.4296-.4757.4296-.445,0-.4676-.6132-1.2968-.6132-.3754,0-.7055.1375-.7055.4603,0,.322.2144.3835.483.4142l.6828.0769c.86.0995,1.5654.3608,1.5654,1.2887,0,.7063-.6294,1.1431-1.2661,1.1431-.5906,0-1.097-.1683-1.5347-.6521-.0154.3454-.1764.6521-.6593.6521-.2686,0-.5064-.1764-.5064-.4296,0-.1764.1149-.284.1149-.7516v-1.8801ZM258.7796,331.5305c0,.415.3754.8139.9894.8139.3835,0,.6213-.2071.6213-.4603,0-.3382-.2532-.4838-.7208-.5526l-.4069-.0615c-.1302-.0227-.3608-.0615-.483-.1764v.4369Z"/>
      <path d="M256.6924,332.5207c0,.3681-.2225.5598-.5598.5598-.3382,0-.5606-.1917-.5606-.5598v-.8519l-.3916-.3454-1.0582,1.4967c-.0849.123-.2306.2605-.5064.2605-.2993,0-.5299-.2605-.5299-.5445,0-.1845.0769-.3066.1157-.3608l1.1658-1.5654-.8284-.8664c-.0995-.1076-.1691-.1691-.1691-.3689,0-.284.2767-.5064.5299-.5064.1683,0,.3139.0922.4296.2152l1.2426,1.381v-2.5467c0-.3689.2225-.5606.5606-.5606.3374,0,.5598.1917.5598.5606v4.6032Z"/>
      <path d="M249.0894,331.1859c-.3762,0-.4911-.1003-.4911-.4838,0-.9206.7362-1.834,2.0258-1.834,1.3276,0,2.118.8753,2.118,2.1795,0,.974-.5914,2.033-2.1568,2.033-.6747,0-1.7564-.3147-1.7564-.9894,0-.2071.1917-.4377.4603-.4377.4522,0,.4522.5526,1.296.5526.6529,0,1.0363-.4296,1.0363-1.0202h-2.5322ZM251.6216,330.5411c-.123-.5445-.4603-.8899-1.021-.8899-.4983,0-.8818.3762-.9433.8899h1.9643Z"/>
    </g>
  </g>
  <g>
    <path d="M511.014,85.5605c0,.6768-.3516.8896-.8892.8896h-1.8242c-2.0288,0-3.2051-1.2227-3.2051-3.334,0-2.6123,1.519-3.335,3.1772-3.335h1.8521c.5376,0,.8892.2129.8892.8896v4.8896ZM509.4955,81.0039h-1.269c-1.1113,0-1.6118.7969-1.6118,2.1123,0,1.0273.3892,2.1113,1.6025,2.1113h1.2783v-4.2236Z"/>
    <path d="M499.9467,84.2832c-.4536,0-.5928-.1211-.5928-.584,0-1.1113.8892-2.2139,2.4453-2.2139,1.6021,0,2.5562,1.0566,2.5562,2.6309,0,1.1758-.7129,2.4541-2.6025,2.4541-.8149,0-2.1211-.3799-2.1211-1.1943,0-.25.2314-.5283.5557-.5283.5464,0,.5464.667,1.5654.667.7871,0,1.2505-.5186,1.2505-1.2314h-3.0566ZM503.0033,83.5049c-.1484-.6572-.5557-1.0742-1.2319-1.0742-.6021,0-1.0654.4541-1.1392,1.0742h2.3711Z"/>
    <path d="M498.6967,82.9951c0,.9082-.6113,1.2324-1.3984,1.4268l-.7969.1943c-.4814.1201-.7778.1758-.7778.5186,0,.2783.3057.4912.7871.4912,1.0005,0,1.0562-.834,1.6396-.834.3799,0,.5464.2686.5464.5654,0,.667-1.0186,1.2129-2.2412,1.2129-1.019,0-2.084-.5088-2.084-1.6113,0-.9443.917-1.2686,1.6855-1.4453l.5649-.1289c.417-.0928.7227-.167.7227-.4824,0-.2871-.3057-.416-.7783-.416-.8521,0-.8706.6201-1.3984.6201-.3521,0-.5649-.2773-.5649-.5928,0-.6201,1.0371-1.0283,2.0654-1.0283.9355,0,2.0283.4082,2.0283,1.5098Z"/>
    <path d="M493.4642,80.3281c0,.3887-.3149.7031-.7041.7031-.3887,0-.7036-.3145-.7036-.7031,0-.3896.3149-.7041.7036-.7041.3892,0,.7041.3145.7041.7041ZM493.4364,85.8945c0,.3613-.1479.6758-.6763.6758-.5278,0-.6758-.3145-.6758-.6758v-3.7324c0-.3613.1479-.6768.6758-.6768.5283,0,.6763.3154.6763.6768v3.7324Z"/>
    <path d="M486.351,82.125c0-.417.1948-.6396.6113-.6396.3984,0,.6113.2227.6113.6396v.167h.0186c.25-.501.7686-.8066,1.4263-.8066,1.1392,0,2.1211.8242,2.1211,2.5752,0,1.334-.7407,2.2598-2.1675,2.2598-.5371,0-1.0649-.2959-1.3057-.6484h-.0186v.2783c0,1.0654.3335,1.4814,1.1577,1.4814.7593,0,.8706-.6943,1.4355-.6943.2964,0,.5557.2412.5557.5742,0,.6572-1.0093,1.1211-2.0376,1.1211-1.4077,0-2.4082-.751-2.4082-2.3809v-3.9268ZM489.7875,84.0146c0-.834-.2686-1.4727-1.1392-1.4727-.6299,0-1.0005.4346-1.0005,1.417,0,.9629.4629,1.3613,1.0649,1.3613.769,0,1.0747-.6855,1.0747-1.3057Z"/>
    <path d="M485.2772,85.8945c0,.3613-.1484.6758-.6763.6758s-.6763-.3145-.6763-.6758v-2.2324c0-.6758-.5557-1.0645-1.0278-1.0645-.5835,0-.8521.3887-.8521.9346v2.3623c0,.3613-.1484.6758-.6763.6758s-.6763-.3145-.6763-.6758v-2.6309c0-1.3701.8892-1.7783,1.7046-1.7783.7686,0,1.2593.3525,1.6392.8525h.0186v-.1758c0-.4082.1851-.6768.6113-.6768.4258,0,.6113.2686.6113.6768v3.7324Z"/>
    <path d="M475.4135,84.2832c-.4536,0-.5928-.1211-.5928-.584,0-1.1113.8892-2.2139,2.4453-2.2139,1.6021,0,2.5562,1.0566,2.5562,2.6309,0,1.1758-.7129,2.4541-2.6025,2.4541-.8149,0-2.1211-.3799-2.1211-1.1943,0-.25.2314-.5283.5557-.5283.5464,0,.5464.667,1.5654.667.7871,0,1.2505-.5186,1.2505-1.2314h-3.0566ZM478.4701,83.5049c-.1484-.6572-.5557-1.0742-1.2319-1.0742-.6021,0-1.0654.4541-1.1392,1.0742h2.3711Z"/>
    <path d="M469.3656,80.3369c0-.4443.2686-.6758.6763-.6758s.6763.2314.6763.6758v1.834h.0186c.2686-.4355.7314-.6855,1.3335-.6855,1.4263,0,2.084,1.2139,2.084,2.5107,0,1.75-.9912,2.5742-2.1211,2.5742-.6577,0-1.2041-.2773-1.4263-.8516h-.0186v.2129c0,.417-.2129.6387-.6113.6387-.4165,0-.6113-.2217-.6113-.6387v-5.5947ZM472.8021,84.042c0-.6299-.2134-1.5-1.0747-1.5-.8242-.0098-1.0835.8057-1.0835,1.5,0,.7686.2964,1.4727,1.0835,1.4727.7227-.0186,1.0747-.6758,1.0747-1.4727Z"/>
    <path d="M465.2543,85.8115c0,.4531-.2969.7588-.7598.7588s-.7593-.3057-.7593-.7588v-2.084h-2.2974c-.3979,0-.7129-.1113-.7129-.584s.3149-.583.7129-.583h2.2974v-1.5566h-2.7139c-.4448,0-.769-.1299-.769-.6113s.3242-.6113.769-.6113h3.3433c.5376,0,.8896.2129.8896.8896v5.1406Z"/>
    <path d="M460.1698,84.0234c0,1.3525-.6577,2.5469-2.5005,2.5469s-2.501-1.1943-2.501-2.5469c0-1.4258.8706-2.5381,2.501-2.5381s2.5005,1.1123,2.5005,2.5381ZM458.8177,84.0234c0-.8799-.3613-1.5371-1.1484-1.5371-.7876,0-1.1489.6572-1.1489,1.5371,0,.8242.3428,1.5469,1.1489,1.5469.8057,0,1.1484-.7227,1.1484-1.5469Z"/>
    <path d="M454.224,85.8945c0,.3613-.1479.6758-.6763.6758-.5278,0-.6758-.3145-.6758-.6758v-1.5742c0-1.1211-.2964-1.501-.8433-1.501h-.2407c-.3335,0-.6665-.1758-.6665-.6758,0-.3799.3145-.6582.7407-.6582.6577,0,.9634.584,1.1206,1.1484h.0186v-.5186c0-.4072.2686-.6299.6113-.6299s.6113.2227.6113.6299v3.7793Z"/>
    <path d="M447.5277,83.9492c0,1.834-1.1299,2.6582-2.8989,2.6582s-2.8989-.8242-2.8989-2.6582v-3.5293c0-.4531.2964-.7588.7593-.7588.4634,0,.7598.3057.7598.7588v3.6504c0,.9072.5093,1.3145,1.3799,1.3145s1.3804-.4072,1.3804-1.3145v-3.6504c0-.4531.2959-.7588.7593-.7588.4629,0,.7593.3057.7593.7588v3.5293Z"/>
    <path d="M440.702,82.9951c0,.9082-.6113,1.2324-1.3984,1.4268l-.7964.1943c-.4819.1201-.7783.1758-.7783.5186,0,.2783.3057.4912.7871.4912,1.0005,0,1.0562-.834,1.6396-.834.3799,0,.5464.2686.5464.5654,0,.667-1.0186,1.2129-2.2412,1.2129-1.019,0-2.084-.5088-2.084-1.6113,0-.9443.917-1.2686,1.6855-1.4453l.5649-.1289c.417-.0928.7227-.167.7227-.4824,0-.2871-.3057-.416-.7783-.416-.8521,0-.8706.6201-1.3984.6201-.3521,0-.5649-.2773-.5649-.5928,0-.6201,1.0371-1.0283,2.0654-1.0283.9355,0,2.0283.4082,2.0283,1.5098Z"/>
    <path d="M431.3109,84.2832c-.4536,0-.5928-.1211-.5928-.584,0-1.1113.8892-2.2139,2.4453-2.2139,1.6021,0,2.5562,1.0566,2.5562,2.6309,0,1.1758-.7129,2.4541-2.6025,2.4541-.8149,0-2.1211-.3799-2.1211-1.1943,0-.25.2314-.5283.5557-.5283.5464,0,.5464.667,1.5654.667.7871,0,1.2505-.5186,1.2505-1.2314h-3.0566ZM434.3676,83.5049c-.1484-.6572-.5557-1.0742-1.2319-1.0742-.6021,0-1.0654.4541-1.1392,1.0742h2.3711Z"/>
    <path d="M419.1317,80.7812c-.0366-.1387-.0737-.2871-.0737-.4346,0-.4639.3794-.6855.7314-.6855.3613,0,.5928.1758.6855.6201l.9077,4.4277h.0186l1.0093-4.3262c.0928-.416.2227-.7217.8613-.7217.5654,0,.7134.1943.7969.5645l1.0371,4.4834h.0186l.8984-4.4277c.0928-.4443.3242-.6201.7134-.6201.3521,0,.7314.2217.7314.6855,0,.1475-.0371.2959-.0737.4346l-1.3062,5.0674c-.1392.5273-.3613.7217-.917.7217-.5742,0-.7871-.2402-.9077-.75l-.9912-4.0664h-.0186l-.9907,4.0664c-.1299.5098-.3335.75-.9077.75-.5557,0-.7778-.1943-.917-.7217l-1.3062-5.0674Z"/>
    <path d="M418.3915,80.3281c0,.3887-.3149.7031-.7041.7031-.3887,0-.7036-.3145-.7036-.7031,0-.3896.3149-.7041.7036-.7041.3892,0,.7041.3145.7041.7041ZM418.3636,85.8945c0,.3613-.1479.6758-.6763.6758-.5278,0-.6758-.3145-.6758-.6758v-3.7324c0-.3613.1479-.6768.6758-.6768.5283,0,.6763.3154.6763.6768v3.7324Z"/>
    <path d="M415.5116,85.3662c0,.7969-.4077,1.2041-1.3892,1.2041-.6484,0-.9819-.2129-.9819-.6016,0-.2871.1758-.4541.4722-.4541h.1948c.2407,0,.3521-.1113.3521-.3145v-2.7051h-.4077c-.3984,0-.6113-.1201-.6113-.4443s.2129-.4443.6113-.4443h.4077v-.8252c0-.4443.2686-.6758.6758-.6758.4077,0,.6763.2314.6763.6758v.8252h.2314c.3799,0,.5371.1475.5371.4443,0,.2959-.1572.4443-.5371.4443h-.2314v2.8711Z"/>
    <path d="M412.4369,85.8945c0,.3613-.1484.6758-.6763.6758s-.6763-.3145-.6763-.6758v-2.2324c0-.6758-.5557-1.0645-1.0278-1.0645-.5835,0-.8521.3887-.8521.9346v2.3623c0,.3613-.1484.6758-.6763.6758s-.6763-.3145-.6763-.6758v-2.6309c0-1.3701.8892-1.7783,1.7046-1.7783.7686,0,1.2407.3613,1.5093.7139h.0186v-1.8623c0-.4443.2686-.6758.6763-.6758s.6763.2314.6763.6758v5.5576Z"/>
    <path d="M403.8051,85.8389c0,.4912-.2778.7314-.7314.7314-.4541,0-.7319-.2402-.7319-.7314v-3.8438h-.0186l-2.6396,4.168c-.1943.3057-.3521.4072-.8335.4072-.6392,0-.8984-.3428-.8984-.9443v-5.2334c0-.4912.2778-.7314.7319-.7314.4536,0,.7314.2402.7314.7314v3.9551h.0186l2.6582-4.2881c.1665-.2783.4448-.3984.7593-.3984.6484,0,.9541.2588.9541.8887v5.2891Z"/>
    <path d="M396.5995,85.8301c0,.3789-.1851.7402-.6758.7402-.4912,0-.6763-.3613-.6763-.7402v-4.1309h-.0186l-1.417,4.4268c-.1021.3154-.3335.4443-.6484.4443s-.5464-.1289-.6484-.4443l-1.417-4.4268h-.0186v4.1309c0,.3789-.1851.7402-.6763.7402-.4907,0-.6763-.3613-.6763-.7402v-5.4189c0-.6113.417-.75.8247-.75h.4258c.4727,0,.6948.1846.8521.6943l1.3062,4.2793h.0186l1.3242-4.2793c.1577-.5098.3799-.6943.8525-.6943h.4443c.4077,0,.8242.1387.8242.75v5.4189Z"/>
    <path d="M388.348,85.5605c0,.6768-.3516.8896-.8892.8896h-2.2319c-1.3154,0-2.4546-.5742-2.4546-1.9727,0-.917.4634-1.417,1.167-1.6025v-.0186c-.6299-.25-.9355-.7871-.9355-1.3525,0-1.4727,1.3247-1.7227,2.436-1.7227h2.019c.5376,0,.8892.2129.8892.8896v4.8896ZM386.8295,83.4863h-1.0933c-.7407,0-1.4448.1016-1.4448.9072,0,.7695.667.8896,1.2598.8896h1.2783v-1.7969ZM386.8295,80.8926h-1.2041c-.5654,0-1.1025.1758-1.1025.8154,0,.5283.3428.8154,1.0562.8154h1.2505v-1.6309Z"/>
    <path d="M378.8275,85.8115c0,.4531-.2959.7588-.7598.7588-.4629,0-.7588-.3057-.7588-.7588v-2.2236h-2.7607v2.2236c0,.4531-.2959.7588-.7588.7588-.4639,0-.7598-.3057-.7598-.7588v-5.3916c0-.4531.2959-.7588.7598-.7588.4629,0,.7588.3057.7588.7588v1.8896h2.7607v-1.8896c0-.4531.2959-.7588.7588-.7588.4639,0,.7598.3057.7598.7588v5.3916Z"/>
    <path d="M371.7416,80.3281c0,.3887-.3145.7031-.7031.7031-.3896,0-.7041-.3145-.7041-.7031,0-.3896.3145-.7041.7041-.7041.3887,0,.7031.3145.7031.7041ZM371.7142,85.8945c0,.3613-.1484.6758-.6758.6758-.5283,0-.6768-.3145-.6768-.6758v-3.7324c0-.3613.1484-.6768.6768-.6768.5273,0,.6758.3154.6758.6768v3.7324Z"/>
    <path d="M368.6302,83.2549c.417,0,.751.167.751.6387,0,.4727-.334.6396-.751.6396h-1.5283c-.416,0-.75-.167-.75-.6396,0-.4717.334-.6387.75-.6387h1.5283Z"/>
    <path d="M363.6478,85.8115c0,.4531-.2969.7588-.7598.7588s-.7588-.3057-.7588-.7588v-4.752h-1.4365c-.4346,0-.7871-.2227-.7871-.6396,0-.416.3525-.6387.7871-.6387h4.3906c.4355,0,.7871.2227.7871.6387,0,.417-.3516.6396-.7871.6396h-1.4355v4.752Z"/>
    <path d="M356.3217,84.2832c-.4541,0-.5928-.1211-.5928-.584,0-1.1113.8887-2.2139,2.4453-2.2139,1.6025,0,2.5566,1.0566,2.5566,2.6309,0,1.1758-.7139,2.4541-2.6035,2.4541-.8145,0-2.1201-.3799-2.1201-1.1943,0-.25.2314-.5283.5557-.5283.5459,0,.5459.667,1.5645.667.7881,0,1.251-.5186,1.251-1.2314h-3.0566ZM359.3783,83.5049c-.1484-.6572-.5557-1.0742-1.2324-1.0742-.6016,0-1.0645.4541-1.1387,1.0742h2.3711Z"/>
    <path d="M354.8588,85.8945c0,.4443-.2686.6758-.6758.6758-.4082,0-.6768-.2314-.6768-.6758v-1.0283l-.4727-.417-1.2773,1.8066c-.1025.1484-.2783.3145-.6113.3145-.3613,0-.6396-.3145-.6396-.6572,0-.2227.0928-.3701.1396-.4355l1.4072-1.8896-1-1.0459c-.1201-.1299-.2041-.2041-.2041-.4453,0-.3428.334-.6113.6396-.6113.2031,0,.3789.1113.5186.2598l1.5,1.667v-3.0752c0-.4443.2686-.6758.6768-.6758.4072,0,.6758.2314.6758.6758v5.5576Z"/>
    <path d="M344.6625,82.3008c.4814-.1113,1.0371-.2598,1.0371-.7227s-.3887-.7871-1.0928-.7871c-1.417,0-1.2871.9912-1.9912.9912-.3701,0-.6943-.2227-.6943-.6025,0-.8887,1.3984-1.5557,2.584-1.5557,1.2871,0,2.6582.5557,2.6582,2.0381,0,.7129-.25,1.4727-1.6309,1.8242l-1.7129.4355c-.5186.1299-.6484.4258-.6484.6943,0,.4443.4355.8799,1.2227.8799,1.5371,0,1.3242-1.2041,2.1484-1.2041.3711,0,.6396.2598.6396.6299,0,.7227-.8613,1.6855-2.7881,1.6855-1.834,0-2.7412-.8984-2.7412-2.1025,0-.7773.3516-1.6025,1.7412-1.917l1.2686-.2871Z"/>
    <path d="M336.5023,84.2832c-.4541,0-.5928-.1211-.5928-.584,0-1.1113.8896-2.2139,2.4453-2.2139,1.6025,0,2.5566,1.0566,2.5566,2.6309,0,1.1758-.7139,2.4541-2.6035,2.4541-.8145,0-2.1201-.3799-2.1201-1.1943,0-.25.2314-.5283.5557-.5283.5459,0,.5459.667,1.5645.667.7881,0,1.251-.5186,1.251-1.2314h-3.0566ZM339.559,83.5049c-.1484-.6572-.5557-1.0742-1.2324-1.0742-.6016,0-1.0645.4541-1.1387,1.0742h2.3711Z"/>
    <path d="M334.9652,85.8945c0,.3613-.1484.6758-.6758.6758-.5283,0-.6768-.3145-.6768-.6758v-1.5742c0-1.1211-.2959-1.501-.8428-1.501h-.2402c-.334,0-.667-.1758-.667-.6758,0-.3799.3145-.6582.7412-.6582.6572,0,.9629.584,1.1201,1.1484h.0186v-.5186c0-.4072.2686-.6299.6113-.6299s.6113.2227.6113.6299v3.7793Z"/>
    <path d="M331.224,80.3281c0,.3887-.3145.7031-.7031.7031-.3896,0-.7041-.3145-.7041-.7031,0-.3896.3145-.7041.7041-.7041.3887,0,.7031.3145.7031.7041ZM331.1967,85.8945c0,.3613-.1484.6758-.6758.6758-.5283,0-.6768-.3145-.6768-.6758v-3.7324c0-.3613.1484-.6768.6768-.6768.5273,0,.6758.3154.6758.6768v3.7324Z"/>
    <path d="M324.4906,84.2832c-.4541,0-.5928-.1211-.5928-.584,0-1.1113.8896-2.2139,2.4453-2.2139,1.6025,0,2.5566,1.0566,2.5566,2.6309,0,1.1758-.7139,2.4541-2.6035,2.4541-.8145,0-2.1201-.3799-2.1201-1.1943,0-.25.2314-.5283.5557-.5283.5459,0,.5459.667,1.5645.667.7881,0,1.251-.5186,1.251-1.2314h-3.0566ZM327.5472,83.5049c-.1484-.6572-.5557-1.0742-1.2324-1.0742-.6016,0-1.0645.4541-1.1387,1.0742h2.3711Z"/>
    <path d="M323.2406,82.9951c0,.9082-.6113,1.2324-1.3984,1.4268l-.7969.1943c-.4814.1201-.7773.1758-.7773.5186,0,.2783.3057.4912.7871.4912,1,0,1.0557-.834,1.6387-.834.3799,0,.5469.2686.5469.5654,0,.667-1.0186,1.2129-2.2412,1.2129-1.0186,0-2.084-.5088-2.084-1.6113,0-.9443.917-1.2686,1.6855-1.4453l.5654-.1289c.416-.0928.7217-.167.7217-.4824,0-.2871-.3057-.416-.7773-.416-.8525,0-.8711.6201-1.3994.6201-.3516,0-.5645-.2773-.5645-.5928,0-.6201,1.0371-1.0283,2.0654-1.0283.9355,0,2.0283.4082,2.0283,1.5098Z"/>
    <path d="M315.0541,79.9853c.3525,0,.6113.166.6113.583s-.2588.584-.5928.584h-2.9912c1.1758,1.0928,2.4082,3.7979,2.4082,4.7139,0,.3984-.1396.7041-.6768.7041-.4346,0-.5645-.1846-.6855-.7314-.9443-4.1768-2.4727-4.4453-2.4727-5.1865,0-.5195.2783-.667.6396-.667h3.7598Z"/>
    <path d="M308.6263,85.2832c-.1201-.3516-.7598-.7314-1.8057-1.3242-.9824-.5557-1.5469-1.0381-1.5469-2.2695,0-.8525.8799-1.8252,2.3613-1.8252,1.3613,0,2.4736.8613,2.4736,1.9922,0,.4629-.2969.6201-.6768.6201-.3701,0-.4902-.1758-.583-.5186-.2041-.7412-.6025-.9824-1.1953-.9824-.5088,0-.9727.334-.9727.9365,0,.75.4453.917,1.7324,1.7314,1.1572.7314,1.7412,1.4639,1.7412,2.1211,0,.3242-.2227.6855-.7598.6855h-3.4727c-.4268,0-.6855-.167-.6855-.584,0-.416.2588-.583.6113-.583h2.7783Z"/>
    <path d="M304.514,82.542c.0283.1572.0469.3057.0469.4902,0,.4355-.3057.6113-.6396.6113-.4629,0-.6855-.4541-1.417-.4541-.6943,0-1.25.3525-1.25,1.1396,0,.6025.4814,1.1855,1.1855,1.1855.9814,0,.9814-.8984,1.5469-.8984.3975,0,.666.2686.666.6396,0,.4814-.5918,1.3145-2.1943,1.3145-1.4824,0-2.5566-.8145-2.5566-2.3057,0-1.4268,1.0371-2.1309,2.1953-2.1309.4727,0,.9541.1396,1.2871.4268l.0186-.0186-.25-1.3896h-2.3613c-.334,0-.5928-.167-.5928-.584s.2588-.583.6104-.583h2.7793c.3057,0,.5371.2686.5928.583l.333,1.9736Z"/>
    <path d="M292.2709,81.708c0-.3711.2412-.7139.667-.7139.1299,0,.2314.0371.3154.084-.0469-.9453-.9824-.7314-.9824-1.1396,0-.1484.1113-.2773.3154-.2773.2871,0,.7041.2686.8428.3984.2871.2959.4727.6113.4727,1.2402,0,.6309-.2686,1.168-.8711,1.168-.417,0-.7598-.3428-.7598-.7598ZM294.3734,81.708c0-.3711.2412-.7139.667-.7139.1299,0,.2314.0371.3154.084-.0469-.9453-.9824-.7314-.9824-1.1396,0-.1484.1113-.2773.3154-.2773.2871,0,.7041.2686.8428.3984.2871.2959.4727.6113.4727,1.2402,0,.6309-.2695,1.168-.8711,1.168-.417,0-.7598-.3428-.7598-.7598Z"/>
    <path d="M288.724,82.3008c.4814-.1113,1.0371-.2598,1.0371-.7227s-.3887-.7871-1.0928-.7871c-1.417,0-1.2871.9912-1.9912.9912-.3701,0-.6943-.2227-.6943-.6025,0-.8887,1.3984-1.5557,2.584-1.5557,1.2871,0,2.6582.5557,2.6582,2.0381,0,.7129-.25,1.4727-1.6309,1.8242l-1.7129.4355c-.5186.1299-.6484.4258-.6484.6943,0,.4443.4355.8799,1.2227.8799,1.5371,0,1.3242-1.2041,2.1484-1.2041.3711,0,.6396.2598.6396.6299,0,.7227-.8613,1.6855-2.7881,1.6855-1.834,0-2.7412-.8984-2.7412-2.1025,0-.7773.3516-1.6025,1.7412-1.917l1.2686-.2871Z"/>
    <path d="M284.7699,87.6914c0,.4443-.2686.6758-.6758.6758-.4082,0-.6768-.2314-.6768-.6758v-1.8066h-.0186c-.25.4355-.7129.6855-1.334.6855-1.4258,0-2.084-1.2129-2.084-2.5098,0-1.751.9912-2.5752,2.1211-2.5752.6582,0,1.2041.2783,1.4268.8525h.0186v-.2129c0-.417.2129-.6396.6113-.6396.417,0,.6113.2227.6113.6396v5.5664ZM281.3334,84.0146c0,.6299.2129,1.5,1.0742,1.5.8252.0098,1.084-.8057,1.084-1.5,0-.7695-.2959-1.4727-1.084-1.4727-.7217.0186-1.0742.6758-1.0742,1.4727Z"/>
    <path d="M274.6185,82.875c0-.9727.8984-1.3896,2.1953-1.3896,1.3887,0,2.1484.6855,2.1484,1.2227,0,.2783-.2314.5186-.5742.5186-.5371,0-.5645-.7402-1.5654-.7402-.4531,0-.8516.166-.8516.5557,0,.3887.2588.4629.583.5l.8242.0928c1.0381.1201,1.8896.4355,1.8896,1.5557,0,.8525-.7598,1.3799-1.5283,1.3799-.7129,0-1.3242-.2031-1.8525-.7871-.0186.417-.2129.7871-.7959.7871-.3242,0-.6113-.2129-.6113-.5186,0-.2129.1387-.3428.1387-.9072v-2.2695ZM275.9711,84.6992c0,.501.4531.9824,1.1943.9824.4629,0,.75-.25.75-.5557,0-.4082-.3057-.584-.8701-.667l-.4912-.0742c-.1572-.0273-.4355-.0742-.583-.2129v.5273Z"/>
    <path d="M273.7113,84.125c0,1.418-.7871,2.4453-2.4541,2.4453-1.3896,0-2.0557-.8145-2.0557-1.4072,0-.2686.2217-.5186.5645-.5186.7129,0,.5098.8701,1.4541.8701.7412,0,1.1396-.5459,1.1396-1.3896,0-1.2227-.6211-1.583-1.1484-1.583-.9727,0-.7412.7959-1.3799.7959-.3428,0-.6299-.1943-.6299-.583,0-.6299.8428-1.2695,1.9727-1.2695,1.6572,0,2.5371,1.084,2.5371,2.6396Z"/>
    <path d="M264.2738,84.2832c-.4541,0-.5928-.1211-.5928-.584,0-1.1113.8896-2.2139,2.4453-2.2139,1.6025,0,2.5566,1.0566,2.5566,2.6309,0,1.1758-.7139,2.4541-2.6035,2.4541-.8145,0-2.1201-.3799-2.1201-1.1943,0-.25.2314-.5283.5557-.5283.5459,0,.5459.667,1.5645.667.7881,0,1.251-.5186,1.251-1.2314h-3.0566ZM267.3304,83.5049c-.1484-.6572-.5557-1.0742-1.2324-1.0742-.6016,0-1.0645.4541-1.1387,1.0742h2.3711Z"/>
    <path d="M259.8099,85.8115c0,.4531-.2959.7588-.7598.7588-.4629,0-.7588-.3057-.7588-.7588v-5.3916c0-.4531.2959-.7588.7588-.7588.4639,0,.7598.3057.7598.7588v5.3916Z"/>
    <path d="M257.0502,85.8945c0,.3613-.1484.6758-.6758.6758-.5283,0-.6768-.3145-.6768-.6758v-2.2324c0-.6758-.5557-1.0645-1.0283-1.0645-.583,0-.8516.3887-.8516.9346v2.3623c0,.3613-.1484.6758-.6768.6758-.5273,0-.6758-.3145-.6758-.6758v-2.6309c0-1.3701.8896-1.7783,1.7041-1.7783.7686,0,1.2598.3525,1.6396.8525h.0186v-.1758c0-.4082.1855-.6768.6113-.6768s.6113.2686.6113.6768v3.7324Z"/>
    <path d="M250.5023,86.0889c-.1289.3613-.2129.4814-.8887.4814s-.7598-.1201-.8896-.4814l-1.2773-3.5566c-.0371-.1113-.084-.2588-.084-.3428,0-.4814.334-.7041.6582-.7041.5088,0,.6387.4268.6758.5654l.9072,3.0566h.0186l.9082-3.0566c.0371-.1387.167-.5654.6758-.5654.3242,0,.6582.2227.6582.7041,0,.084-.0469.2314-.084.3428l-1.2783,3.5566Z"/>
    <path d="M242.2689,82.875c0-.9727.8984-1.3896,2.1953-1.3896,1.3887,0,2.1484.6855,2.1484,1.2227,0,.2783-.2314.5186-.5742.5186-.5371,0-.5645-.7402-1.5654-.7402-.4531,0-.8516.166-.8516.5557,0,.3887.2588.4629.583.5l.8242.0928c1.0381.1201,1.8896.4355,1.8896,1.5557,0,.8525-.7598,1.3799-1.5283,1.3799-.7129,0-1.3242-.2031-1.8525-.7871-.0186.417-.2129.7871-.7959.7871-.3242,0-.6113-.2129-.6113-.5186,0-.2129.1387-.3428.1387-.9072v-2.2695ZM243.6215,84.6992c0,.501.4531.9824,1.1943.9824.4629,0,.75-.25.75-.5557,0-.4082-.3057-.584-.8701-.667l-.4912-.0742c-.1572-.0273-.4355-.0742-.583-.2129v.5273Z"/>
    <path d="M236.5179,80.3369c0-.4443.2686-.6758.6758-.6758.4082,0,.6768.2314.6768.6758v1.834h.0186c.2686-.4355.7314-.6855,1.334-.6855,1.4258,0,2.084,1.2139,2.084,2.5107,0,1.75-.9912,2.5742-2.1211,2.5742-.6582,0-1.2041-.2773-1.4268-.8516h-.0186v.2129c0,.417-.2129.6387-.6113.6387-.417,0-.6113-.2217-.6113-.6387v-5.5947ZM239.9545,84.042c0-.6299-.2129-1.5-1.0742-1.5-.8242-.0098-1.084.8057-1.084,1.5,0,.7686.2959,1.4727,1.084,1.4727.7217-.0186,1.0742-.6758,1.0742-1.4727Z"/>
    <path d="M231.2386,84.2832c-.4541,0-.5928-.1211-.5928-.584,0-1.1113.8896-2.2139,2.4453-2.2139,1.6025,0,2.5566,1.0566,2.5566,2.6309,0,1.1758-.7139,2.4541-2.6035,2.4541-.8145,0-2.1201-.3799-2.1201-1.1943,0-.25.2314-.5283.5557-.5283.5459,0,.5459.667,1.5645.667.7881,0,1.251-.5186,1.251-1.2314h-3.0566ZM234.2953,83.5049c-.1484-.6572-.5557-1.0742-1.2324-1.0742-.6016,0-1.0645.4541-1.1387,1.0742h2.3711Z"/>
    <path d="M229.7015,85.8945c0,.3613-.1484.6758-.6758.6758-.5283,0-.6768-.3145-.6768-.6758v-1.5742c0-1.1211-.2959-1.501-.8428-1.501h-.2402c-.334,0-.667-.1758-.667-.6758,0-.3799.3145-.6582.7412-.6582.6572,0,.9629.584,1.1201,1.1484h.0186v-.5186c0-.4072.2686-.6299.6113-.6299s.6113.2227.6113.6299v3.7793Z"/>
    <path d="M226.2191,82.9951c0,.9082-.6113,1.2324-1.3984,1.4268l-.7969.1943c-.4814.1201-.7773.1758-.7773.5186,0,.2783.3057.4912.7871.4912,1,0,1.0557-.834,1.6387-.834.3799,0,.5469.2686.5469.5654,0,.667-1.0186,1.2129-2.2412,1.2129-1.0186,0-2.084-.5088-2.084-1.6113,0-.9443.917-1.2686,1.6855-1.4453l.5654-.1289c.416-.0928.7217-.167.7217-.4824,0-.2871-.3057-.416-.7773-.416-.8525,0-.8711.6201-1.3994.6201-.3516,0-.5645-.2773-.5645-.5928,0-.6201,1.0371-1.0283,2.0654-1.0283.9355,0,2.0283.4082,2.0283,1.5098Z"/>
    <path d="M218.848,80.4199c0,.3711-.2412.7139-.667.7139-.1299,0-.2314-.0371-.3154-.084.0469.9453.9824.7324.9824,1.1396,0,.1484-.1113.2783-.3154.2783-.2871,0-.7041-.2686-.8428-.3984-.2871-.2969-.4727-.6113-.4727-1.2412s.2686-1.167.8711-1.167c.417,0,.7598.3428.7598.7588ZM220.9506,80.4199c0,.3711-.2412.7139-.667.7139-.1299,0-.2314-.0371-.3154-.084.0469.9453.9824.7324.9824,1.1396,0,.1484-.1113.2783-.3154.2783-.2871,0-.7041-.2686-.8428-.3984-.2871-.2969-.4727-.6113-.4727-1.2412s.2686-1.167.8711-1.167c.417,0,.7598.3428.7598.7588Z"/>
    <path d="M210.8363,82.3008c.4814-.1113,1.0371-.2598,1.0371-.7227s-.3887-.7871-1.0928-.7871c-1.417,0-1.2871.9912-1.9912.9912-.3701,0-.6943-.2227-.6943-.6025,0-.8887,1.3984-1.5557,2.584-1.5557,1.2871,0,2.6582.5557,2.6582,2.0381,0,.7129-.25,1.4727-1.6309,1.8242l-1.7129.4355c-.5186.1299-.6484.4258-.6484.6943,0,.4443.4355.8799,1.2227.8799,1.5371,0,1.3242-1.2041,2.1484-1.2041.3711,0,.6396.2598.6396.6299,0,.7227-.8613,1.6855-2.7881,1.6855-1.834,0-2.7412-.8984-2.7412-2.1025,0-.7773.3516-1.6025,1.7412-1.917l1.2686-.2871Z"/>
    <path d="M206.2152,85.8389c-.1943.6387-.3428.7314-.8799.7314-.5654,0-.7041-.166-.8428-.7041l-.667-2.6582h-.0186l-.667,2.6582c-.1387.5381-.2773.7041-.8428.7041-.5371,0-.6855-.0928-.8799-.7314l-.9912-3.2236c-.0459-.1475-.0928-.2959-.0928-.5,0-.3516.3154-.6299.6582-.6299.5,0,.583.2686.667.6582l.667,2.9639h.0186l.583-2.6953c.1201-.5371.25-.9453.8896-.9268.6299-.0186.7402.3984.8516.9268l.5742,2.6953h.0186l.7129-2.9639c.0928-.3896.167-.6582.667-.6582.3428,0,.6582.2783.6582.6299,0,.2041-.0469.3525-.0928.5l-.9912,3.2236Z"/>
    <path d="M199.6302,80.3281c0,.3887-.3145.7031-.7031.7031-.3896,0-.7041-.3145-.7041-.7031,0-.3896.3145-.7041.7041-.7041.3887,0,.7031.3145.7031.7041ZM199.6029,85.8945c0,.3613-.1484.6758-.6758.6758-.5283,0-.6768-.3145-.6768-.6758v-3.7324c0-.3613.1484-.6768.6768-.6768.5273,0,.6758.3154.6758.6768v3.7324Z"/>
    <path d="M196.7504,85.3662c0,.7969-.4082,1.2041-1.3896,1.2041-.6484,0-.9814-.2129-.9814-.6016,0-.2871.1758-.4541.4717-.4541h.1943c.2412,0,.3525-.1113.3525-.3145v-2.7051h-.4082c-.3975,0-.6104-.1201-.6104-.4443s.2129-.4443.6104-.4443h.4082v-.8252c0-.4443.2686-.6758.6758-.6758s.6768.2314.6768.6758v.8252h.2314c.3789,0,.5371.1475.5371.4443,0,.2959-.1582.4443-.5371.4443h-.2314v2.8711Z"/>
    <path d="M193.934,84.125c0,1.418-.7871,2.4453-2.4541,2.4453-1.3896,0-2.0557-.8145-2.0557-1.4072,0-.2686.2217-.5186.5645-.5186.7129,0,.5098.8701,1.4541.8701.7412,0,1.1396-.5459,1.1396-1.3896,0-1.2227-.6211-1.583-1.1484-1.583-.9727,0-.7412.7959-1.3799.7959-.3428,0-.6299-.1943-.6299-.583,0-.6299.8428-1.2695,1.9727-1.2695,1.6572,0,2.5371,1.084,2.5371,2.6396Z"/>
    <path d="M188.7025,85.8945c0,.3613-.1484.6758-.6758.6758-.5283,0-.6768-.3145-.6768-.6758v-2.2324c0-.6758-.5557-1.0645-1.0283-1.0645-.583,0-.8516.3887-.8516.9346v2.3623c0,.3613-.1484.6758-.6768.6758-.5273,0-.6758-.3145-.6758-.6758v-2.6309c0-1.3701.8896-1.7783,1.7041-1.7783.7686,0,1.2412.3613,1.5098.7139h.0186v-1.8623c0-.4443.2686-.6758.6768-.6758.4072,0,.6758.2314.6758.6758v5.5576Z"/>
    <path d="M178.8383,84.2832c-.4541,0-.5928-.1211-.5928-.584,0-1.1113.8896-2.2139,2.4453-2.2139,1.6025,0,2.5566,1.0566,2.5566,2.6309,0,1.1758-.7139,2.4541-2.6035,2.4541-.8145,0-2.1201-.3799-2.1201-1.1943,0-.25.2314-.5283.5557-.5283.5459,0,.5459.667,1.5645.667.7881,0,1.251-.5186,1.251-1.2314h-3.0566ZM181.8949,83.5049c-.1484-.6572-.5557-1.0742-1.2324-1.0742-.6016,0-1.0645.4541-1.1387,1.0742h2.3711Z"/>
    <path d="M177.5883,82.9951c0,.9082-.6113,1.2324-1.3984,1.4268l-.7969.1943c-.4814.1201-.7773.1758-.7773.5186,0,.2783.3057.4912.7871.4912,1,0,1.0557-.834,1.6387-.834.3799,0,.5469.2686.5469.5654,0,.667-1.0186,1.2129-2.2412,1.2129-1.0186,0-2.084-.5088-2.084-1.6113,0-.9443.917-1.2686,1.6855-1.4453l.5654-.1289c.416-.0928.7217-.167.7217-.4824,0-.2871-.3057-.416-.7773-.416-.8525,0-.8711.6201-1.3994.6201-.3516,0-.5645-.2773-.5645-.5928,0-.6201,1.0371-1.0283,2.0654-1.0283.9355,0,2.0283.4082,2.0283,1.5098Z"/>
    <path d="M511.4867,96.4336c.0557.1484.1479.417.1479.583,0,.4082-.2871.667-.7036.667-.3613,0-.5742-.1201-.6763-.416l-.3984-1.1123h-2.4448l-.3892,1.1123c-.1113.2959-.3521.416-.6855.416-.3892,0-.7129-.2959-.7129-.667,0-.166.0923-.4346.1479-.583l1.834-5.1035c.1665-.4727.4722-.5557.8149-.5557h.3613c.3706,0,.6113.1201.7407.4629l1.9639,5.1963ZM507.7445,95.0996h1.7783l-.8984-2.6768h-.0186l-.8613,2.6768Z"/>
    <path d="M505.0038,97.0078c0,.3613-.1484.6758-.6763.6758s-.6763-.3145-.6763-.6758v-2.2324c0-.6758-.5557-1.0645-1.0278-1.0645-.5835,0-.8521.3887-.8521.9346v2.3623c0,.3613-.1484.6758-.6763.6758s-.6763-.3145-.6763-.6758v-2.6309c0-1.3701.8892-1.7783,1.7046-1.7783.7686,0,1.2593.3525,1.6392.8525h.0186v-.1758c0-.4082.1851-.6768.6113-.6768.4258,0,.6113.2686.6113.6768v3.7324Z"/>
    <path d="M494.7601,91.4502c0-.4443.2686-.6758.6763-.6758s.6763.2314.6763.6758v1.834h.0186c.2686-.4355.7314-.6855,1.3335-.6855,1.4263,0,2.084,1.2139,2.084,2.5107,0,1.75-.9912,2.5742-2.1211,2.5742-.6577,0-1.2041-.2773-1.4263-.8516h-.0186v.2129c0,.417-.2129.6387-.6113.6387-.4165,0-.6113-.2217-.6113-.6387v-5.5947ZM498.1967,95.1553c0-.6299-.2134-1.5-1.0747-1.5-.8242-.0098-1.0835.8057-1.0835,1.5,0,.7686.2964,1.4727,1.0835,1.4727.7227-.0186,1.0747-.6758,1.0747-1.4727Z"/>
    <path d="M490.6854,96.9248c0,.4531-.2964.7588-.7593.7588s-.7598-.3057-.7598-.7588v-1.5098l-.8335-.834-1.7505,2.7041c-.2036.3242-.3706.3984-.6758.3984-.3613,0-.7783-.166-.7783-.7314,0-.1943.1484-.3887.2871-.6016l1.8433-2.8066-1.5562-1.6396c-.1294-.1299-.25-.2871-.25-.5186,0-.3887.3613-.6113.7227-.6113.2686,0,.4258.1484.6021.333l2.3892,2.6309v-2.2041c0-.4541.2969-.7598.7598-.7598s.7593.3057.7593.7598v5.3906Z"/>
    <path d="M484.3417,96.6738c0,.6768-.3516.8896-.8892.8896h-2.2319c-1.3154,0-2.4546-.5742-2.4546-1.9727,0-.917.4634-1.417,1.167-1.6025v-.0186c-.6299-.25-.9355-.7871-.9355-1.3525,0-1.4727,1.3247-1.7227,2.436-1.7227h2.019c.5376,0,.8892.2129.8892.8896v4.8896ZM482.8226,94.5996h-1.0928c-.7407,0-1.4448.1016-1.4448.9072,0,.7695.667.8896,1.2598.8896h1.2778v-1.7969ZM482.8226,92.0059h-1.2036c-.5654,0-1.1025.1768-1.1025.8154,0,.5283.3428.8154,1.0562.8154h1.25v-1.6309Z"/>
    <path d="M477.6547,96.6738c0,.6768-.3516.8896-.8892.8896h-1.8242c-2.0288,0-3.2051-1.2227-3.2051-3.334,0-2.6123,1.519-3.335,3.1772-3.335h1.8521c.5376,0,.8892.2129.8892.8896v4.8896ZM476.1361,92.1172h-1.269c-1.1113,0-1.6118.7969-1.6118,2.1123,0,1.0273.3892,2.1113,1.6025,2.1113h1.2783v-4.2236Z"/>
    <path d="M470.5892,96.9248c0,.4531-.2969.7588-.7598.7588s-.7593-.3057-.7593-.7588v-2.084h-2.2974c-.3979,0-.7129-.1113-.7129-.584s.3149-.583.7129-.583h2.2974v-1.5566h-2.7139c-.4448,0-.769-.1299-.769-.6113s.3242-.6113.769-.6113h3.3433c.5376,0,.8896.2129.8896.8896v5.1406Z"/>
    <path d="M460.975,93.9883c0-.9727.8984-1.3896,2.1953-1.3896,1.3892,0,2.1484.6855,2.1484,1.2227,0,.2783-.2314.5186-.5742.5186-.5371,0-.5649-.7402-1.5649-.7402-.4541,0-.8525.166-.8525.5557,0,.3887.2598.4629.5835.5l.8247.0928c1.0371.1201,1.8892.4355,1.8892,1.5557,0,.8525-.7593,1.3799-1.5283,1.3799-.7129,0-1.3242-.2031-1.8521-.7871-.0186.417-.2134.7871-.7969.7871-.3242,0-.6113-.2129-.6113-.5186,0-.2129.1392-.3428.1392-.9072v-2.2695ZM462.327,95.8125c0,.501.4541.9824,1.1948.9824.4634,0,.7505-.25.7505-.5557,0-.4082-.3057-.584-.8706-.667l-.4912-.0742c-.1572-.0273-.4351-.0742-.5835-.2129v.5273Z"/>
    <path d="M459.809,97.0078c0,.3613-.1484.6758-.6763.6758s-.6763-.3145-.6763-.6758v-2.2324c0-.6758-.5557-1.0645-1.0278-1.0645-.5835,0-.8521.3887-.8521.9346v2.3623c0,.3613-.1484.6758-.6763.6758s-.6763-.3145-.6763-.6758v-2.6309c0-1.3701.8892-1.7783,1.7046-1.7783.7686,0,1.2593.3525,1.6392.8525h.0186v-.1758c0-.4082.1851-.6768.6113-.6768.4258,0,.6113.2686.6113.6768v3.7324Z"/>
    <path d="M454.3632,94.1084c0,.9082-.6113,1.2324-1.3984,1.4268l-.7964.1943c-.4819.1201-.7783.1758-.7783.5186,0,.2783.3057.4912.7871.4912,1.0005,0,1.0562-.834,1.6396-.834.3799,0,.5464.2686.5464.5654,0,.667-1.0186,1.2129-2.2412,1.2129-1.019,0-2.084-.5088-2.084-1.6113,0-.9443.917-1.2686,1.6855-1.4453l.5649-.1289c.417-.0928.7227-.167.7227-.4824,0-.2871-.3057-.416-.7783-.416-.8521,0-.8706.6201-1.3984.6201-.3521,0-.5649-.2773-.5649-.5928,0-.6201,1.0371-1.0283,2.0654-1.0283.9355,0,2.0283.4082,2.0283,1.5098Z"/>
    <path d="M446.1757,96.9248c0,.4531-.2964.7588-.7593.7588s-.7598-.3057-.7598-.7588v-1.5098l-.8335-.834-1.7505,2.7041c-.2036.3242-.3706.3984-.6758.3984-.3613,0-.7783-.166-.7783-.7314,0-.1943.1484-.3887.2871-.6016l1.8433-2.8066-1.5562-1.6396c-.1294-.1299-.25-.2871-.25-.5186,0-.3887.3613-.6113.7227-.6113.2686,0,.4258.1484.6021.333l2.3892,2.6309v-2.2041c0-.4541.2969-.7598.7598-.7598s.7593.3057.7593.7598v5.3906Z"/>
    <path d="M439.8319,96.6738c0,.6768-.3516.8896-.8892.8896h-2.2319c-1.3154,0-2.4546-.5742-2.4546-1.9727,0-.917.4634-1.417,1.167-1.6025v-.0186c-.6299-.25-.9355-.7871-.9355-1.3525,0-1.4727,1.3247-1.7227,2.436-1.7227h2.019c.5376,0,.8892.2129.8892.8896v4.8896ZM438.3129,94.5996h-1.0928c-.7407,0-1.4448.1016-1.4448.9072,0,.7695.667.8896,1.2598.8896h1.2778v-1.7969ZM438.3129,92.0059h-1.2036c-.5654,0-1.1025.1768-1.1025.8154,0,.5283.3428.8154,1.0562.8154h1.25v-1.6309Z"/>
    <path d="M433.1454,96.6738c0,.6768-.3516.8896-.8892.8896h-1.8242c-2.0288,0-3.2051-1.2227-3.2051-3.334,0-2.6123,1.519-3.335,3.1772-3.335h1.8521c.5376,0,.8892.2129.8892.8896v4.8896ZM431.6263,92.1172h-1.2686c-1.1113,0-1.6118.7969-1.6118,2.1123,0,1.0273.3892,2.1113,1.6025,2.1113h1.2778v-4.2236Z"/>
    <path d="M426.4589,95.6094c0,1.5654-1.3335,2.0742-2.4727,2.0742s-2.4731-.5088-2.4731-2.0742c0-.7129.3521-1.2881,1.0464-1.5098-.5278-.25-.8613-.7783-.8613-1.3613,0-1.0195.8613-1.7598,2.2881-1.7598s2.2876.7402,2.2876,1.7598c0,.583-.3335,1.1113-.8613,1.3613.6943.2217,1.0464.7969,1.0464,1.5098ZM425.1068,95.6182c0-.3984-.2778-1.0459-1.1206-1.0459-.8433,0-1.1211.6475-1.1211,1.0459,0,.6396.4634,1.0098,1.1211,1.0098.6572,0,1.1206-.3701,1.1206-1.0098ZM424.9769,92.8301c0-.5459-.4351-.8516-.9907-.8516-.5562,0-.9912.3057-.9912.8516,0,.584.4351.8525.9912.8525.5557,0,.9907-.2686.9907-.8525Z"/>
    <path d="M420.8466,96.4521c.1758.2588.2036.4258.2036.583,0,.3711-.2871.6484-.7314.6484-.2314,0-.4634-.083-.5928-.2959l-1.3154-2.1025-1.2227,2.0469c-.1758.2959-.3887.3516-.6387.3516-.4263,0-.7783-.2588-.7783-.75,0-.1758.0928-.2959.25-.5371l1.5098-2.2695-1.5469-2.2598c-.0737-.1016-.1387-.2773-.1387-.4072,0-.4814.3613-.6855.7314-.6855.3335,0,.4634.1201.6206.3701l1.1763,1.8994,1.1025-1.8994c.0923-.1572.2686-.3701.6299-.3701.4351,0,.7593.3145.7593.7129,0,.1758-.0649.3242-.1577.4629l-1.4541,2.1768,1.5933,2.3252Z"/>
    <path d="M412.1591,96.9434c0,.3789-.1851.7402-.6758.7402-.4912,0-.6763-.3613-.6763-.7402v-4.1309h-.0186l-1.417,4.4268c-.1021.3154-.3335.4443-.6484.4443s-.5464-.1289-.6484-.4443l-1.417-4.4268h-.0186v4.1309c0,.3789-.1851.7402-.6763.7402-.4907,0-.6763-.3613-.6763-.7402v-5.4189c0-.6113.417-.75.8247-.75h.4258c.4727,0,.6948.1855.8521.6943l1.3062,4.2793h.0186l1.3242-4.2793c.1577-.5088.3799-.6943.8525-.6943h.4443c.4077,0,.8242.1387.8242.75v5.4189Z"/>
    <path d="M403.9071,96.9248c0,.4531-.2964.7588-.7593.7588s-.7598-.3057-.7598-.7588v-1.5098l-.8335-.834-1.7505,2.7041c-.2036.3242-.3706.3984-.6758.3984-.3613,0-.7783-.166-.7783-.7314,0-.1943.1484-.3887.2871-.6016l1.8433-2.8066-1.5562-1.6396c-.1294-.1299-.25-.2871-.25-.5186,0-.3887.3613-.6113.7227-.6113.2686,0,.4258.1484.6021.333l2.3892,2.6309v-2.2041c0-.4541.2969-.7598.7598-.7598s.7593.3057.7593.7598v5.3906Z"/>
    <path d="M397.5634,96.9248c0,.4531-.2964.7588-.7593.7588s-.7598-.3057-.7598-.7588v-5.3906c0-.4541.2969-.7598.7598-.7598s.7593.3057.7593.7598v5.3906Z"/>
    <path d="M394.6366,96.9248c0,.4531-.2964.7588-.7593.7588s-.7598-.3057-.7598-.7588v-5.3906c0-.4541.2969-.7598.7598-.7598s.7593.3057.7593.7598v5.3906Z"/>
    <path d="M387.2465,96.9248c0,.4531-.2964.7588-.7598.7588-.4629,0-.7593-.3057-.7593-.7588v-4.752h-1.4355c-.4355,0-.7876-.2227-.7876-.6387,0-.417.3521-.6396.7876-.6396h4.3901c.4355,0,.7871.2227.7871.6396,0,.416-.3516.6387-.7871.6387h-1.4355v4.752Z"/>
    <path d="M382.6898,96.9248c0,.4531-.2964.7588-.7593.7588-.4634,0-.7593-.3057-.7593-.7588v-1.5098l-.834-.834-1.75,2.7041c-.2041.3242-.3711.3984-.6768.3984-.3613,0-.7773-.166-.7773-.7314,0-.1943.1475-.3887.2871-.6016l1.8428-2.8066-1.5557-1.6396c-.1299-.1299-.25-.2871-.25-.5186,0-.3887.3604-.6113.7217-.6113.2686,0,.4268.1484.6025.333l2.3896,2.6309v-2.2041c0-.4541.2959-.7598.7593-.7598.4629,0,.7593.3057.7593.7598v5.3906Z"/>
    <path d="M376.3461,96.6738c0,.6768-.3516.8896-.8887.8896h-3.168c-.4355,0-.7871-.2227-.7871-.6387,0-.417.3516-.6396.7871-.6396h2.5381v-4.751c0-.4541.2959-.7598.7588-.7598.4639,0,.7598.3057.7598.7598v5.1396Z"/>
  </g>
</svg>