<?xml version="1.0" standalone="no"?>
 <!DOCTYPE svg PUBLIC "-//W3C//DTD SVG 1.1//EN" 
 "http://www.w3.org/Graphics/SVG/1.1/DTD/svg11.dtd"> 
<svg
  xmlns:svg="http://www.w3.org/2000/svg"
  xmlns="http://www.w3.org/2000/svg"
  xmlns:xlink="http://www.w3.org/1999/xlink"
  version="1.1"
  width="594.0044mm" height="419.9890mm" viewBox="0.0000 0.0000 594.0044 419.9890">
<title>SVG Image created as kbd8x_mkii_kicad_9-User_Comments.svg date 2025/06/09 23:00:17 </title>
  <desc>Image generated by PCBNEW </desc>
<g style="fill:#000000; fill-opacity:1.0000;stroke:#000000; stroke-opacity:1.0000;
stroke-linecap:round; stroke-linejoin:round;"
 transform="translate(0 0) scale(1 1)">
</g>
<g style="fill:none; 
stroke:#000000; stroke-width:0.2000; stroke-opacity:1; 
stroke-linecap:round; stroke-linejoin:round;">
<circle cx="330.2488" cy="301.3893" r="9.5250" /> 
<circle cx="196.8988" cy="263.2893" r="1.1430" /> 
<circle cx="339.7738" cy="301.3893" r="1.1430" /> 
<circle cx="187.3738" cy="282.3393" r="1.1430" /> 
<circle cx="330.2488" cy="282.3393" r="9.5250" /> 
<circle cx="182.6113" cy="201.3768" r="1.1430" /> 
<circle cx="339.7738" cy="282.3393" r="1.1430" /> 
<circle cx="370.7300" cy="263.2893" r="9.5250" /> 
<circle cx="373.1113" cy="253.7643" r="9.5250" /> 
<circle cx="249.2863" cy="201.3768" r="1.1430" /> 
<circle cx="220.7113" cy="225.1893" r="1.1430" /> 
<circle cx="249.2863" cy="225.1893" r="9.5250" /> 
<circle cx="144.5113" cy="244.2393" r="9.5250" /> 
<circle cx="258.8113" cy="225.1893" r="1.1430" /> 
<circle cx="387.3988" cy="301.3893" r="1.1430" /> 
<circle cx="435.0238" cy="225.1893" r="1.1430" /> 
<circle cx="187.3738" cy="263.2893" r="9.5250" /> 
<circle cx="339.7738" cy="263.2893" r="9.5250" /> 
<circle cx="296.9113" cy="201.3768" r="9.5250" /> 
<circle cx="425.4988" cy="225.1893" r="9.5250" /> 
<path d="M106.4113 310.9143
L106.4113 191.8518
" />
<circle cx="292.1488" cy="282.3393" r="9.5250" /> 
<circle cx="277.8613" cy="244.2393" r="9.5250" /> 
<circle cx="287.3863" cy="225.1893" r="9.5250" /> 
<circle cx="127.8425" cy="282.3393" r="9.5250" /> 
<circle cx="277.8613" cy="225.1893" r="1.1430" /> 
<circle cx="373.1113" cy="225.1893" r="9.5250" /> 
<circle cx="201.6613" cy="225.1893" r="1.1430" /> 
<circle cx="258.8113" cy="201.3768" r="9.5250" /> 
<circle cx="354.0613" cy="244.2393" r="9.5250" /> 
<circle cx="287.3863" cy="244.2393" r="1.1430" /> 
<circle cx="365.9675" cy="282.3393" r="9.5250" /> 
<circle cx="344.5363" cy="244.2393" r="1.1430" /> 
<circle cx="406.4488" cy="253.7643" r="1.1430" /> 
<circle cx="123.0800" cy="263.2893" r="9.5250" /> 
<circle cx="363.5863" cy="215.6643" r="1.1430" /> 
<circle cx="425.4988" cy="201.3768" r="9.5250" /> 
<circle cx="325.4863" cy="225.1893" r="9.5250" /> 
<circle cx="137.3675" cy="282.3393" r="1.1430" /> 
<circle cx="415.9738" cy="225.1893" r="1.1430" /> 
<circle cx="406.4488" cy="301.3893" r="9.5250" /> 
<circle cx="249.2863" cy="301.3893" r="9.5250" /> 
<circle cx="415.9738" cy="201.3768" r="1.1430" /> 
<circle cx="196.8988" cy="282.3393" r="9.5250" /> 
<path d="M106.4113 191.8518
L454.0738 191.8518
" />
<circle cx="268.3363" cy="244.2393" r="1.1430" /> 
<circle cx="387.3988" cy="244.2393" r="1.1430" /> 
<circle cx="425.4988" cy="301.3893" r="9.5250" /> 
<circle cx="230.2363" cy="244.2393" r="1.1430" /> 
<circle cx="244.5238" cy="282.3393" r="1.1430" /> 
<circle cx="201.6613" cy="244.2393" r="9.5250" /> 
<circle cx="320.7238" cy="263.2893" r="9.5250" /> 
<circle cx="335.0113" cy="225.1893" r="1.1430" /> 
<circle cx="406.4488" cy="244.2393" r="9.5250" /> 
<circle cx="215.9488" cy="282.3393" r="9.5250" /> 
<circle cx="444.5488" cy="301.3893" r="9.5250" /> 
<circle cx="173.0863" cy="201.3768" r="9.5250" /> 
<circle cx="130.2238" cy="301.3893" r="1.1430" /> 
<circle cx="215.9488" cy="263.2893" r="1.1430" /> 
<circle cx="273.0988" cy="282.3393" r="9.5250" /> 
<circle cx="182.6113" cy="225.1893" r="1.1430" /> 
<circle cx="354.0613" cy="225.1893" r="1.1430" /> 
<circle cx="158.7988" cy="282.3393" r="9.5250" /> 
<circle cx="168.3238" cy="263.2893" r="9.5250" /> 
<circle cx="182.6113" cy="244.2393" r="9.5250" /> 
<circle cx="211.1863" cy="201.3768" r="9.5250" /> 
<circle cx="335.0113" cy="244.2393" r="9.5250" /> 
<circle cx="192.1363" cy="225.1893" r="9.5250" /> 
<circle cx="125.4613" cy="225.1893" r="1.1430" /> 
<circle cx="277.8613" cy="201.3768" r="9.5250" /> 
<circle cx="154.0363" cy="244.2393" r="1.1430" /> 
<circle cx="396.9238" cy="244.2393" r="1.1430" /> 
<circle cx="330.2488" cy="263.2893" r="1.1430" /> 
<circle cx="268.3363" cy="201.3768" r="1.1430" /> 
<circle cx="377.8738" cy="301.3893" r="9.5250" /> 
<path d="M454.0738 310.9143
L106.4113 310.9143
" />
<circle cx="306.4363" cy="225.1893" r="9.5250" /> 
<circle cx="311.1988" cy="263.2893" r="1.1430" /> 
<circle cx="201.6613" cy="201.3768" r="1.1430" /> 
<circle cx="375.4925" cy="282.3393" r="1.1430" /> 
<circle cx="225.4738" cy="282.3393" r="1.1430" /> 
<circle cx="144.5113" cy="201.3768" r="1.1430" /> 
<circle cx="239.7613" cy="244.2393" r="9.5250" /> 
<circle cx="344.5363" cy="201.3768" r="9.5250" /> 
<path d="M390.0424 189.4078
L399.0424 189.4078
" />
<circle cx="361.2050" cy="263.2893" r="1.1430" /> 
<circle cx="382.6363" cy="201.3768" r="9.5250" /> 
<circle cx="425.4988" cy="244.2393" r="9.5250" /> 
<circle cx="296.9113" cy="244.2393" r="9.5250" /> 
<circle cx="206.4238" cy="263.2893" r="9.5250" /> 
<path d="M399.0424 189.4078
L399.0424 196.9078
" />
<circle cx="354.0613" cy="201.3768" r="1.1430" /> 
<circle cx="120.6988" cy="301.3893" r="9.5250" /> 
<circle cx="163.5613" cy="225.1893" r="1.1430" /> 
<circle cx="244.5238" cy="263.2893" r="9.5250" /> 
<circle cx="192.1363" cy="201.3768" r="9.5250" /> 
<circle cx="177.8488" cy="282.3393" r="9.5250" /> 
<circle cx="239.7613" cy="225.1893" r="1.1430" /> 
<circle cx="301.6738" cy="282.3393" r="1.1430" /> 
<circle cx="144.5113" cy="225.1893" r="1.1430" /> 
<circle cx="406.4488" cy="215.6643" r="1.1430" /> 
<circle cx="177.8488" cy="301.3893" r="1.1430" /> 
<circle cx="306.4363" cy="244.2393" r="1.1430" /> 
<circle cx="335.0113" cy="201.3768" r="1.1430" /> 
<circle cx="263.5738" cy="263.2893" r="9.5250" /> 
<circle cx="120.6988" cy="244.2393" r="9.5250" /> 
<circle cx="211.1863" cy="225.1893" r="9.5250" /> 
<circle cx="163.5613" cy="244.2393" r="9.5250" /> 
<circle cx="406.4488" cy="225.1893" r="9.5250" /> 
<circle cx="344.5363" cy="225.1893" r="9.5250" /> 
<circle cx="115.9363" cy="225.1893" r="9.5250" /> 
<circle cx="287.3863" cy="201.3768" r="1.1430" /> 
<circle cx="258.8113" cy="301.3893" r="1.1430" /> 
<circle cx="406.4488" cy="210.9018" r="1.1430" /> 
<circle cx="192.1363" cy="244.2393" r="1.1430" /> 
<circle cx="363.5863" cy="244.2393" r="1.1430" /> 
<circle cx="263.5738" cy="282.3393" r="1.1430" /> 
<circle cx="349.2988" cy="263.2893" r="1.1430" /> 
<path d="M394.5424 189.4078
L394.5424 196.9078
" />
<circle cx="382.6363" cy="215.6643" r="1.1430" /> 
<circle cx="280.2425" cy="251.3830" r="2.5000" /> 
<circle cx="444.5488" cy="201.3768" r="9.5250" /> 
<path d="M390.0424 196.9078
L390.0424 189.4078
" />
<circle cx="435.0238" cy="244.2393" r="1.1430" /> 
<circle cx="230.2363" cy="201.3768" r="1.1430" /> 
<path d="M454.0738 191.8518
L454.0738 310.9143
" />
<circle cx="282.6238" cy="282.3393" r="1.1430" /> 
<circle cx="315.9613" cy="225.1893" r="1.1430" /> 
<circle cx="363.5863" cy="301.3893" r="1.1430" /> 
<circle cx="234.9988" cy="263.2893" r="1.1430" /> 
<circle cx="234.9988" cy="282.3393" r="9.5250" /> 
<circle cx="363.5863" cy="201.3768" r="9.5250" /> 
<circle cx="173.0863" cy="225.1893" r="9.5250" /> 
<circle cx="211.1863" cy="244.2393" r="1.1430" /> 
<circle cx="444.5488" cy="244.2393" r="9.5250" /> 
<circle cx="132.6050" cy="263.2893" r="1.1430" /> 
<circle cx="225.4738" cy="263.2893" r="9.5250" /> 
<circle cx="254.0488" cy="263.2893" r="1.1430" /> 
<circle cx="396.9238" cy="225.1893" r="1.1430" /> 
<path d="M399.0424 193.1578
L390.0424 193.1578
" />
<circle cx="220.7113" cy="244.2393" r="9.5250" /> 
<circle cx="296.9113" cy="225.1893" r="1.1430" /> 
<circle cx="435.0238" cy="301.3893" r="1.1430" /> 
<circle cx="239.7613" cy="201.3768" r="9.5250" /> 
<circle cx="249.2863" cy="244.2393" r="1.1430" /> 
<circle cx="444.5488" cy="225.1893" r="9.5250" /> 
<circle cx="168.3238" cy="282.3393" r="1.1430" /> 
<circle cx="130.2238" cy="244.2393" r="1.1430" /> 
<circle cx="292.1488" cy="263.2893" r="1.1430" /> 
<circle cx="154.0363" cy="201.3768" r="9.5250" /> 
<circle cx="301.6738" cy="263.2893" r="9.5250" /> 
<circle cx="415.9738" cy="244.2393" r="1.1430" /> 
<circle cx="315.9613" cy="244.2393" r="9.5250" /> 
<circle cx="282.6238" cy="263.2893" r="9.5250" /> 
<circle cx="158.7988" cy="263.2893" r="1.1430" /> 
<circle cx="177.8488" cy="263.2893" r="1.1430" /> 
<circle cx="382.6363" cy="225.1893" r="9.5250" /> 
<circle cx="144.5113" cy="301.3893" r="9.5250" /> 
<circle cx="320.7238" cy="282.3393" r="1.1430" /> 
<circle cx="125.4613" cy="201.3768" r="1.1430" /> 
<circle cx="315.9613" cy="201.3768" r="1.1430" /> 
<circle cx="268.3363" cy="225.1893" r="9.5250" /> 
<circle cx="230.2363" cy="225.1893" r="9.5250" /> 
<circle cx="396.9238" cy="301.3893" r="1.1430" /> 
<circle cx="311.1988" cy="282.3393" r="9.5250" /> 
<circle cx="406.4488" cy="201.3768" r="9.5250" /> 
<circle cx="273.0988" cy="263.2893" r="1.1430" /> 
<circle cx="425.4988" cy="282.3393" r="9.5250" /> 
<circle cx="435.0238" cy="201.3768" r="1.1430" /> 
<circle cx="168.3238" cy="301.3893" r="9.5250" /> 
<circle cx="163.5613" cy="201.3768" r="1.1430" /> 
<circle cx="258.8113" cy="244.2393" r="9.5250" /> 
<circle cx="149.2738" cy="263.2893" r="9.5250" /> 
<circle cx="154.0363" cy="225.1893" r="9.5250" /> 
<circle cx="115.9363" cy="201.3768" r="9.5250" /> 
<circle cx="206.4238" cy="282.3393" r="1.1430" /> 
<circle cx="134.9863" cy="225.1893" r="9.5250" /> 
<circle cx="415.9738" cy="282.3393" r="1.1430" /> 
<circle cx="415.9738" cy="301.3893" r="1.1430" /> 
<path d="M399.0424 196.9078
L390.0424 196.9078
" />
<circle cx="373.1113" cy="201.3768" r="1.1430" /> 
<circle cx="154.0363" cy="301.3893" r="1.1430" /> 
<circle cx="325.4863" cy="244.2393" r="1.1430" /> 
<circle cx="363.5863" cy="225.1893" r="9.5250" /> 
<circle cx="377.8738" cy="244.2393" r="9.5250" /> 
<circle cx="173.0863" cy="244.2393" r="1.1430" /> 
<circle cx="325.4863" cy="201.3768" r="9.5250" /> 
<circle cx="354.0613" cy="301.3893" r="9.5250" /> 
<circle cx="254.0488" cy="282.3393" r="9.5250" /> 
</g>
<g style="fill:none; 
stroke:#000000; stroke-width:0.0300; stroke-opacity:1; 
stroke-linecap:round; stroke-linejoin:round;">
<g transform="rotate(-90.000000 428.6980 265.7110)">
<text x="428.6980" y="265.8110"
textLength="2.5738" font-size="0.2667" lengthAdjust="spacingAndGlyphs"
text-anchor="middle" opacity="0" stroke-opacity="0">KEEP-OUT ZONE</text>
</g>
<g class="stroked-text"><desc>KEEP-OUT ZONE</desc>
<path d="M428.7890 266.9253
L428.5890 266.9253
" />
<path d="M428.7890 266.8110
L428.6747 266.8967
" />
<path d="M428.5890 266.8110
L428.7032 266.9253
" />
<path d="M428.6842 266.7253
L428.6842 266.6586
" />
<path d="M428.7890 266.6300
L428.7890 266.7253
" />
<path d="M428.7890 266.7253
L428.5890 266.7253
" />
<path d="M428.5890 266.7253
L428.5890 266.6300
" />
<path d="M428.6842 266.5443
L428.6842 266.4777
" />
<path d="M428.7890 266.4491
L428.7890 266.5443
" />
<path d="M428.7890 266.5443
L428.5890 266.5443
" />
<path d="M428.5890 266.5443
L428.5890 266.4491
" />
<path d="M428.7890 266.3634
L428.5890 266.3634
" />
<path d="M428.5890 266.3634
L428.5890 266.2872
" />
<path d="M428.5890 266.2872
L428.5985 266.2681
" />
<path d="M428.5985 266.2681
L428.6080 266.2586
" />
<path d="M428.6080 266.2586
L428.6271 266.2491
" />
<path d="M428.6271 266.2491
L428.6556 266.2491
" />
<path d="M428.6556 266.2491
L428.6747 266.2586
" />
<path d="M428.6747 266.2586
L428.6842 266.2681
" />
<path d="M428.6842 266.2681
L428.6937 266.2872
" />
<path d="M428.6937 266.2872
L428.6937 266.3634
" />
<path d="M428.7128 266.1634
L428.7128 266.0110
" />
<path d="M428.5890 265.8777
L428.5890 265.8396
" />
<path d="M428.5890 265.8396
L428.5985 265.8205
" />
<path d="M428.5985 265.8205
L428.6175 265.8015
" />
<path d="M428.6175 265.8015
L428.6556 265.7920
" />
<path d="M428.6556 265.7920
L428.7223 265.7920
" />
<path d="M428.7223 265.7920
L428.7604 265.8015
" />
<path d="M428.7604 265.8015
L428.7794 265.8205
" />
<path d="M428.7794 265.8205
L428.7890 265.8396
" />
<path d="M428.7890 265.8396
L428.7890 265.8777
" />
<path d="M428.7890 265.8777
L428.7794 265.8967
" />
<path d="M428.7794 265.8967
L428.7604 265.9158
" />
<path d="M428.7604 265.9158
L428.7223 265.9253
" />
<path d="M428.7223 265.9253
L428.6556 265.9253
" />
<path d="M428.6556 265.9253
L428.6175 265.9158
" />
<path d="M428.6175 265.9158
L428.5985 265.8967
" />
<path d="M428.5985 265.8967
L428.5890 265.8777
" />
<path d="M428.5890 265.7062
L428.7509 265.7062
" />
<path d="M428.7509 265.7062
L428.7699 265.6967
" />
<path d="M428.7699 265.6967
L428.7794 265.6872
" />
<path d="M428.7794 265.6872
L428.7890 265.6681
" />
<path d="M428.7890 265.6681
L428.7890 265.6300
" />
<path d="M428.7890 265.6300
L428.7794 265.6110
" />
<path d="M428.7794 265.6110
L428.7699 265.6015
" />
<path d="M428.7699 265.6015
L428.7509 265.5920
" />
<path d="M428.7509 265.5920
L428.5890 265.5920
" />
<path d="M428.5890 265.5253
L428.5890 265.4110
" />
<path d="M428.7890 265.4681
L428.5890 265.4681
" />
<path d="M428.5890 265.2110
L428.5890 265.0777
" />
<path d="M428.5890 265.0777
L428.7890 265.2110
" />
<path d="M428.7890 265.2110
L428.7890 265.0777
" />
<path d="M428.5890 264.9634
L428.5890 264.9253
" />
<path d="M428.5890 264.9253
L428.5985 264.9062
" />
<path d="M428.5985 264.9062
L428.6175 264.8872
" />
<path d="M428.6175 264.8872
L428.6556 264.8777
" />
<path d="M428.6556 264.8777
L428.7223 264.8777
" />
<path d="M428.7223 264.8777
L428.7604 264.8872
" />
<path d="M428.7604 264.8872
L428.7794 264.9062
" />
<path d="M428.7794 264.9062
L428.7890 264.9253
" />
<path d="M428.7890 264.9253
L428.7890 264.9634
" />
<path d="M428.7890 264.9634
L428.7794 264.9824
" />
<path d="M428.7794 264.9824
L428.7604 265.0015
" />
<path d="M428.7604 265.0015
L428.7223 265.0110
" />
<path d="M428.7223 265.0110
L428.6556 265.0110
" />
<path d="M428.6556 265.0110
L428.6175 265.0015
" />
<path d="M428.6175 265.0015
L428.5985 264.9824
" />
<path d="M428.5985 264.9824
L428.5890 264.9634
" />
<path d="M428.7890 264.7920
L428.5890 264.7920
" />
<path d="M428.5890 264.7920
L428.7890 264.6777
" />
<path d="M428.7890 264.6777
L428.5890 264.6777
" />
<path d="M428.6842 264.5824
L428.6842 264.5158
" />
<path d="M428.7890 264.4872
L428.7890 264.5824
" />
<path d="M428.7890 264.5824
L428.5890 264.5824
" />
<path d="M428.5890 264.5824
L428.5890 264.4872
" />
</g><g transform="rotate(-90.000000 428.6980 270.7110)">
<text x="428.6980" y="270.8110"
textLength="2.5738" font-size="0.2667" lengthAdjust="spacingAndGlyphs"
text-anchor="middle" opacity="0" stroke-opacity="0">KEEP-OUT ZONE</text>
</g>
<g class="stroked-text"><desc>KEEP-OUT ZONE</desc>
<path d="M428.7890 271.9253
L428.5890 271.9253
" />
<path d="M428.7890 271.8110
L428.6747 271.8967
" />
<path d="M428.5890 271.8110
L428.7032 271.9253
" />
<path d="M428.6842 271.7253
L428.6842 271.6586
" />
<path d="M428.7890 271.6300
L428.7890 271.7253
" />
<path d="M428.7890 271.7253
L428.5890 271.7253
" />
<path d="M428.5890 271.7253
L428.5890 271.6300
" />
<path d="M428.6842 271.5443
L428.6842 271.4777
" />
<path d="M428.7890 271.4491
L428.7890 271.5443
" />
<path d="M428.7890 271.5443
L428.5890 271.5443
" />
<path d="M428.5890 271.5443
L428.5890 271.4491
" />
<path d="M428.7890 271.3634
L428.5890 271.3634
" />
<path d="M428.5890 271.3634
L428.5890 271.2872
" />
<path d="M428.5890 271.2872
L428.5985 271.2681
" />
<path d="M428.5985 271.2681
L428.6080 271.2586
" />
<path d="M428.6080 271.2586
L428.6271 271.2491
" />
<path d="M428.6271 271.2491
L428.6556 271.2491
" />
<path d="M428.6556 271.2491
L428.6747 271.2586
" />
<path d="M428.6747 271.2586
L428.6842 271.2681
" />
<path d="M428.6842 271.2681
L428.6937 271.2872
" />
<path d="M428.6937 271.2872
L428.6937 271.3634
" />
<path d="M428.7128 271.1634
L428.7128 271.0110
" />
<path d="M428.5890 270.8777
L428.5890 270.8396
" />
<path d="M428.5890 270.8396
L428.5985 270.8205
" />
<path d="M428.5985 270.8205
L428.6175 270.8015
" />
<path d="M428.6175 270.8015
L428.6556 270.7920
" />
<path d="M428.6556 270.7920
L428.7223 270.7920
" />
<path d="M428.7223 270.7920
L428.7604 270.8015
" />
<path d="M428.7604 270.8015
L428.7794 270.8205
" />
<path d="M428.7794 270.8205
L428.7890 270.8396
" />
<path d="M428.7890 270.8396
L428.7890 270.8777
" />
<path d="M428.7890 270.8777
L428.7794 270.8967
" />
<path d="M428.7794 270.8967
L428.7604 270.9158
" />
<path d="M428.7604 270.9158
L428.7223 270.9253
" />
<path d="M428.7223 270.9253
L428.6556 270.9253
" />
<path d="M428.6556 270.9253
L428.6175 270.9158
" />
<path d="M428.6175 270.9158
L428.5985 270.8967
" />
<path d="M428.5985 270.8967
L428.5890 270.8777
" />
<path d="M428.5890 270.7062
L428.7509 270.7062
" />
<path d="M428.7509 270.7062
L428.7699 270.6967
" />
<path d="M428.7699 270.6967
L428.7794 270.6872
" />
<path d="M428.7794 270.6872
L428.7890 270.6681
" />
<path d="M428.7890 270.6681
L428.7890 270.6300
" />
<path d="M428.7890 270.6300
L428.7794 270.6110
" />
<path d="M428.7794 270.6110
L428.7699 270.6015
" />
<path d="M428.7699 270.6015
L428.7509 270.5920
" />
<path d="M428.7509 270.5920
L428.5890 270.5920
" />
<path d="M428.5890 270.5253
L428.5890 270.4110
" />
<path d="M428.7890 270.4681
L428.5890 270.4681
" />
<path d="M428.5890 270.2110
L428.5890 270.0777
" />
<path d="M428.5890 270.0777
L428.7890 270.2110
" />
<path d="M428.7890 270.2110
L428.7890 270.0777
" />
<path d="M428.5890 269.9634
L428.5890 269.9253
" />
<path d="M428.5890 269.9253
L428.5985 269.9062
" />
<path d="M428.5985 269.9062
L428.6175 269.8872
" />
<path d="M428.6175 269.8872
L428.6556 269.8777
" />
<path d="M428.6556 269.8777
L428.7223 269.8777
" />
<path d="M428.7223 269.8777
L428.7604 269.8872
" />
<path d="M428.7604 269.8872
L428.7794 269.9062
" />
<path d="M428.7794 269.9062
L428.7890 269.9253
" />
<path d="M428.7890 269.9253
L428.7890 269.9634
" />
<path d="M428.7890 269.9634
L428.7794 269.9824
" />
<path d="M428.7794 269.9824
L428.7604 270.0015
" />
<path d="M428.7604 270.0015
L428.7223 270.0110
" />
<path d="M428.7223 270.0110
L428.6556 270.0110
" />
<path d="M428.6556 270.0110
L428.6175 270.0015
" />
<path d="M428.6175 270.0015
L428.5985 269.9824
" />
<path d="M428.5985 269.9824
L428.5890 269.9634
" />
<path d="M428.7890 269.7920
L428.5890 269.7920
" />
<path d="M428.5890 269.7920
L428.7890 269.6777
" />
<path d="M428.7890 269.6777
L428.5890 269.6777
" />
<path d="M428.6842 269.5824
L428.6842 269.5158
" />
<path d="M428.7890 269.4872
L428.7890 269.5824
" />
<path d="M428.7890 269.5824
L428.5890 269.5824
" />
<path d="M428.5890 269.5824
L428.5890 269.4872
" />
</g><g transform="rotate(-90.000000 428.2980 265.7110)">
<text x="428.2980" y="265.8110"
textLength="2.3071" font-size="0.2667" lengthAdjust="spacingAndGlyphs"
text-anchor="middle" opacity="0" stroke-opacity="0">No F.Cu tracks</text>
</g>
<g class="stroked-text"><desc>No F.Cu tracks</desc>
<path d="M428.3890 266.7920
L428.1890 266.7920
" />
<path d="M428.1890 266.7920
L428.3890 266.6777
" />
<path d="M428.3890 266.6777
L428.1890 266.6777
" />
<path d="M428.3890 266.5539
L428.3794 266.5729
" />
<path d="M428.3794 266.5729
L428.3699 266.5824
" />
<path d="M428.3699 266.5824
L428.3509 266.5920
" />
<path d="M428.3509 266.5920
L428.2937 266.5920
" />
<path d="M428.2937 266.5920
L428.2747 266.5824
" />
<path d="M428.2747 266.5824
L428.2652 266.5729
" />
<path d="M428.2652 266.5729
L428.2556 266.5539
" />
<path d="M428.2556 266.5539
L428.2556 266.5253
" />
<path d="M428.2556 266.5253
L428.2652 266.5062
" />
<path d="M428.2652 266.5062
L428.2747 266.4967
" />
<path d="M428.2747 266.4967
L428.2937 266.4872
" />
<path d="M428.2937 266.4872
L428.3509 266.4872
" />
<path d="M428.3509 266.4872
L428.3699 266.4967
" />
<path d="M428.3699 266.4967
L428.3794 266.5062
" />
<path d="M428.3794 266.5062
L428.3890 266.5253
" />
<path d="M428.3890 266.5253
L428.3890 266.5539
" />
<path d="M428.2842 266.1824
L428.2842 266.2491
" />
<path d="M428.3890 266.2491
L428.1890 266.2491
" />
<path d="M428.1890 266.2491
L428.1890 266.1539
" />
<path d="M428.3699 266.0777
L428.3794 266.0681
" />
<path d="M428.3794 266.0681
L428.3890 266.0777
" />
<path d="M428.3890 266.0777
L428.3794 266.0872
" />
<path d="M428.3794 266.0872
L428.3699 266.0777
" />
<path d="M428.3699 266.0777
L428.3890 266.0777
" />
<path d="M428.3699 265.8681
L428.3794 265.8777
" />
<path d="M428.3794 265.8777
L428.3890 265.9062
" />
<path d="M428.3890 265.9062
L428.3890 265.9253
" />
<path d="M428.3890 265.9253
L428.3794 265.9539
" />
<path d="M428.3794 265.9539
L428.3604 265.9729
" />
<path d="M428.3604 265.9729
L428.3413 265.9824
" />
<path d="M428.3413 265.9824
L428.3032 265.9920
" />
<path d="M428.3032 265.9920
L428.2747 265.9920
" />
<path d="M428.2747 265.9920
L428.2366 265.9824
" />
<path d="M428.2366 265.9824
L428.2175 265.9729
" />
<path d="M428.2175 265.9729
L428.1985 265.9539
" />
<path d="M428.1985 265.9539
L428.1890 265.9253
" />
<path d="M428.1890 265.9253
L428.1890 265.9062
" />
<path d="M428.1890 265.9062
L428.1985 265.8777
" />
<path d="M428.1985 265.8777
L428.2080 265.8681
" />
<path d="M428.2556 265.6967
L428.3890 265.6967
" />
<path d="M428.2556 265.7824
L428.3604 265.7824
" />
<path d="M428.3604 265.7824
L428.3794 265.7729
" />
<path d="M428.3794 265.7729
L428.3890 265.7539
" />
<path d="M428.3890 265.7539
L428.3890 265.7253
" />
<path d="M428.3890 265.7253
L428.3794 265.7062
" />
<path d="M428.3794 265.7062
L428.3699 265.6967
" />
<path d="M428.2556 265.4777
L428.2556 265.4015
" />
<path d="M428.1890 265.4491
L428.3604 265.4491
" />
<path d="M428.3604 265.4491
L428.3794 265.4396
" />
<path d="M428.3794 265.4396
L428.3890 265.4205
" />
<path d="M428.3890 265.4205
L428.3890 265.4015
" />
<path d="M428.3890 265.3348
L428.2556 265.3348
" />
<path d="M428.2937 265.3348
L428.2747 265.3253
" />
<path d="M428.2747 265.3253
L428.2652 265.3158
" />
<path d="M428.2652 265.3158
L428.2556 265.2967
" />
<path d="M428.2556 265.2967
L428.2556 265.2777
" />
<path d="M428.3890 265.1253
L428.2842 265.1253
" />
<path d="M428.2842 265.1253
L428.2652 265.1348
" />
<path d="M428.2652 265.1348
L428.2556 265.1539
" />
<path d="M428.2556 265.1539
L428.2556 265.1920
" />
<path d="M428.2556 265.1920
L428.2652 265.2110
" />
<path d="M428.3794 265.1253
L428.3890 265.1443
" />
<path d="M428.3890 265.1443
L428.3890 265.1920
" />
<path d="M428.3890 265.1920
L428.3794 265.2110
" />
<path d="M428.3794 265.2110
L428.3604 265.2205
" />
<path d="M428.3604 265.2205
L428.3413 265.2205
" />
<path d="M428.3413 265.2205
L428.3223 265.2110
" />
<path d="M428.3223 265.2110
L428.3128 265.1920
" />
<path d="M428.3128 265.1920
L428.3128 265.1443
" />
<path d="M428.3128 265.1443
L428.3032 265.1253
" />
<path d="M428.3794 264.9443
L428.3890 264.9634
" />
<path d="M428.3890 264.9634
L428.3890 265.0015
" />
<path d="M428.3890 265.0015
L428.3794 265.0205
" />
<path d="M428.3794 265.0205
L428.3699 265.0300
" />
<path d="M428.3699 265.0300
L428.3509 265.0396
" />
<path d="M428.3509 265.0396
L428.2937 265.0396
" />
<path d="M428.2937 265.0396
L428.2747 265.0300
" />
<path d="M428.2747 265.0300
L428.2652 265.0205
" />
<path d="M428.2652 265.0205
L428.2556 265.0015
" />
<path d="M428.2556 265.0015
L428.2556 264.9634
" />
<path d="M428.2556 264.9634
L428.2652 264.9443
" />
<path d="M428.3890 264.8586
L428.1890 264.8586
" />
<path d="M428.3128 264.8396
L428.3890 264.7824
" />
<path d="M428.2556 264.7824
L428.3318 264.8586
" />
<path d="M428.3794 264.7062
L428.3890 264.6872
" />
<path d="M428.3890 264.6872
L428.3890 264.6491
" />
<path d="M428.3890 264.6491
L428.3794 264.6300
" />
<path d="M428.3794 264.6300
L428.3604 264.6205
" />
<path d="M428.3604 264.6205
L428.3509 264.6205
" />
<path d="M428.3509 264.6205
L428.3318 264.6300
" />
<path d="M428.3318 264.6300
L428.3223 264.6491
" />
<path d="M428.3223 264.6491
L428.3223 264.6777
" />
<path d="M428.3223 264.6777
L428.3128 264.6967
" />
<path d="M428.3128 264.6967
L428.2937 264.7062
" />
<path d="M428.2937 264.7062
L428.2842 264.7062
" />
<path d="M428.2842 264.7062
L428.2652 264.6967
" />
<path d="M428.2652 264.6967
L428.2556 264.6777
" />
<path d="M428.2556 264.6777
L428.2556 264.6491
" />
<path d="M428.2556 264.6491
L428.2652 264.6300
" />
</g><g transform="rotate(-90.000000 428.2980 270.7110)">
<text x="428.2980" y="270.8110"
textLength="2.3071" font-size="0.2667" lengthAdjust="spacingAndGlyphs"
text-anchor="middle" opacity="0" stroke-opacity="0">No F.Cu tracks</text>
</g>
<g class="stroked-text"><desc>No F.Cu tracks</desc>
<path d="M428.3890 271.7920
L428.1890 271.7920
" />
<path d="M428.1890 271.7920
L428.3890 271.6777
" />
<path d="M428.3890 271.6777
L428.1890 271.6777
" />
<path d="M428.3890 271.5539
L428.3794 271.5729
" />
<path d="M428.3794 271.5729
L428.3699 271.5824
" />
<path d="M428.3699 271.5824
L428.3509 271.5920
" />
<path d="M428.3509 271.5920
L428.2937 271.5920
" />
<path d="M428.2937 271.5920
L428.2747 271.5824
" />
<path d="M428.2747 271.5824
L428.2652 271.5729
" />
<path d="M428.2652 271.5729
L428.2556 271.5539
" />
<path d="M428.2556 271.5539
L428.2556 271.5253
" />
<path d="M428.2556 271.5253
L428.2652 271.5062
" />
<path d="M428.2652 271.5062
L428.2747 271.4967
" />
<path d="M428.2747 271.4967
L428.2937 271.4872
" />
<path d="M428.2937 271.4872
L428.3509 271.4872
" />
<path d="M428.3509 271.4872
L428.3699 271.4967
" />
<path d="M428.3699 271.4967
L428.3794 271.5062
" />
<path d="M428.3794 271.5062
L428.3890 271.5253
" />
<path d="M428.3890 271.5253
L428.3890 271.5539
" />
<path d="M428.2842 271.1824
L428.2842 271.2491
" />
<path d="M428.3890 271.2491
L428.1890 271.2491
" />
<path d="M428.1890 271.2491
L428.1890 271.1539
" />
<path d="M428.3699 271.0777
L428.3794 271.0681
" />
<path d="M428.3794 271.0681
L428.3890 271.0777
" />
<path d="M428.3890 271.0777
L428.3794 271.0872
" />
<path d="M428.3794 271.0872
L428.3699 271.0777
" />
<path d="M428.3699 271.0777
L428.3890 271.0777
" />
<path d="M428.3699 270.8681
L428.3794 270.8777
" />
<path d="M428.3794 270.8777
L428.3890 270.9062
" />
<path d="M428.3890 270.9062
L428.3890 270.9253
" />
<path d="M428.3890 270.9253
L428.3794 270.9539
" />
<path d="M428.3794 270.9539
L428.3604 270.9729
" />
<path d="M428.3604 270.9729
L428.3413 270.9824
" />
<path d="M428.3413 270.9824
L428.3032 270.9920
" />
<path d="M428.3032 270.9920
L428.2747 270.9920
" />
<path d="M428.2747 270.9920
L428.2366 270.9824
" />
<path d="M428.2366 270.9824
L428.2175 270.9729
" />
<path d="M428.2175 270.9729
L428.1985 270.9539
" />
<path d="M428.1985 270.9539
L428.1890 270.9253
" />
<path d="M428.1890 270.9253
L428.1890 270.9062
" />
<path d="M428.1890 270.9062
L428.1985 270.8777
" />
<path d="M428.1985 270.8777
L428.2080 270.8681
" />
<path d="M428.2556 270.6967
L428.3890 270.6967
" />
<path d="M428.2556 270.7824
L428.3604 270.7824
" />
<path d="M428.3604 270.7824
L428.3794 270.7729
" />
<path d="M428.3794 270.7729
L428.3890 270.7539
" />
<path d="M428.3890 270.7539
L428.3890 270.7253
" />
<path d="M428.3890 270.7253
L428.3794 270.7062
" />
<path d="M428.3794 270.7062
L428.3699 270.6967
" />
<path d="M428.2556 270.4777
L428.2556 270.4015
" />
<path d="M428.1890 270.4491
L428.3604 270.4491
" />
<path d="M428.3604 270.4491
L428.3794 270.4396
" />
<path d="M428.3794 270.4396
L428.3890 270.4205
" />
<path d="M428.3890 270.4205
L428.3890 270.4015
" />
<path d="M428.3890 270.3348
L428.2556 270.3348
" />
<path d="M428.2937 270.3348
L428.2747 270.3253
" />
<path d="M428.2747 270.3253
L428.2652 270.3158
" />
<path d="M428.2652 270.3158
L428.2556 270.2967
" />
<path d="M428.2556 270.2967
L428.2556 270.2777
" />
<path d="M428.3890 270.1253
L428.2842 270.1253
" />
<path d="M428.2842 270.1253
L428.2652 270.1348
" />
<path d="M428.2652 270.1348
L428.2556 270.1539
" />
<path d="M428.2556 270.1539
L428.2556 270.1920
" />
<path d="M428.2556 270.1920
L428.2652 270.2110
" />
<path d="M428.3794 270.1253
L428.3890 270.1443
" />
<path d="M428.3890 270.1443
L428.3890 270.1920
" />
<path d="M428.3890 270.1920
L428.3794 270.2110
" />
<path d="M428.3794 270.2110
L428.3604 270.2205
" />
<path d="M428.3604 270.2205
L428.3413 270.2205
" />
<path d="M428.3413 270.2205
L428.3223 270.2110
" />
<path d="M428.3223 270.2110
L428.3128 270.1920
" />
<path d="M428.3128 270.1920
L428.3128 270.1443
" />
<path d="M428.3128 270.1443
L428.3032 270.1253
" />
<path d="M428.3794 269.9443
L428.3890 269.9634
" />
<path d="M428.3890 269.9634
L428.3890 270.0015
" />
<path d="M428.3890 270.0015
L428.3794 270.0205
" />
<path d="M428.3794 270.0205
L428.3699 270.0300
" />
<path d="M428.3699 270.0300
L428.3509 270.0396
" />
<path d="M428.3509 270.0396
L428.2937 270.0396
" />
<path d="M428.2937 270.0396
L428.2747 270.0300
" />
<path d="M428.2747 270.0300
L428.2652 270.0205
" />
<path d="M428.2652 270.0205
L428.2556 270.0015
" />
<path d="M428.2556 270.0015
L428.2556 269.9634
" />
<path d="M428.2556 269.9634
L428.2652 269.9443
" />
<path d="M428.3890 269.8586
L428.1890 269.8586
" />
<path d="M428.3128 269.8396
L428.3890 269.7824
" />
<path d="M428.2556 269.7824
L428.3318 269.8586
" />
<path d="M428.3794 269.7062
L428.3890 269.6872
" />
<path d="M428.3890 269.6872
L428.3890 269.6491
" />
<path d="M428.3890 269.6491
L428.3794 269.6300
" />
<path d="M428.3794 269.6300
L428.3604 269.6205
" />
<path d="M428.3604 269.6205
L428.3509 269.6205
" />
<path d="M428.3509 269.6205
L428.3318 269.6300
" />
<path d="M428.3318 269.6300
L428.3223 269.6491
" />
<path d="M428.3223 269.6491
L428.3223 269.6777
" />
<path d="M428.3223 269.6777
L428.3128 269.6967
" />
<path d="M428.3128 269.6967
L428.2937 269.7062
" />
<path d="M428.2937 269.7062
L428.2842 269.7062
" />
<path d="M428.2842 269.7062
L428.2652 269.6967
" />
<path d="M428.2652 269.6967
L428.2556 269.6777
" />
<path d="M428.2556 269.6777
L428.2556 269.6491
" />
<path d="M428.2556 269.6491
L428.2652 269.6300
" />
</g></g> 
</svg>
