<?xml version="1.0" standalone="no"?>
 <!DOCTYPE svg PUBLIC "-//W3C//DTD SVG 1.1//EN" 
 "http://www.w3.org/Graphics/SVG/1.1/DTD/svg11.dtd"> 
<svg
  xmlns:svg="http://www.w3.org/2000/svg"
  xmlns="http://www.w3.org/2000/svg"
  xmlns:xlink="http://www.w3.org/1999/xlink"
  version="1.1"
  width="594.0044mm" height="419.9890mm" viewBox="0.0000 0.0000 594.0044 419.9890">
<title>SVG Image created as kbd8x_mkii_kicad_9-Edge_Cuts.svg date 2025/06/09 22:08:51 </title>
  <desc>Image generated by PCBNEW </desc>
<g style="fill:#000000; fill-opacity:1.0000;stroke:#000000; stroke-opacity:1.0000;
stroke-linecap:round; stroke-linejoin:round;"
 transform="translate(0 0) scale(1 1)">
</g>
<g style="fill:none; 
stroke:#000000; stroke-width:0.2000; stroke-opacity:1; 
stroke-linecap:round; stroke-linejoin:round;">
<path d="M390.1768 191.0578 A0.7937 0.7937 0.0 0 0 389.3830 191.8515" />
<path d="M111.5705 193.4390 A3.1750 3.1750 0.0 0 0 108.3955 196.6140" />
<path d="M135.7799 233.9204 A0.7937 0.7937 0.0 0 0 135.7799 235.5078" />
<path d="M448.9143 309.3266 A3.1750 3.1750 0.0 0 0 452.0893 306.1515" />
<path d="M388.5892 193.4390 A0.7938 0.7938 0.0 0 0 389.3830 192.6452" />
<path d="M388.5892 193.4390
L111.5705 193.4390
" />
<path d="M353.2674 235.5079 A0.7938 0.7938 0.0 0 0 353.2674 233.9203" />
<path d="M150.0674 273.6078
L338.9799 273.6078
" />
<path d="M452.0893 306.1515
L452.0893 196.5963
" />
</g>
<g style="fill:none; 
stroke:#000000; stroke-width:0.0500; stroke-opacity:1; 
stroke-linecap:round; stroke-linejoin:round;">
<circle cx="377.8738" cy="244.2393" r="2.3750" /> 
</g>
<g style="fill:none; 
stroke:#000000; stroke-width:0.2000; stroke-opacity:1; 
stroke-linecap:round; stroke-linejoin:round;">
<path d="M111.5705 309.3265
L448.9143 309.3265
" />
<path d="M399.7017 192.6453 A0.7938 0.7938 0.0 0 0 400.4955 193.4390" />
<path d="M452.0893 196.5963 A3.1752 3.1752 0.0 0 0 448.9141 193.4390" />
<path d="M338.9799 273.6079 A0.7938 0.7938 0.0 0 0 338.9799 272.0203" />
<path d="M108.3955 196.6140
L108.3955 306.1515
" />
<path d="M399.7018 191.8515 A0.7938 0.7938 0.0 0 0 398.9080 191.0578" />
<path d="M135.7799 235.5078
L353.2674 235.5078
" />
<path d="M353.2674 233.9203
L135.7799 233.9203
" />
<path d="M150.0674 272.0204 A0.7937 0.7937 0.0 0 0 150.0674 273.6078" />
<path d="M398.9080 191.0578
L390.1768 191.0578
" />
<path d="M108.3955 306.1516 A3.1751 3.1751 0.0 0 0 111.5705 309.3265" />
<path d="M389.3830 191.8516
L389.3830 192.6453
" />
<path d="M448.9141 193.4390
L400.4955 193.4390
" />
<path d="M338.9799 272.0203
L150.0674 272.0203
" />
<path d="M399.7018 192.6453
L399.7018 191.8516
" />
</g> 
</svg>
