<?xml version="1.0" standalone="no"?>
 <!DOCTYPE svg PUBLIC "-//W3C//DTD SVG 1.1//EN" 
 "http://www.w3.org/Graphics/SVG/1.1/DTD/svg11.dtd"> 
<svg
  xmlns:svg="http://www.w3.org/2000/svg"
  xmlns="http://www.w3.org/2000/svg"
  xmlns:xlink="http://www.w3.org/1999/xlink"
  version="1.1"
  width="594.0044mm" height="419.9890mm" viewBox="0.0000 0.0000 594.0044 419.9890">
<title>SVG Image created as kbd8x_mkii_kicad_9-F_Silkscreen.svg date 2025/06/09 22:08:50 </title>
  <desc>Image generated by PCBNEW </desc>
<g style="fill:#000000; fill-opacity:1.0000;stroke:#000000; stroke-opacity:1.0000;
stroke-linecap:round; stroke-linejoin:round;"
 transform="translate(0 0) scale(1 1)">
</g>
<g style="fill:#000000; fill-opacity:1.0000; stroke:none;">
<circle cx="435.0238" cy="205.1868" r="0.8255" /> 
<path style="fill:#000000; fill-opacity:1.0000; stroke:none;fill-rule:evenodd;"
d="M 435.8493,198.3923
434.1983,198.3923
434.1983,196.7413
435.8493,196.7413
Z" /> 
</g>
<g style="fill:#000000; fill-opacity:1.0000; stroke:none;">
<circle cx="258.8113" cy="228.9993" r="0.8255" /> 
<path style="fill:#000000; fill-opacity:1.0000; stroke:none;fill-rule:evenodd;"
d="M 259.6368,222.2048
257.9858,222.2048
257.9858,220.5538
259.6368,220.5538
Z" /> 
</g>
<g style="fill:#000000; fill-opacity:1.0000; stroke:none;">
<circle cx="244.5238" cy="286.1493" r="0.8255" /> 
<path style="fill:#000000; fill-opacity:1.0000; stroke:none;fill-rule:evenodd;"
d="M 245.3493,279.3548
243.6983,279.3548
243.6983,277.7038
245.3493,277.7038
Z" /> 
</g>
<g style="fill:#000000; fill-opacity:1.0000; stroke:none;">
<circle cx="144.5113" cy="228.9993" r="0.8255" /> 
<path style="fill:#000000; fill-opacity:1.0000; stroke:none;fill-rule:evenodd;"
d="M 145.3368,222.2048
143.6858,222.2048
143.6858,220.5538
145.3368,220.5538
Z" /> 
</g>
<g style="fill:#000000; fill-opacity:1.0000; stroke:none;">
<circle cx="396.9238" cy="305.1993" r="0.8255" /> 
<path style="fill:#000000; fill-opacity:1.0000; stroke:none;fill-rule:evenodd;"
d="M 397.7493,298.4048
396.0983,298.4048
396.0983,296.7538
397.7493,296.7538
Z" /> 
</g>
<g style="fill:#000000; fill-opacity:1.0000; stroke:none;">
<circle cx="163.5613" cy="228.9993" r="0.8255" /> 
<path style="fill:#000000; fill-opacity:1.0000; stroke:none;fill-rule:evenodd;"
d="M 164.3868,222.2048
162.7358,222.2048
162.7358,220.5538
164.3868,220.5538
Z" /> 
</g>
<g style="fill:#000000; fill-opacity:1.0000; stroke:none;">
<circle cx="268.3363" cy="205.1868" r="0.8255" /> 
<path style="fill:#000000; fill-opacity:1.0000; stroke:none;fill-rule:evenodd;"
d="M 269.1618,198.3923
267.5108,198.3923
267.5108,196.7413
269.1618,196.7413
Z" /> 
</g>
<g style="fill:#000000; fill-opacity:1.0000; stroke:none;">
<circle cx="320.7238" cy="286.1493" r="0.8255" /> 
<path style="fill:#000000; fill-opacity:1.0000; stroke:none;fill-rule:evenodd;"
d="M 321.5493,279.3548
319.8983,279.3548
319.8983,277.7038
321.5493,277.7038
Z" /> 
</g>
<g style="fill:#000000; fill-opacity:1.0000; stroke:none;">
<circle cx="296.9113" cy="228.9993" r="0.8255" /> 
<path style="fill:#000000; fill-opacity:1.0000; stroke:none;fill-rule:evenodd;"
d="M 297.7368,222.2048
296.0858,222.2048
296.0858,220.5538
297.7368,220.5538
Z" /> 
</g>
<g style="fill:#000000; fill-opacity:1.0000; stroke:none;">
<circle cx="367.3963" cy="215.6643" r="0.8255" /> 
<path style="fill:#000000; fill-opacity:1.0000; stroke:none;fill-rule:evenodd;"
d="M 360.6018,214.8388
360.6018,216.4898
358.9508,216.4898
358.9508,214.8388
Z" /> 
</g>
<g style="fill:#000000; fill-opacity:1.0000; stroke:none;">
<circle cx="130.2238" cy="305.1993" r="0.8255" /> 
<path style="fill:#000000; fill-opacity:1.0000; stroke:none;fill-rule:evenodd;"
d="M 131.0493,298.4048
129.3983,298.4048
129.3983,296.7538
131.0493,296.7538
Z" /> 
</g>
<g style="fill:#000000; fill-opacity:1.0000; stroke:none;">
<circle cx="182.6113" cy="228.9993" r="0.8255" /> 
<path style="fill:#000000; fill-opacity:1.0000; stroke:none;fill-rule:evenodd;"
d="M 183.4368,222.2048
181.7858,222.2048
181.7858,220.5538
183.4368,220.5538
Z" /> 
</g>
<g style="fill:#000000; fill-opacity:1.0000; stroke:none;">
<circle cx="173.0863" cy="248.0493" r="0.8255" /> 
<path style="fill:#000000; fill-opacity:1.0000; stroke:none;fill-rule:evenodd;"
d="M 173.9118,241.2548
172.2608,241.2548
172.2608,239.6038
173.9118,239.6038
Z" /> 
</g>
<g style="fill:#000000; fill-opacity:1.0000; stroke:none;">
<circle cx="435.0238" cy="305.1993" r="0.8255" /> 
<path style="fill:#000000; fill-opacity:1.0000; stroke:none;fill-rule:evenodd;"
d="M 435.8493,298.4048
434.1983,298.4048
434.1983,296.7538
435.8493,296.7538
Z" /> 
</g>
<g style="fill:#000000; fill-opacity:1.0000; stroke:none;">
<circle cx="182.6113" cy="205.1868" r="0.8255" /> 
<path style="fill:#000000; fill-opacity:1.0000; stroke:none;fill-rule:evenodd;"
d="M 183.4368,198.3923
181.7858,198.3923
181.7858,196.7413
183.4368,196.7413
Z" /> 
</g>
<g style="fill:#000000; fill-opacity:1.0000; stroke:none;">
<circle cx="339.7738" cy="305.1993" r="0.8255" /> 
<path style="fill:#000000; fill-opacity:1.0000; stroke:none;fill-rule:evenodd;"
d="M 340.5993,298.4048
338.9483,298.4048
338.9483,296.7538
340.5993,296.7538
Z" /> 
</g>
<g style="fill:#000000; fill-opacity:1.0000; stroke:none;">
<circle cx="306.4363" cy="248.0493" r="0.8255" /> 
<path style="fill:#000000; fill-opacity:1.0000; stroke:none;fill-rule:evenodd;"
d="M 307.2618,241.2548
305.6108,241.2548
305.6108,239.6038
307.2618,239.6038
Z" /> 
</g>
<g style="fill:#000000; fill-opacity:1.0000; stroke:none;">
<circle cx="292.1488" cy="267.0993" r="0.8255" /> 
<path style="fill:#000000; fill-opacity:1.0000; stroke:none;fill-rule:evenodd;"
d="M 292.9743,260.3048
291.3233,260.3048
291.3233,258.6538
292.9743,258.6538
Z" /> 
</g>
<g style="fill:#000000; fill-opacity:1.0000; stroke:none;">
<circle cx="344.5363" cy="248.0493" r="0.8255" /> 
<path style="fill:#000000; fill-opacity:1.0000; stroke:none;fill-rule:evenodd;"
d="M 345.3618,241.2548
343.7108,241.2548
343.7108,239.6038
345.3618,239.6038
Z" /> 
</g>
<g style="fill:#000000; fill-opacity:1.0000; stroke:none;">
<circle cx="263.5738" cy="286.1493" r="0.8255" /> 
<path style="fill:#000000; fill-opacity:1.0000; stroke:none;fill-rule:evenodd;"
d="M 264.3993,279.3548
262.7483,279.3548
262.7483,277.7038
264.3993,277.7038
Z" /> 
</g>
<g style="fill:#000000; fill-opacity:1.0000; stroke:none;">
<circle cx="373.1113" cy="205.1868" r="0.8255" /> 
<path style="fill:#000000; fill-opacity:1.0000; stroke:none;fill-rule:evenodd;"
d="M 373.9368,198.3923
372.2858,198.3923
372.2858,196.7413
373.9368,196.7413
Z" /> 
</g>
<g style="fill:#000000; fill-opacity:1.0000; stroke:none;">
<circle cx="387.3988" cy="305.1993" r="0.8255" /> 
<path style="fill:#000000; fill-opacity:1.0000; stroke:none;fill-rule:evenodd;"
d="M 388.2243,298.4048
386.5733,298.4048
386.5733,296.7538
388.2243,296.7538
Z" /> 
</g>
<g style="fill:#000000; fill-opacity:1.0000; stroke:none;">
<circle cx="287.3863" cy="248.0493" r="0.8255" /> 
<path style="fill:#000000; fill-opacity:1.0000; stroke:none;fill-rule:evenodd;"
d="M 288.2118,241.2548
286.5608,241.2548
286.5608,239.6038
288.2118,239.6038
Z" /> 
</g>
<g style="fill:#000000; fill-opacity:1.0000; stroke:none;">
<circle cx="361.2050" cy="267.0993" r="0.8255" /> 
<path style="fill:#000000; fill-opacity:1.0000; stroke:none;fill-rule:evenodd;"
d="M 362.0305,260.3048
360.3795,260.3048
360.3795,258.6538
362.0305,258.6538
Z" /> 
</g>
<g style="fill:#000000; fill-opacity:1.0000; stroke:none;">
<circle cx="410.2588" cy="210.9018" r="0.8255" /> 
<path style="fill:#000000; fill-opacity:1.0000; stroke:none;fill-rule:evenodd;"
d="M 403.4643,210.0763
403.4643,211.7273
401.8133,211.7273
401.8133,210.0763
Z" /> 
</g>
<g style="fill:#000000; fill-opacity:1.0000; stroke:none;">
<circle cx="330.2488" cy="267.0993" r="0.8255" /> 
<path style="fill:#000000; fill-opacity:1.0000; stroke:none;fill-rule:evenodd;"
d="M 331.0743,260.3048
329.4233,260.3048
329.4233,258.6538
331.0743,258.6538
Z" /> 
</g>
<g style="fill:#000000; fill-opacity:1.0000; stroke:none;">
<circle cx="335.0113" cy="228.9993" r="0.8255" /> 
<path style="fill:#000000; fill-opacity:1.0000; stroke:none;fill-rule:evenodd;"
d="M 335.8368,222.2048
334.1858,222.2048
334.1858,220.5538
335.8368,220.5538
Z" /> 
</g>
<g style="fill:#000000; fill-opacity:1.0000; stroke:none;">
<circle cx="163.5613" cy="205.1868" r="0.8255" /> 
<path style="fill:#000000; fill-opacity:1.0000; stroke:none;fill-rule:evenodd;"
d="M 164.3868,198.3923
162.7358,198.3923
162.7358,196.7413
164.3868,196.7413
Z" /> 
</g>
<g style="fill:#000000; fill-opacity:1.0000; stroke:none;">
<circle cx="282.6238" cy="286.1493" r="0.8255" /> 
<path style="fill:#000000; fill-opacity:1.0000; stroke:none;fill-rule:evenodd;"
d="M 283.4493,279.3548
281.7983,279.3548
281.7983,277.7038
283.4493,277.7038
Z" /> 
</g>
<g style="fill:#000000; fill-opacity:1.0000; stroke:none;">
<circle cx="158.7988" cy="267.0993" r="0.8255" /> 
<path style="fill:#000000; fill-opacity:1.0000; stroke:none;fill-rule:evenodd;"
d="M 159.6243,260.3048
157.9733,260.3048
157.9733,258.6538
159.6243,258.6538
Z" /> 
</g>
<g style="fill:#000000; fill-opacity:1.0000; stroke:none;">
<circle cx="230.2363" cy="248.0493" r="0.8255" /> 
<path style="fill:#000000; fill-opacity:1.0000; stroke:none;fill-rule:evenodd;"
d="M 231.0618,241.2548
229.4108,241.2548
229.4108,239.6038
231.0618,239.6038
Z" /> 
</g>
<g style="fill:#000000; fill-opacity:1.0000; stroke:none;">
<circle cx="435.0238" cy="248.0493" r="0.8255" /> 
<path style="fill:#000000; fill-opacity:1.0000; stroke:none;fill-rule:evenodd;"
d="M 435.8493,241.2548
434.1983,241.2548
434.1983,239.6038
435.8493,239.6038
Z" /> 
</g>
<g style="fill:#000000; fill-opacity:1.0000; stroke:none;">
<circle cx="339.7738" cy="286.1493" r="0.8255" /> 
<path style="fill:#000000; fill-opacity:1.0000; stroke:none;fill-rule:evenodd;"
d="M 340.5993,279.3548
338.9483,279.3548
338.9483,277.7038
340.5993,277.7038
Z" /> 
</g>
<g style="fill:#000000; fill-opacity:1.0000; stroke:none;">
<circle cx="375.4925" cy="286.1493" r="0.8255" /> 
<path style="fill:#000000; fill-opacity:1.0000; stroke:none;fill-rule:evenodd;"
d="M 376.3180,279.3548
374.6670,279.3548
374.6670,277.7038
376.3180,277.7038
Z" /> 
</g>
<g style="fill:#000000; fill-opacity:1.0000; stroke:none;">
<circle cx="130.2238" cy="248.0493" r="0.8255" /> 
<path style="fill:#000000; fill-opacity:1.0000; stroke:none;fill-rule:evenodd;"
d="M 131.0493,241.2548
129.3983,241.2548
129.3983,239.6038
131.0493,239.6038
Z" /> 
</g>
<g style="fill:#000000; fill-opacity:1.0000; stroke:none;">
<circle cx="254.0488" cy="267.0993" r="0.8255" /> 
<path style="fill:#000000; fill-opacity:1.0000; stroke:none;fill-rule:evenodd;"
d="M 254.8743,260.3048
253.2233,260.3048
253.2233,258.6538
254.8743,258.6538
Z" /> 
</g>
<g style="fill:#000000; fill-opacity:1.0000; stroke:none;">
<circle cx="239.7613" cy="228.9993" r="0.8255" /> 
<path style="fill:#000000; fill-opacity:1.0000; stroke:none;fill-rule:evenodd;"
d="M 240.5868,222.2048
238.9358,222.2048
238.9358,220.5538
240.5868,220.5538
Z" /> 
</g>
<g style="fill:#000000; fill-opacity:1.0000; stroke:none;">
<circle cx="192.1363" cy="248.0493" r="0.8255" /> 
<path style="fill:#000000; fill-opacity:1.0000; stroke:none;fill-rule:evenodd;"
d="M 192.9618,241.2548
191.3108,241.2548
191.3108,239.6038
192.9618,239.6038
Z" /> 
</g>
<g style="fill:#000000; fill-opacity:1.0000; stroke:none;">
<circle cx="325.4863" cy="248.0493" r="0.8255" /> 
<path style="fill:#000000; fill-opacity:1.0000; stroke:none;fill-rule:evenodd;"
d="M 326.3118,241.2548
324.6608,241.2548
324.6608,239.6038
326.3118,239.6038
Z" /> 
</g>
<g style="fill:#000000; fill-opacity:1.0000; stroke:none;">
<circle cx="354.0613" cy="228.9993" r="0.8255" /> 
<path style="fill:#000000; fill-opacity:1.0000; stroke:none;fill-rule:evenodd;"
d="M 354.8868,222.2048
353.2358,222.2048
353.2358,220.5538
354.8868,220.5538
Z" /> 
</g>
<g style="fill:#000000; fill-opacity:1.0000; stroke:none;">
<circle cx="125.4613" cy="228.9993" r="0.8255" /> 
<path style="fill:#000000; fill-opacity:1.0000; stroke:none;fill-rule:evenodd;"
d="M 126.2868,222.2048
124.6358,222.2048
124.6358,220.5538
126.2868,220.5538
Z" /> 
</g>
<g style="fill:#000000; fill-opacity:1.0000; stroke:none;">
<circle cx="415.9738" cy="228.9993" r="0.8255" /> 
<path style="fill:#000000; fill-opacity:1.0000; stroke:none;fill-rule:evenodd;"
d="M 416.7993,222.2048
415.1483,222.2048
415.1483,220.5538
416.7993,220.5538
Z" /> 
</g>
<g style="fill:#000000; fill-opacity:1.0000; stroke:none;">
<circle cx="154.0363" cy="248.0493" r="0.8255" /> 
<path style="fill:#000000; fill-opacity:1.0000; stroke:none;fill-rule:evenodd;"
d="M 154.8618,241.2548
153.2108,241.2548
153.2108,239.6038
154.8618,239.6038
Z" /> 
</g>
<g style="fill:#000000; fill-opacity:1.0000; stroke:none;">
<circle cx="363.5863" cy="248.0493" r="0.8255" /> 
<path style="fill:#000000; fill-opacity:1.0000; stroke:none;fill-rule:evenodd;"
d="M 364.4118,241.2548
362.7608,241.2548
362.7608,239.6038
364.4118,239.6038
Z" /> 
</g>
<g style="fill:#000000; fill-opacity:1.0000; stroke:none;">
<circle cx="132.6050" cy="267.0993" r="0.8255" /> 
<path style="fill:#000000; fill-opacity:1.0000; stroke:none;fill-rule:evenodd;"
d="M 133.4305,260.3048
131.7795,260.3048
131.7795,258.6538
133.4305,258.6538
Z" /> 
</g>
<g style="fill:#000000; fill-opacity:1.0000; stroke:none;">
<circle cx="168.3238" cy="286.1493" r="0.8255" /> 
<path style="fill:#000000; fill-opacity:1.0000; stroke:none;fill-rule:evenodd;"
d="M 169.1493,279.3548
167.4983,279.3548
167.4983,277.7038
169.1493,277.7038
Z" /> 
</g>
<g style="fill:#000000; fill-opacity:1.0000; stroke:none;">
<circle cx="354.0613" cy="205.1868" r="0.8255" /> 
<path style="fill:#000000; fill-opacity:1.0000; stroke:none;fill-rule:evenodd;"
d="M 354.8868,198.3923
353.2358,198.3923
353.2358,196.7413
354.8868,196.7413
Z" /> 
</g>
<g style="fill:#000000; fill-opacity:1.0000; stroke:none;">
<circle cx="249.2863" cy="205.1868" r="0.8255" /> 
<path style="fill:#000000; fill-opacity:1.0000; stroke:none;fill-rule:evenodd;"
d="M 250.1118,198.3923
248.4608,198.3923
248.4608,196.7413
250.1118,196.7413
Z" /> 
</g>
<g style="fill:#000000; fill-opacity:1.0000; stroke:none;">
<circle cx="144.5113" cy="205.1868" r="0.8255" /> 
<path style="fill:#000000; fill-opacity:1.0000; stroke:none;fill-rule:evenodd;"
d="M 145.3368,198.3923
143.6858,198.3923
143.6858,196.7413
145.3368,196.7413
Z" /> 
</g>
<g style="fill:#000000; fill-opacity:1.0000; stroke:none;">
<circle cx="273.0988" cy="267.0993" r="0.8255" /> 
<path style="fill:#000000; fill-opacity:1.0000; stroke:none;fill-rule:evenodd;"
d="M 273.9243,260.3048
272.2733,260.3048
272.2733,258.6538
273.9243,258.6538
Z" /> 
</g>
<g style="fill:#000000; fill-opacity:1.0000; stroke:none;">
<circle cx="287.3863" cy="205.1868" r="0.8255" /> 
<path style="fill:#000000; fill-opacity:1.0000; stroke:none;fill-rule:evenodd;"
d="M 288.2118,198.3923
286.5608,198.3923
286.5608,196.7413
288.2118,196.7413
Z" /> 
</g>
<g style="fill:#000000; fill-opacity:1.0000; stroke:none;">
<circle cx="125.4613" cy="205.1868" r="0.8255" /> 
<path style="fill:#000000; fill-opacity:1.0000; stroke:none;fill-rule:evenodd;"
d="M 126.2868,198.3923
124.6358,198.3923
124.6358,196.7413
126.2868,196.7413
Z" /> 
</g>
<g style="fill:#000000; fill-opacity:1.0000; stroke:none;">
<circle cx="349.2988" cy="267.0993" r="0.8255" /> 
<path style="fill:#000000; fill-opacity:1.0000; stroke:none;fill-rule:evenodd;"
d="M 350.1243,260.3048
348.4733,260.3048
348.4733,258.6538
350.1243,258.6538
Z" /> 
</g>
<g style="fill:#000000; fill-opacity:1.0000; stroke:none;">
<circle cx="215.9488" cy="267.0993" r="0.8255" /> 
<path style="fill:#000000; fill-opacity:1.0000; stroke:none;fill-rule:evenodd;"
d="M 216.7743,260.3048
215.1233,260.3048
215.1233,258.6538
216.7743,258.6538
Z" /> 
</g>
<g style="fill:#000000; fill-opacity:1.0000; stroke:none;">
<circle cx="315.9613" cy="228.9993" r="0.8255" /> 
<path style="fill:#000000; fill-opacity:1.0000; stroke:none;fill-rule:evenodd;"
d="M 316.7868,222.2048
315.1358,222.2048
315.1358,220.5538
316.7868,220.5538
Z" /> 
</g>
<g style="fill:#000000; fill-opacity:1.0000; stroke:none;">
<circle cx="415.9738" cy="305.1993" r="0.8255" /> 
<path style="fill:#000000; fill-opacity:1.0000; stroke:none;fill-rule:evenodd;"
d="M 416.7993,298.4048
415.1483,298.4048
415.1483,296.7538
416.7993,296.7538
Z" /> 
</g>
<g style="fill:#000000; fill-opacity:1.0000; stroke:none;">
<circle cx="435.0238" cy="228.9993" r="0.8255" /> 
<path style="fill:#000000; fill-opacity:1.0000; stroke:none;fill-rule:evenodd;"
d="M 435.8493,222.2048
434.1983,222.2048
434.1983,220.5538
435.8493,220.5538
Z" /> 
</g>
<g style="fill:#000000; fill-opacity:1.0000; stroke:none;">
<circle cx="335.0113" cy="205.1868" r="0.8255" /> 
<path style="fill:#000000; fill-opacity:1.0000; stroke:none;fill-rule:evenodd;"
d="M 335.8368,198.3923
334.1858,198.3923
334.1858,196.7413
335.8368,196.7413
Z" /> 
</g>
<g style="fill:#000000; fill-opacity:1.0000; stroke:none;">
<circle cx="196.8988" cy="267.0993" r="0.8255" /> 
<path style="fill:#000000; fill-opacity:1.0000; stroke:none;fill-rule:evenodd;"
d="M 197.7243,260.3048
196.0733,260.3048
196.0733,258.6538
197.7243,258.6538
Z" /> 
</g>
<g style="fill:#000000; fill-opacity:1.0000; stroke:none;">
<circle cx="315.9613" cy="205.1868" r="0.8255" /> 
<path style="fill:#000000; fill-opacity:1.0000; stroke:none;fill-rule:evenodd;"
d="M 316.7868,198.3923
315.1358,198.3923
315.1358,196.7413
316.7868,196.7413
Z" /> 
</g>
<g style="fill:#000000; fill-opacity:1.0000; stroke:none;">
<circle cx="386.4463" cy="215.6643" r="0.8255" /> 
<path style="fill:#000000; fill-opacity:1.0000; stroke:none;fill-rule:evenodd;"
d="M 379.6518,214.8388
379.6518,216.4898
378.0008,216.4898
378.0008,214.8388
Z" /> 
</g>
<g style="fill:#000000; fill-opacity:1.0000; stroke:none;">
<circle cx="387.3988" cy="248.0493" r="0.8255" /> 
<path style="fill:#000000; fill-opacity:1.0000; stroke:none;fill-rule:evenodd;"
d="M 388.2243,241.2548
386.5733,241.2548
386.5733,239.6038
388.2243,239.6038
Z" /> 
</g>
<g style="fill:#000000; fill-opacity:1.0000; stroke:none;">
<circle cx="363.5863" cy="305.1993" r="0.8255" /> 
<path style="fill:#000000; fill-opacity:1.0000; stroke:none;fill-rule:evenodd;"
d="M 364.4118,298.4048
362.7608,298.4048
362.7608,296.7538
364.4118,296.7538
Z" /> 
</g>
<g style="fill:#000000; fill-opacity:1.0000; stroke:none;">
<circle cx="211.1863" cy="248.0493" r="0.8255" /> 
<path style="fill:#000000; fill-opacity:1.0000; stroke:none;fill-rule:evenodd;"
d="M 212.0118,241.2548
210.3608,241.2548
210.3608,239.6038
212.0118,239.6038
Z" /> 
</g>
<g style="fill:#000000; fill-opacity:1.0000; stroke:none;">
<circle cx="206.4238" cy="286.1493" r="0.8255" /> 
<path style="fill:#000000; fill-opacity:1.0000; stroke:none;fill-rule:evenodd;"
d="M 207.2493,279.3548
205.5983,279.3548
205.5983,277.7038
207.2493,277.7038
Z" /> 
</g>
<g style="fill:#000000; fill-opacity:1.0000; stroke:none;">
<circle cx="277.8613" cy="228.9993" r="0.8255" /> 
<path style="fill:#000000; fill-opacity:1.0000; stroke:none;fill-rule:evenodd;"
d="M 278.6868,222.2048
277.0358,222.2048
277.0358,220.5538
278.6868,220.5538
Z" /> 
</g>
<g style="fill:#000000; fill-opacity:1.0000; stroke:none;">
<circle cx="268.3363" cy="248.0493" r="0.8255" /> 
<path style="fill:#000000; fill-opacity:1.0000; stroke:none;fill-rule:evenodd;"
d="M 269.1618,241.2548
267.5108,241.2548
267.5108,239.6038
269.1618,239.6038
Z" /> 
</g>
<g style="fill:#000000; fill-opacity:1.0000; stroke:none;">
<circle cx="201.6613" cy="228.9993" r="0.8255" /> 
<path style="fill:#000000; fill-opacity:1.0000; stroke:none;fill-rule:evenodd;"
d="M 202.4868,222.2048
200.8358,222.2048
200.8358,220.5538
202.4868,220.5538
Z" /> 
</g>
<g style="fill:#000000; fill-opacity:1.0000; stroke:none;">
<circle cx="415.9738" cy="205.1868" r="0.8255" /> 
<path style="fill:#000000; fill-opacity:1.0000; stroke:none;fill-rule:evenodd;"
d="M 416.7993,198.3923
415.1483,198.3923
415.1483,196.7413
416.7993,196.7413
Z" /> 
</g>
<g style="fill:#000000; fill-opacity:1.0000; stroke:none;">
<circle cx="415.9738" cy="286.1493" r="0.8255" /> 
<path style="fill:#000000; fill-opacity:1.0000; stroke:none;fill-rule:evenodd;"
d="M 416.7993,279.3548
415.1483,279.3548
415.1483,277.7038
416.7993,277.7038
Z" /> 
</g>
<g style="fill:#000000; fill-opacity:1.0000; stroke:none;">
<circle cx="258.8113" cy="305.1993" r="0.8255" /> 
<path style="fill:#000000; fill-opacity:1.0000; stroke:none;fill-rule:evenodd;"
d="M 259.6368,298.4048
257.9858,298.4048
257.9858,296.7538
259.6368,296.7538
Z" /> 
</g>
<g style="fill:#000000; fill-opacity:1.0000; stroke:none;">
<circle cx="415.9738" cy="248.0493" r="0.8255" /> 
<path style="fill:#000000; fill-opacity:1.0000; stroke:none;fill-rule:evenodd;"
d="M 416.7993,241.2548
415.1483,241.2548
415.1483,239.6038
416.7993,239.6038
Z" /> 
</g>
<g style="fill:#000000; fill-opacity:1.0000; stroke:none;">
<circle cx="187.3738" cy="286.1493" r="0.8255" /> 
<path style="fill:#000000; fill-opacity:1.0000; stroke:none;fill-rule:evenodd;"
d="M 188.1993,279.3548
186.5483,279.3548
186.5483,277.7038
188.1993,277.7038
Z" /> 
</g>
<g style="fill:#000000; fill-opacity:1.0000; stroke:none;">
<circle cx="301.6738" cy="286.1493" r="0.8255" /> 
<path style="fill:#000000; fill-opacity:1.0000; stroke:none;fill-rule:evenodd;"
d="M 302.4993,279.3548
300.8483,279.3548
300.8483,277.7038
302.4993,277.7038
Z" /> 
</g>
<g style="fill:#000000; fill-opacity:1.0000; stroke:none;">
<circle cx="154.0363" cy="305.1993" r="0.8255" /> 
<path style="fill:#000000; fill-opacity:1.0000; stroke:none;fill-rule:evenodd;"
d="M 154.8618,298.4048
153.2108,298.4048
153.2108,296.7538
154.8618,296.7538
Z" /> 
</g>
<g style="fill:#000000; fill-opacity:1.0000; stroke:none;">
<circle cx="225.4738" cy="286.1493" r="0.8255" /> 
<path style="fill:#000000; fill-opacity:1.0000; stroke:none;fill-rule:evenodd;"
d="M 226.2993,279.3548
224.6483,279.3548
224.6483,277.7038
226.2993,277.7038
Z" /> 
</g>
<g style="fill:#000000; fill-opacity:1.0000; stroke:none;">
<circle cx="177.8488" cy="267.0993" r="0.8255" /> 
<path style="fill:#000000; fill-opacity:1.0000; stroke:none;fill-rule:evenodd;"
d="M 178.6743,260.3048
177.0233,260.3048
177.0233,258.6538
178.6743,258.6538
Z" /> 
</g>
<g style="fill:#000000; fill-opacity:1.0000; stroke:none;">
<circle cx="410.2588" cy="215.6643" r="0.8255" /> 
<path style="fill:#000000; fill-opacity:1.0000; stroke:none;fill-rule:evenodd;"
d="M 403.4643,214.8388
403.4643,216.4898
401.8133,216.4898
401.8133,214.8388
Z" /> 
</g>
<g style="fill:#000000; fill-opacity:1.0000; stroke:none;">
<circle cx="311.1988" cy="267.0993" r="0.8255" /> 
<path style="fill:#000000; fill-opacity:1.0000; stroke:none;fill-rule:evenodd;"
d="M 312.0243,260.3048
310.3733,260.3048
310.3733,258.6538
312.0243,258.6538
Z" /> 
</g>
<g style="fill:#000000; fill-opacity:1.0000; stroke:none;">
<circle cx="177.8488" cy="305.1993" r="0.8255" /> 
<path style="fill:#000000; fill-opacity:1.0000; stroke:none;fill-rule:evenodd;"
d="M 178.6743,298.4048
177.0233,298.4048
177.0233,296.7538
178.6743,296.7538
Z" /> 
</g>
<g style="fill:#000000; fill-opacity:1.0000; stroke:none;">
<circle cx="230.2363" cy="205.1868" r="0.8255" /> 
<path style="fill:#000000; fill-opacity:1.0000; stroke:none;fill-rule:evenodd;"
d="M 231.0618,198.3923
229.4108,198.3923
229.4108,196.7413
231.0618,196.7413
Z" /> 
</g>
<g style="fill:#000000; fill-opacity:1.0000; stroke:none;">
<circle cx="137.3675" cy="286.1493" r="0.8255" /> 
<path style="fill:#000000; fill-opacity:1.0000; stroke:none;fill-rule:evenodd;"
d="M 138.1930,279.3548
136.5420,279.3548
136.5420,277.7038
138.1930,277.7038
Z" /> 
</g>
<g style="fill:#000000; fill-opacity:1.0000; stroke:none;">
<circle cx="234.9988" cy="267.0993" r="0.8255" /> 
<path style="fill:#000000; fill-opacity:1.0000; stroke:none;fill-rule:evenodd;"
d="M 235.8243,260.3048
234.1733,260.3048
234.1733,258.6538
235.8243,258.6538
Z" /> 
</g>
<g style="fill:#000000; fill-opacity:1.0000; stroke:none;">
<circle cx="410.2588" cy="253.7643" r="0.8255" /> 
<path style="fill:#000000; fill-opacity:1.0000; stroke:none;fill-rule:evenodd;"
d="M 403.4643,252.9388
403.4643,254.5898
401.8133,254.5898
401.8133,252.9388
Z" /> 
</g>
<g style="fill:#000000; fill-opacity:1.0000; stroke:none;">
<circle cx="201.6613" cy="205.1868" r="0.8255" /> 
<path style="fill:#000000; fill-opacity:1.0000; stroke:none;fill-rule:evenodd;"
d="M 202.4868,198.3923
200.8358,198.3923
200.8358,196.7413
202.4868,196.7413
Z" /> 
</g>
<g style="fill:#000000; fill-opacity:1.0000; stroke:none;">
<circle cx="220.7113" cy="228.9993" r="0.8255" /> 
<path style="fill:#000000; fill-opacity:1.0000; stroke:none;fill-rule:evenodd;"
d="M 221.5368,222.2048
219.8858,222.2048
219.8858,220.5538
221.5368,220.5538
Z" /> 
</g>
<g style="fill:#000000; fill-opacity:1.0000; stroke:none;">
<circle cx="249.2863" cy="248.0493" r="0.8255" /> 
<path style="fill:#000000; fill-opacity:1.0000; stroke:none;fill-rule:evenodd;"
d="M 250.1118,241.2548
248.4608,241.2548
248.4608,239.6038
250.1118,239.6038
Z" /> 
</g> 
</svg>
