%TF.GenerationSoftware,KiCad,Pcbnew,9.0.0*%
%TF.CreationDate,2025-06-21T12:03:03-06:00*%
%TF.ProjectId,kbd8x_mkii_kicad_9.0,6b626438-785f-46d6-9b69-695f6b696361,rev?*%
%TF.SameCoordinates,Original*%
%TF.FileFunction,Profile,NP*%
%FSLAX46Y46*%
G04 Gerber Fmt 4.6, Leading zero omitted, Abs format (unit mm)*
G04 Created by KiCad (PCBNEW 9.0.0) date 2025-06-21 12:03:03*
%MOMM*%
%LPD*%
G01*
G04 APERTURE LIST*
%TA.AperFunction,Profile*%
%ADD10C,0.200000*%
%TD*%
%TA.AperFunction,Profile*%
%ADD11C,1.370000*%
%TD*%
%TA.AperFunction,Profile*%
%ADD12C,0.050000*%
%TD*%
G04 APERTURE END LIST*
D10*
X109140500Y59531500D02*
G75*
G02*
X109934250Y60325225I793675J50D01*
G01*
X-171847000Y54769000D02*
G75*
G02*
X-168672000Y57944005I3175005J0D01*
G01*
D11*
X96502500Y-6576250D02*
G75*
G02*
X95132500Y-6576250I-685000J0D01*
G01*
X95132500Y-6576250D02*
G75*
G02*
X96502500Y-6576250I685000J0D01*
G01*
D10*
X-144462625Y15875250D02*
G75*
G02*
X-144462625Y17462650I0J793700D01*
G01*
X171846750Y-54768500D02*
G75*
G02*
X168671750Y-57943525I-3174975J-50D01*
G01*
X109140500Y58737800D02*
G75*
G02*
X108346700Y57944025I-793825J50D01*
G01*
X108346700Y57944000D02*
X-168672000Y57944000D01*
X84611165Y-7722731D02*
G75*
G02*
X85704065Y-5429807I546410J1146481D01*
G01*
X73024900Y17462750D02*
G75*
G02*
X73024900Y15875150I-25J-793800D01*
G01*
X-130175125Y-22224750D02*
X58737400Y-22224750D01*
X88085084Y-6564769D02*
X85704193Y-5429869D01*
X171846750Y-54768500D02*
X171846750Y54786718D01*
D12*
X100006250Y7143750D02*
G75*
G02*
X95256250Y7143750I-2375000J0D01*
G01*
X95256250Y7143750D02*
G75*
G02*
X100006250Y7143750I2375000J0D01*
G01*
D11*
X98883750Y31523750D02*
G75*
G02*
X97513750Y31523750I-685000J0D01*
G01*
X97513750Y31523750D02*
G75*
G02*
X98883750Y31523750I685000J0D01*
G01*
D10*
X-168672000Y-57943500D02*
X168671750Y-57943500D01*
D11*
X92986250Y12473750D02*
G75*
G02*
X91616250Y12473750I-685000J0D01*
G01*
X91616250Y12473750D02*
G75*
G02*
X92986250Y12473750I685000J0D01*
G01*
X103646250Y12473750D02*
G75*
G02*
X102276250Y12473750I-685000J0D01*
G01*
X102276250Y12473750D02*
G75*
G02*
X103646250Y12473750I685000J0D01*
G01*
D10*
X120253000Y57944000D02*
G75*
G02*
X119459225Y58737750I-25J793750D01*
G01*
X168671600Y57944000D02*
G75*
G02*
X171846775Y54786718I75J-3175150D01*
G01*
X58737400Y-20637250D02*
G75*
G02*
X58737400Y-22224850I-25J-793800D01*
G01*
X-171847000Y54769000D02*
X-171847000Y-54768500D01*
X118665500Y60325250D02*
G75*
G02*
X119459275Y59531500I-25J-793800D01*
G01*
X-144462625Y15875250D02*
X73024900Y15875250D01*
X73024900Y17462750D02*
X-144462625Y17462750D01*
D11*
X88223750Y31523750D02*
G75*
G02*
X86853750Y31523750I-685000J0D01*
G01*
X86853750Y31523750D02*
G75*
G02*
X88223750Y31523750I685000J0D01*
G01*
X88223750Y2948750D02*
G75*
G02*
X86853750Y2948750I-685000J0D01*
G01*
X86853750Y2948750D02*
G75*
G02*
X88223750Y2948750I685000J0D01*
G01*
D10*
X-130175125Y-22224750D02*
G75*
G02*
X-130175125Y-20637350I0J793700D01*
G01*
X118665500Y60325250D02*
X109934250Y60325250D01*
X-168672000Y-57943500D02*
G75*
G02*
X-171847075Y-54768500I-25J3175050D01*
G01*
X109140500Y59531500D02*
X109140500Y58737800D01*
X84611165Y-7722731D02*
X86992434Y-8857611D01*
X168671600Y57944000D02*
X120253000Y57944000D01*
X58737400Y-20637250D02*
X-130175125Y-20637250D01*
X88085126Y-6564788D02*
G75*
G02*
X86992303Y-8857550I-546451J-1146362D01*
G01*
X119459250Y58737750D02*
X119459250Y59531500D01*
M02*
