M48
; DRILL file {KiCad 9.0.0} date 2025-06-21T12:03:03-0600
; FORMAT={-:-/ absolute / inch / decimal}
; #@! TF.CreationDate,2025-06-21T12:03:03-06:00
; #@! TF.GenerationSoftware,Kicad,Pcbnew,9.0.0
; #@! TF.FileFunction,Plated,1,2,PTH
FMAT,2
INCH
; #@! TA.AperFunction,Plated,PTH,ViaDrill
T1C0.0118
; #@! TA.AperFunction,Plated,PTH,ComponentDrill
T2C0.0236
; #@! TA.AperFunction,Plated,PTH,ComponentDrill
T3C0.0390
; #@! TA.AperFunction,Plated,PTH,ComponentDrill
T4C0.0394
; #@! TA.AperFunction,Plated,PTH,ComponentDrill
T5C0.0551
%
G90
G05
T1
X4.3468Y1.897
X4.3494Y0.1256
X4.3652Y0.157
X4.3789Y2.082
X4.381Y0.257
X4.3968Y0.8867
X4.4126Y0.917
X4.4349Y2.0401
X4.4418Y2.087
X4.5268Y-0.528
X4.5389Y1.5079
X4.5468Y2.052
X4.5509Y2.0879
X4.5546Y1.537
X4.6268Y-0.903
X4.6331Y2.0607
X4.6635Y1.532
X4.6635Y1.5005
X4.6668Y0.917
X4.6668Y0.8855
X4.6668Y0.277
X4.6687Y0.0859
X4.6868Y-0.563
X4.6868Y-0.783
X4.7065Y0.0815
X4.8268Y-0.503
X5.0068Y-0.823
X5.0241Y-0.6227
X5.0668Y-0.963
X5.1468Y-0.5179
X5.1468Y-0.703
X5.3068Y-0.483
X5.4568Y-0.603
X5.8668Y-0.483
T3
X-6.0938Y2.1187
X-6.0938Y1.8187
X-6.0938Y1.1812
X-6.0938Y0.8812
X-5.9062Y0.4312
X-5.9062Y0.1313
X-5.9062Y-1.8187
X-5.9062Y-2.1187
X-5.8125Y-0.3187
X-5.8125Y-0.6188
X-5.625Y-1.0687
X-5.625Y-1.3687
X-5.3438Y2.1187
X-5.3438Y1.8187
X-5.3438Y1.1812
X-5.3438Y0.8812
X-4.9688Y0.4312
X-4.9688Y0.1313
X-4.9688Y-1.8187
X-4.9688Y-2.1187
X-4.7812Y-0.3187
X-4.7812Y-0.6188
X-4.5938Y2.1187
X-4.5938Y1.8187
X-4.5938Y1.1812
X-4.5938Y0.8812
X-4.4062Y-1.0687
X-4.4062Y-1.3687
X-4.2188Y0.4312
X-4.2188Y0.1313
X-4.0312Y-0.3187
X-4.0312Y-0.6188
X-4.0312Y-1.8187
X-4.0312Y-2.1187
X-3.8438Y2.1187
X-3.8438Y1.8187
X-3.8438Y1.1812
X-3.8438Y0.8812
X-3.6562Y-1.0687
X-3.6562Y-1.3687
X-3.4688Y0.4312
X-3.4688Y0.1313
X-3.2812Y-0.3187
X-3.2812Y-0.6188
X-3.0938Y2.1187
X-3.0938Y1.8187
X-3.0938Y1.1812
X-3.0938Y0.8812
X-2.9062Y-1.0687
X-2.9062Y-1.3687
X-2.7188Y0.4312
X-2.7188Y0.1313
X-2.5312Y-0.3187
X-2.5312Y-0.6188
X-2.3438Y1.1812
X-2.3438Y0.8812
X-2.1562Y-1.0687
X-2.1562Y-1.3687
X-1.9688Y2.1187
X-1.9688Y1.8187
X-1.9688Y0.4312
X-1.9688Y0.1313
X-1.7812Y-0.3187
X-1.7812Y-0.6188
X-1.5938Y1.1812
X-1.5938Y0.8812
X-1.4062Y-1.0687
X-1.4062Y-1.3687
X-1.2188Y2.1187
X-1.2188Y1.8187
X-1.2188Y0.4312
X-1.2188Y0.1313
X-1.0312Y-0.3187
X-1.0312Y-0.6188
X-0.8438Y1.1812
X-0.8438Y0.8812
X-0.8438Y-1.8187
X-0.8438Y-2.1187
X-0.6562Y-1.0687
X-0.6562Y-1.3687
X-0.4688Y2.1187
X-0.4688Y1.8187
X-0.4688Y0.4312
X-0.4688Y0.1313
X-0.2812Y-0.3187
X-0.2812Y-0.6188
X-0.0938Y1.1812
X-0.0938Y0.8812
X0.0938Y-1.0687
X0.0938Y-1.3687
X0.2812Y2.1187
X0.2812Y1.8187
X0.2812Y0.4312
X0.2812Y0.1313
X0.4688Y-0.3187
X0.4688Y-0.6188
X0.6562Y1.1812
X0.6562Y0.8812
X0.8438Y-1.0687
X0.8438Y-1.3687
X1.0312Y0.4312
X1.0312Y0.1313
X1.2188Y-0.3187
X1.2188Y-0.6188
X1.4062Y2.1187
X1.4062Y1.8187
X1.4062Y1.1812
X1.4062Y0.8812
X1.5938Y-1.0687
X1.5938Y-1.3687
X1.7812Y0.4312
X1.7812Y0.1313
X1.9688Y-0.3187
X1.9688Y-0.6188
X2.1562Y2.1187
X2.1562Y1.8187
X2.1562Y1.1812
X2.1562Y0.8812
X2.3438Y-1.0687
X2.3438Y-1.3687
X2.3438Y-1.8187
X2.3438Y-2.1187
X2.5312Y0.4312
X2.5312Y0.1313
X2.7188Y-0.3187
X2.7188Y-0.6188
X2.9062Y2.1187
X2.9062Y1.8187
X2.9062Y1.1812
X2.9062Y0.8812
X3.1313Y1.4062
X3.1875Y-0.3187
X3.1875Y-0.6188
X3.2812Y0.4312
X3.2812Y0.1313
X3.2812Y-1.8187
X3.2812Y-2.1187
X3.4312Y1.4062
X3.6562Y2.1187
X3.6562Y1.8187
X3.75Y-1.0687
X3.75Y-1.3687
X3.8813Y1.4062
X4.1812Y1.4062
X4.2188Y0.4312
X4.2188Y0.1313
X4.2188Y-1.8187
X4.2188Y-2.1187
X4.5938Y-1.8187
X4.5938Y-2.1187
X4.8187Y1.5938
X4.8187Y1.4062
X4.8187Y-0.0938
X5.1187Y1.5938
X5.1187Y1.4062
X5.1187Y-0.0938
X5.3438Y2.1187
X5.3438Y1.8187
X5.3438Y1.1812
X5.3438Y0.8812
X5.3438Y0.4312
X5.3438Y0.1313
X5.3438Y-1.0687
X5.3438Y-1.3687
X5.3438Y-1.8187
X5.3438Y-2.1187
X6.0938Y2.1187
X6.0938Y1.8187
X6.0938Y1.1812
X6.0938Y0.8812
X6.0938Y0.4312
X6.0938Y0.1313
X6.0938Y-1.8187
X6.0938Y-2.1187
T4
X6.2068Y-0.5625
X6.2068Y-0.6625
X6.2068Y-0.7625
X6.3068Y-0.5625
X6.3068Y-0.6625
X6.3068Y-0.7625
T5
X-6.5987Y1.9939
X-6.5987Y1.7688
X-6.5987Y1.0564
X-6.5987Y0.8312
X-6.4112Y0.3064
X-6.4112Y0.0813
X-6.4112Y-1.9436
X-6.4112Y-2.1687
X-6.3388Y1.9939
X-6.3388Y1.7688
X-6.3388Y1.0564
X-6.3388Y0.8312
X-6.3174Y-0.4436
X-6.3174Y-0.6687
X-6.1513Y0.3064
X-6.1513Y0.0813
X-6.1513Y-1.9436
X-6.1513Y-2.1687
X-6.1299Y-1.1936
X-6.1299Y-1.4187
X-6.0576Y-0.4436
X-6.0576Y-0.6687
X-5.8701Y-1.1936
X-5.8701Y-1.4187
X-5.8487Y1.0564
X-5.8487Y0.8312
X-5.5888Y1.0564
X-5.5888Y0.8312
X-5.4737Y0.3064
X-5.4737Y0.0813
X-5.4737Y-1.9436
X-5.4737Y-2.1687
X-5.2862Y-0.4436
X-5.2862Y-0.6687
X-5.2138Y0.3064
X-5.2138Y0.0813
X-5.2138Y-1.9436
X-5.2138Y-2.1687
X-5.0987Y1.9939
X-5.0987Y1.7688
X-5.0987Y1.0564
X-5.0987Y0.8312
X-5.0263Y-0.4436
X-5.0263Y-0.6687
X-4.9112Y-1.1936
X-4.9112Y-1.4187
X-4.8388Y1.9939
X-4.8388Y1.7688
X-4.8388Y1.0564
X-4.8388Y0.8312
X-4.7237Y0.3064
X-4.7237Y0.0813
X-4.6513Y-1.1936
X-4.6513Y-1.4187
X-4.5362Y-0.4436
X-4.5362Y-0.6687
X-4.5362Y-1.9436
X-4.5362Y-2.1687
X-4.4638Y0.3064
X-4.4638Y0.0813
X-4.3487Y1.9939
X-4.3487Y1.7688
X-4.3487Y1.0564
X-4.3487Y0.8312
X-4.2763Y-0.4436
X-4.2763Y-0.6687
X-4.2763Y-1.9436
X-4.2763Y-2.1687
X-4.1612Y-1.1936
X-4.1612Y-1.4187
X-4.0888Y1.9939
X-4.0888Y1.7688
X-4.0888Y1.0564
X-4.0888Y0.8312
X-3.9737Y0.3064
X-3.9737Y0.0813
X-3.9013Y-1.1936
X-3.9013Y-1.4187
X-3.7862Y-0.4436
X-3.7862Y-0.6687
X-3.7138Y0.3064
X-3.7138Y0.0813
X-3.5987Y1.9939
X-3.5987Y1.7688
X-3.5987Y1.0564
X-3.5987Y0.8312
X-3.5263Y-0.4436
X-3.5263Y-0.6687
X-3.4112Y-1.1936
X-3.4112Y-1.4187
X-3.3388Y1.9939
X-3.3388Y1.7688
X-3.3388Y1.0564
X-3.3388Y0.8312
X-3.2237Y0.3064
X-3.2237Y0.0813
X-3.1513Y-1.1936
X-3.1513Y-1.4187
X-3.0362Y-0.4436
X-3.0362Y-0.6687
X-2.9638Y0.3064
X-2.9638Y0.0813
X-2.8487Y1.9939
X-2.8487Y1.7688
X-2.8487Y1.0564
X-2.8487Y0.8312
X-2.7763Y-0.4436
X-2.7763Y-0.6687
X-2.6612Y-1.1936
X-2.6612Y-1.4187
X-2.5888Y1.9939
X-2.5888Y1.7688
X-2.5888Y1.0564
X-2.5888Y0.8312
X-2.4737Y0.3064
X-2.4737Y0.0813
X-2.4013Y-1.1936
X-2.4013Y-1.4187
X-2.2862Y-0.4436
X-2.2862Y-0.6687
X-2.2138Y0.3064
X-2.2138Y0.0813
X-2.0987Y1.0564
X-2.0987Y0.8312
X-2.0263Y-0.4436
X-2.0263Y-0.6687
X-1.9112Y-1.1936
X-1.9112Y-1.4187
X-1.8388Y1.0564
X-1.8388Y0.8312
X-1.7237Y1.9939
X-1.7237Y1.7688
X-1.7237Y0.3064
X-1.7237Y0.0813
X-1.6513Y-1.1936
X-1.6513Y-1.4187
X-1.5362Y-0.4436
X-1.5362Y-0.6687
X-1.4638Y1.9939
X-1.4638Y1.7688
X-1.4638Y0.3064
X-1.4638Y0.0813
X-1.3487Y1.0564
X-1.3487Y0.8312
X-1.3487Y-1.9436
X-1.3487Y-2.1687
X-1.2763Y-0.4436
X-1.2763Y-0.6687
X-1.1612Y-1.1936
X-1.1612Y-1.4187
X-1.0888Y1.0564
X-1.0888Y0.8312
X-1.0888Y-1.9436
X-1.0888Y-2.1687
X-0.9737Y1.9939
X-0.9737Y1.7688
X-0.9737Y0.3064
X-0.9737Y0.0813
X-0.9013Y-1.1936
X-0.9013Y-1.4187
X-0.7862Y-0.4436
X-0.7862Y-0.6687
X-0.7138Y1.9939
X-0.7138Y1.7688
X-0.7138Y0.3064
X-0.7138Y0.0813
X-0.5987Y1.0564
X-0.5987Y0.8312
X-0.5263Y-0.4436
X-0.5263Y-0.6687
X-0.4112Y-1.1936
X-0.4112Y-1.4187
X-0.3388Y1.0564
X-0.3388Y0.8312
X-0.2237Y1.9939
X-0.2237Y1.7688
X-0.2237Y0.3064
X-0.2237Y0.0813
X-0.1513Y-1.1936
X-0.1513Y-1.4187
X-0.0362Y-0.4436
X-0.0362Y-0.6687
X0.0362Y1.9939
X0.0362Y1.7688
X0.0362Y0.3064
X0.0362Y0.0813
X0.1513Y1.0564
X0.1513Y0.8312
X0.2237Y-0.4436
X0.2237Y-0.6687
X0.3388Y-1.1936
X0.3388Y-1.4187
X0.4112Y1.0564
X0.4112Y0.8312
X0.5263Y1.9939
X0.5263Y1.7688
X0.5263Y0.3064
X0.5263Y0.0813
X0.5987Y-1.1936
X0.5987Y-1.4187
X0.7138Y-0.4436
X0.7138Y-0.6687
X0.7862Y1.9939
X0.7862Y1.7688
X0.7862Y0.3064
X0.7862Y0.0813
X0.9013Y1.0564
X0.9013Y0.8312
X0.9737Y-0.4436
X0.9737Y-0.6687
X1.0888Y-1.1936
X1.0888Y-1.4187
X1.1612Y1.0564
X1.1612Y0.8312
X1.2763Y0.3064
X1.2763Y0.0813
X1.3487Y-1.1936
X1.3487Y-1.4187
X1.4638Y-0.4436
X1.4638Y-0.6687
X1.5362Y0.3064
X1.5362Y0.0813
X1.6513Y1.9939
X1.6513Y1.7688
X1.6513Y1.0564
X1.6513Y0.8312
X1.7237Y-0.4436
X1.7237Y-0.6687
X1.8388Y-1.1936
X1.8388Y-1.4187
X1.8388Y-1.9436
X1.8388Y-2.1687
X1.9112Y1.9939
X1.9112Y1.7688
X1.9112Y1.0564
X1.9112Y0.8312
X2.0263Y0.3064
X2.0263Y0.0813
X2.0987Y-1.1936
X2.0987Y-1.4187
X2.0987Y-1.9436
X2.0987Y-2.1687
X2.2138Y-0.4436
X2.2138Y-0.6687
X2.2862Y0.3064
X2.2862Y0.0813
X2.4013Y1.9939
X2.4013Y1.7688
X2.4013Y1.0564
X2.4013Y0.8312
X2.4737Y-0.4436
X2.4737Y-0.6687
X2.6612Y1.9939
X2.6612Y1.7688
X2.6612Y1.0564
X2.6612Y0.8312
X2.7763Y0.3064
X2.7763Y0.0813
X2.7763Y-1.9436
X2.7763Y-2.1687
X3.0362Y0.3064
X3.0362Y0.0813
X3.0362Y-1.9436
X3.0362Y-2.1687
X3.1513Y1.9939
X3.1513Y1.7688
X3.1513Y1.0564
X3.1513Y0.8312
X3.2451Y-1.1936
X3.2451Y-1.4187
X3.4112Y1.9939
X3.4112Y1.7688
X3.4112Y1.0564
X3.4112Y0.8312
X3.4326Y-0.4436
X3.4326Y-0.6687
X3.5049Y-1.1936
X3.5049Y-1.4187
X3.5263Y1.0564
X3.5263Y0.8312
X3.6311Y0.0362
X3.6311Y-0.2237
X3.6924Y-0.4436
X3.6924Y-0.6687
X3.7138Y0.3064
X3.7138Y0.0813
X3.7138Y-1.9436
X3.7138Y-2.1687
X3.7862Y1.0564
X3.7862Y0.8312
X3.8562Y0.0362
X3.8562Y-0.2237
X3.9013Y1.9939
X3.9013Y1.7688
X3.9013Y1.0564
X3.9013Y0.8312
X3.9737Y0.3064
X3.9737Y0.0813
X3.9737Y-1.9436
X3.9737Y-2.1687
X4.1612Y1.9939
X4.1612Y1.7688
X4.1612Y1.0564
X4.1612Y0.8312
X4.8388Y1.9939
X4.8388Y1.7688
X4.8388Y1.0564
X4.8388Y0.8312
X4.8388Y0.3064
X4.8388Y0.0813
X4.8388Y-1.9436
X4.8388Y-2.1687
X5.0987Y1.9939
X5.0987Y1.7688
X5.0987Y1.0564
X5.0987Y0.8312
X5.0987Y0.3064
X5.0987Y0.0813
X5.0987Y-1.9436
X5.0987Y-2.1687
X5.5888Y1.9939
X5.5888Y1.7688
X5.5888Y1.0564
X5.5888Y0.8312
X5.5888Y0.3064
X5.5888Y0.0813
X5.5888Y-1.1936
X5.5888Y-1.4187
X5.5888Y-1.9436
X5.5888Y-2.1687
X5.8487Y1.9939
X5.8487Y1.7688
X5.8487Y1.0564
X5.8487Y0.8312
X5.8487Y0.3064
X5.8487Y0.0813
X5.8487Y-1.1936
X5.8487Y-1.4187
X5.8487Y-1.9436
X5.8487Y-2.1687
X6.3388Y1.9939
X6.3388Y1.7688
X6.3388Y1.0564
X6.3388Y0.8312
X6.3388Y0.3064
X6.3388Y0.0813
X6.3388Y-1.9436
X6.3388Y-2.1687
X6.5987Y1.9939
X6.5987Y1.7688
X6.5987Y1.0564
X6.5987Y0.8312
X6.5987Y0.3064
X6.5987Y0.0813
X6.5987Y-1.9436
X6.5987Y-2.1687
T2
G00X4.3299Y2.3494
M15
G01X4.3299Y2.3258
M16
G05
G00X4.3299Y2.1947
M15
G01X4.3299Y2.1514
M16
G05
G00X4.6701Y2.3494
M15
G01X4.6701Y2.3258
M16
G05
G00X4.6701Y2.1947
M15
G01X4.6701Y2.1514
M16
G05
M30
