%TF.GenerationSoftware,KiCad,Pcbnew,9.0.0*%
%TF.CreationDate,2025-06-21T12:03:03-06:00*%
%TF.ProjectId,kbd8x_mkii_kicad_9.0,6b626438-785f-46d6-9b69-695f6b696361,rev?*%
%TF.SameCoordinates,Original*%
%TF.FileFunction,Soldermask,Bot*%
%TF.FilePolarity,Negative*%
%FSLAX46Y46*%
G04 Gerber Fmt 4.6, Leading zero omitted, Abs format (unit mm)*
G04 Created by KiCad (PCBNEW 9.0.0) date 2025-06-21 12:03:03*
%MOMM*%
%LPD*%
G01*
G04 APERTURE LIST*
G04 Aperture macros list*
%AMRoundRect*
0 Rectangle with rounded corners*
0 $1 Rounding radius*
0 $2 $3 $4 $5 $6 $7 $8 $9 X,Y pos of 4 corners*
0 Add a 4 corners polygon primitive as box body*
4,1,4,$2,$3,$4,$5,$6,$7,$8,$9,$2,$3,0*
0 Add four circle primitives for the rounded corners*
1,1,$1+$1,$2,$3*
1,1,$1+$1,$4,$5*
1,1,$1+$1,$6,$7*
1,1,$1+$1,$8,$9*
0 Add four rect primitives between the rounded corners*
20,1,$1+$1,$2,$3,$4,$5,0*
20,1,$1+$1,$4,$5,$6,$7,0*
20,1,$1+$1,$6,$7,$8,$9,0*
20,1,$1+$1,$8,$9,$2,$3,0*%
%AMRotRect*
0 Rectangle, with rotation*
0 The origin of the aperture is its center*
0 $1 length*
0 $2 width*
0 $3 Rotation angle, in degrees counterclockwise*
0 Add horizontal line*
21,1,$1,$2,0,0,$3*%
G04 Aperture macros list end*
%ADD10C,3.180000*%
%ADD11C,2.500000*%
%ADD12C,1.750000*%
%ADD13C,1.950000*%
%ADD14C,1.651000*%
%ADD15R,1.651000X1.651000*%
%ADD16RoundRect,0.250000X-0.159099X0.512652X-0.512652X0.159099X0.159099X-0.512652X0.512652X-0.159099X0*%
%ADD17RoundRect,0.250000X-0.625000X0.375000X-0.625000X-0.375000X0.625000X-0.375000X0.625000X0.375000X0*%
%ADD18RoundRect,0.250000X-0.475000X0.250000X-0.475000X-0.250000X0.475000X-0.250000X0.475000X0.250000X0*%
%ADD19RoundRect,0.250000X-0.250000X-0.475000X0.250000X-0.475000X0.250000X0.475000X-0.250000X0.475000X0*%
%ADD20RoundRect,0.250000X0.262500X0.450000X-0.262500X0.450000X-0.262500X-0.450000X0.262500X-0.450000X0*%
%ADD21C,1.700000*%
%ADD22R,1.700000X1.700000*%
%ADD23RoundRect,0.250000X-0.450000X0.262500X-0.450000X-0.262500X0.450000X-0.262500X0.450000X0.262500X0*%
%ADD24R,0.550000X1.500000*%
%ADD25R,1.500000X0.550000*%
%ADD26C,0.650000*%
%ADD27R,0.600000X1.450000*%
%ADD28R,0.300000X1.450000*%
%ADD29R,0.700000X1.000000*%
%ADD30R,0.700000X0.600000*%
%ADD31RoundRect,0.250000X0.512652X0.159099X0.159099X0.512652X-0.512652X-0.159099X-0.159099X-0.512652X0*%
%ADD32RotRect,1.400000X1.200000X135.000000*%
%ADD33RoundRect,0.250000X0.250000X0.475000X-0.250000X0.475000X-0.250000X-0.475000X0.250000X-0.475000X0*%
%ADD34R,1.100000X1.800000*%
%ADD35RoundRect,0.250000X-0.262500X-0.450000X0.262500X-0.450000X0.262500X0.450000X-0.262500X0.450000X0*%
G04 APERTURE END LIST*
D10*
%TO.C,SI_RCTRL1*%
X94331250Y-49366250D03*
X94331250Y-55086250D03*
X100931250Y-49366250D03*
X100931250Y-55086250D03*
%TD*%
%TO.C,SI_RGUI1*%
X70518750Y-49366250D03*
X70518750Y-55086250D03*
X77118750Y-49366250D03*
X77118750Y-55086250D03*
%TD*%
%TO.C,SI_LSHIFT1*%
X-155700000Y-30316250D03*
X-155700000Y-36036250D03*
X-149100000Y-30316250D03*
X-149100000Y-36036250D03*
%TD*%
%TO.C,SI_UP1*%
X141956250Y-30316250D03*
X141956250Y-36036250D03*
X148556250Y-30316250D03*
X148556250Y-36036250D03*
%TD*%
%TO.C,SI_FN1*%
X-129506250Y50646250D03*
X-129506250Y44926250D03*
X-122906250Y50646250D03*
X-122906250Y44926250D03*
%TD*%
%TO.C,SI_LGUI1*%
X-139031250Y-49366250D03*
X-139031250Y-55086250D03*
X-132431250Y-49366250D03*
X-132431250Y-55086250D03*
%TD*%
%TO.C,SI_M1*%
X-10443750Y-30316250D03*
X-10443750Y-36036250D03*
X-3843750Y-30316250D03*
X-3843750Y-36036250D03*
%TD*%
%TO.C,SI_FN8*%
X13368750Y50646250D03*
X13368750Y44926250D03*
X19968750Y50646250D03*
X19968750Y44926250D03*
%TD*%
%TO.C,SI_FN2*%
X-110456250Y50646250D03*
X-110456250Y44926250D03*
X-103856250Y50646250D03*
X-103856250Y44926250D03*
%TD*%
D11*
%TO.C,SI_BACK1*%
X99093750Y26833750D03*
X99093750Y21113750D03*
D10*
X105693750Y26833750D03*
X105693750Y21113750D03*
%TD*%
%TO.C,SI_RET1*%
X92228750Y-5681250D03*
D12*
X97948750Y-5681250D03*
D13*
X92228750Y918750D03*
X97948750Y918750D03*
%TD*%
D10*
%TO.C,SI_FN3*%
X-91406250Y50646250D03*
X-91406250Y44926250D03*
X-84806250Y50646250D03*
X-84806250Y44926250D03*
%TD*%
%TO.C,SI_DN1*%
X141956250Y-49366250D03*
X141956250Y-55086250D03*
X148556250Y-49366250D03*
X148556250Y-55086250D03*
%TD*%
%TO.C,SI_O1*%
X13368750Y7783750D03*
X13368750Y2063750D03*
X19968750Y7783750D03*
X19968750Y2063750D03*
%TD*%
%TO.C,SI_ESC1*%
X-167606250Y50646250D03*
X-167606250Y44926250D03*
X-161006250Y50646250D03*
X-161006250Y44926250D03*
%TD*%
%TO.C,SI_#7*%
X-34256250Y26833750D03*
X-34256250Y21113750D03*
X-27656250Y26833750D03*
X-27656250Y21113750D03*
%TD*%
%TO.C,SI_Y1*%
X-43781250Y7783750D03*
X-43781250Y2063750D03*
X-37181250Y7783750D03*
X-37181250Y2063750D03*
%TD*%
%TO.C,SI_/1*%
X46706250Y-30316250D03*
X46706250Y-36036250D03*
X53306250Y-30316250D03*
X53306250Y-36036250D03*
%TD*%
%TO.C,SI_T1*%
X-62831250Y7783750D03*
X-62831250Y2063750D03*
X-56231250Y7783750D03*
X-56231250Y2063750D03*
%TD*%
%TO.C,SI_INS1*%
X122906250Y26833750D03*
X122906250Y21113750D03*
X129506250Y26833750D03*
X129506250Y21113750D03*
%TD*%
%TO.C,SI_#6*%
X-53306250Y26833750D03*
X-53306250Y21113750D03*
X-46706250Y26833750D03*
X-46706250Y21113750D03*
%TD*%
%TO.C,SI_W1*%
X-119981250Y7783750D03*
X-119981250Y2063750D03*
X-113381250Y7783750D03*
X-113381250Y2063750D03*
%TD*%
%TO.C,SI_PGUP1*%
X161006250Y26833750D03*
X161006250Y21113750D03*
X167606250Y26833750D03*
X167606250Y21113750D03*
%TD*%
%TO.C,SI_DEL1*%
X122906250Y7783750D03*
X122906250Y2063750D03*
X129506250Y7783750D03*
X129506250Y2063750D03*
%TD*%
%TO.C,SI_PRINT1*%
X122906250Y50646250D03*
X122906250Y44926250D03*
X129506250Y50646250D03*
X129506250Y44926250D03*
%TD*%
%TO.C,SI_CLOCK1*%
X-160462500Y-11266250D03*
X-160462500Y-16986250D03*
X-153862500Y-11266250D03*
X-153862500Y-16986250D03*
%TD*%
%TO.C,SI_FN6*%
X-24731250Y50646250D03*
X-24731250Y44926250D03*
X-18131250Y50646250D03*
X-18131250Y44926250D03*
%TD*%
%TO.C,SI_PAUSE1*%
X161006250Y50646250D03*
X161006250Y44926250D03*
X167606250Y50646250D03*
X167606250Y44926250D03*
%TD*%
%TO.C,SI_A1*%
X-134268750Y-11266250D03*
X-134268750Y-16986250D03*
X-127668750Y-11266250D03*
X-127668750Y-16986250D03*
%TD*%
%TO.C,SI_SLOCK1*%
X141956250Y50646250D03*
X141956250Y44926250D03*
X148556250Y50646250D03*
X148556250Y44926250D03*
%TD*%
%TO.C,SI_END1*%
X141956250Y7783750D03*
X141956250Y2063750D03*
X148556250Y7783750D03*
X148556250Y2063750D03*
%TD*%
%TO.C,SI_P1*%
X32418750Y7783750D03*
X32418750Y2063750D03*
X39018750Y7783750D03*
X39018750Y2063750D03*
%TD*%
%TO.C,SI_C1*%
X-86643750Y-30316250D03*
X-86643750Y-36036250D03*
X-80043750Y-30316250D03*
X-80043750Y-36036250D03*
%TD*%
%TO.C,SI_R1*%
X-81881250Y7783750D03*
X-81881250Y2063750D03*
X-75281250Y7783750D03*
X-75281250Y2063750D03*
%TD*%
%TO.C,SI_LFT1*%
X122906250Y-49366250D03*
X122906250Y-55086250D03*
X129506250Y-49366250D03*
X129506250Y-55086250D03*
%TD*%
%TO.C,SI_I1*%
X-5681250Y7783750D03*
X-5681250Y2063750D03*
X918750Y7783750D03*
X918750Y2063750D03*
%TD*%
%TO.C,SI_J1*%
X-19968750Y-11266250D03*
X-19968750Y-16986250D03*
X-13368750Y-11266250D03*
X-13368750Y-16986250D03*
%TD*%
%TO.C,SI_LCTRL1*%
X-162843750Y-49366250D03*
X-162843750Y-55086250D03*
X-156243750Y-49366250D03*
X-156243750Y-55086250D03*
%TD*%
%TO.C,SI_X1*%
X-105693750Y-30316250D03*
X-105693750Y-36036250D03*
X-99093750Y-30316250D03*
X-99093750Y-36036250D03*
%TD*%
%TO.C,SI_\u002C1*%
X8606250Y-30316250D03*
X8606250Y-36036250D03*
X15206250Y-30316250D03*
X15206250Y-36036250D03*
%TD*%
%TO.C,SI_RT1*%
X161006250Y-49366250D03*
X161006250Y-55086250D03*
X167606250Y-49366250D03*
X167606250Y-55086250D03*
%TD*%
%TO.C,SI_SP1*%
X-34256250Y-49366250D03*
X-34256250Y-55086250D03*
X-27656250Y-49366250D03*
X-27656250Y-55086250D03*
%TD*%
%TO.C,SI_N1*%
X-29493750Y-30316250D03*
X-29493750Y-36036250D03*
X-22893750Y-30316250D03*
X-22893750Y-36036250D03*
%TD*%
%TO.C,SI_#8*%
X-15206250Y26833750D03*
X-15206250Y21113750D03*
X-8606250Y26833750D03*
X-8606250Y21113750D03*
%TD*%
%TO.C,SI_-1*%
X41943750Y26833750D03*
X41943750Y21113750D03*
X48543750Y26833750D03*
X48543750Y21113750D03*
%TD*%
%TO.C,SI_.1*%
X27656250Y-30316250D03*
X27656250Y-36036250D03*
X34256250Y-30316250D03*
X34256250Y-36036250D03*
%TD*%
%TO.C,SI_Q1*%
X-139031250Y7783750D03*
X-139031250Y2063750D03*
X-132431250Y7783750D03*
X-132431250Y2063750D03*
%TD*%
%TO.C,SI_LALT1*%
X-115218750Y-49366250D03*
X-115218750Y-55086250D03*
X-108618750Y-49366250D03*
X-108618750Y-55086250D03*
%TD*%
%TO.C,SI_FN12*%
X99093750Y50646250D03*
X99093750Y44926250D03*
X105693750Y50646250D03*
X105693750Y44926250D03*
%TD*%
%TO.C,SI_H1*%
X-39018750Y-11266250D03*
X-39018750Y-16986250D03*
X-32418750Y-11266250D03*
X-32418750Y-16986250D03*
%TD*%
%TO.C,SI_FN9*%
X41943750Y50646250D03*
X41943750Y44926250D03*
X48543750Y50646250D03*
X48543750Y44926250D03*
%TD*%
%TO.C,SI_S1*%
X-115218750Y-11266250D03*
X-115218750Y-16986250D03*
X-108618750Y-11266250D03*
X-108618750Y-16986250D03*
%TD*%
%TO.C,SI_\u005C1*%
X80043750Y26833750D03*
X80043750Y21113750D03*
D11*
X86643750Y26833750D03*
X86643750Y21113750D03*
%TD*%
D10*
%TO.C,SI_PGDN1*%
X161006250Y7783750D03*
X161006250Y2063750D03*
X167606250Y7783750D03*
X167606250Y2063750D03*
%TD*%
%TO.C,SI_RSHIFT1*%
X82425000Y-30316250D03*
X82425000Y-36036250D03*
X89025000Y-30316250D03*
X89025000Y-36036250D03*
%TD*%
%TO.C,SI_`1*%
X-167606250Y26833750D03*
X-167606250Y21113750D03*
X-161006250Y26833750D03*
X-161006250Y21113750D03*
%TD*%
%TO.C,SI_#3*%
X-110456250Y26833750D03*
X-110456250Y21113750D03*
X-103856250Y26833750D03*
X-103856250Y21113750D03*
%TD*%
%TO.C,SI_F1*%
X-77118750Y-11266250D03*
X-77118750Y-16986250D03*
X-70518750Y-11266250D03*
X-70518750Y-16986250D03*
%TD*%
%TO.C,SI_;1*%
X37181250Y-11266250D03*
X37181250Y-16986250D03*
X43781250Y-11266250D03*
X43781250Y-16986250D03*
%TD*%
%TO.C,SI_U1*%
X-24731250Y7783750D03*
X-24731250Y2063750D03*
X-18131250Y7783750D03*
X-18131250Y2063750D03*
%TD*%
%TO.C,SI_'1*%
X56231250Y-11266250D03*
X56231250Y-16986250D03*
X62831250Y-11266250D03*
X62831250Y-16986250D03*
%TD*%
%TO.C,SI_#9*%
X3843750Y26833750D03*
X3843750Y21113750D03*
X10443750Y26833750D03*
X10443750Y21113750D03*
%TD*%
%TO.C,SI_]1*%
X70518750Y7783750D03*
X70518750Y2063750D03*
X77118750Y7783750D03*
X77118750Y2063750D03*
%TD*%
%TO.C,SI_TAB1*%
X-162843750Y7783750D03*
X-162843750Y2063750D03*
X-156243750Y7783750D03*
X-156243750Y2063750D03*
%TD*%
D11*
%TO.C,SI_BACK2*%
X89568750Y26833750D03*
X89568750Y21113750D03*
X96168750Y26833750D03*
X96168750Y21113750D03*
%TD*%
D10*
%TO.C,SI_#4*%
X-91406250Y26833750D03*
X-91406250Y21113750D03*
X-84806250Y26833750D03*
X-84806250Y21113750D03*
%TD*%
%TO.C,SI_FN4*%
X-72356250Y50646250D03*
X-72356250Y44926250D03*
X-65756250Y50646250D03*
X-65756250Y44926250D03*
%TD*%
%TO.C,SI_Z1*%
X-124743750Y-30316250D03*
X-124743750Y-36036250D03*
X-118143750Y-30316250D03*
X-118143750Y-36036250D03*
%TD*%
D13*
%TO.C,SI_\u005C2*%
X94331250Y7783750D03*
X94331250Y2063750D03*
X100931250Y7783750D03*
X100931250Y2063750D03*
%TD*%
D10*
%TO.C,SI_D1*%
X-96168750Y-11266250D03*
X-96168750Y-16986250D03*
X-89568750Y-11266250D03*
X-89568750Y-16986250D03*
%TD*%
%TO.C,SI_V1*%
X-67593750Y-30316250D03*
X-67593750Y-36036250D03*
X-60993750Y-30316250D03*
X-60993750Y-36036250D03*
%TD*%
%TO.C,SI_#5*%
X-72356250Y26833750D03*
X-72356250Y21113750D03*
X-65756250Y26833750D03*
X-65756250Y21113750D03*
%TD*%
%TO.C,SI_RALT1*%
X46706250Y-49366250D03*
X46706250Y-55086250D03*
X53306250Y-49366250D03*
X53306250Y-55086250D03*
%TD*%
%TO.C,SI_RET2*%
X87187500Y-11266250D03*
X87187500Y-16986250D03*
X93787500Y-11266250D03*
X93787500Y-16986250D03*
%TD*%
%TO.C,SI_E1*%
X-100931250Y7783750D03*
X-100931250Y2063750D03*
X-94331250Y7783750D03*
X-94331250Y2063750D03*
%TD*%
%TO.C,SI_FN5*%
X-43781250Y50646250D03*
X-43781250Y44926250D03*
X-37181250Y50646250D03*
X-37181250Y44926250D03*
%TD*%
%TO.C,SI_#1*%
X-148556250Y26833750D03*
X-148556250Y21113750D03*
X-141956250Y26833750D03*
X-141956250Y21113750D03*
%TD*%
%TO.C,SI_B1*%
X-48543750Y-30316250D03*
X-48543750Y-36036250D03*
X-41943750Y-30316250D03*
X-41943750Y-36036250D03*
%TD*%
%TO.C,SI_HOME1*%
X141956250Y26833750D03*
X141956250Y21113750D03*
X148556250Y26833750D03*
X148556250Y21113750D03*
%TD*%
%TO.C,SI_=1*%
X60993750Y26833750D03*
X60993750Y21113750D03*
X67593750Y26833750D03*
X67593750Y21113750D03*
%TD*%
%TO.C,SI_[1*%
X51468750Y7783750D03*
X51468750Y2063750D03*
X58068750Y7783750D03*
X58068750Y2063750D03*
%TD*%
%TO.C,SI_#2*%
X-129506250Y26833750D03*
X-129506250Y21113750D03*
X-122906250Y26833750D03*
X-122906250Y21113750D03*
%TD*%
%TO.C,SI_FN10*%
X60993750Y50646250D03*
X60993750Y44926250D03*
X67593750Y50646250D03*
X67593750Y44926250D03*
%TD*%
%TO.C,SI_L1*%
X18131250Y-11266250D03*
X18131250Y-16986250D03*
X24731250Y-11266250D03*
X24731250Y-16986250D03*
%TD*%
%TO.C,SI_K1*%
X-918750Y-11266250D03*
X-918750Y-16986250D03*
X5681250Y-11266250D03*
X5681250Y-16986250D03*
%TD*%
%TO.C,SI_G1*%
X-58068750Y-11266250D03*
X-58068750Y-16986250D03*
X-51468750Y-11266250D03*
X-51468750Y-16986250D03*
%TD*%
%TO.C,SI_#0*%
X22893750Y26833750D03*
X22893750Y21113750D03*
X29493750Y26833750D03*
X29493750Y21113750D03*
%TD*%
%TO.C,SI_FN7*%
X-5681250Y50646250D03*
X-5681250Y44926250D03*
X918750Y50646250D03*
X918750Y44926250D03*
%TD*%
%TO.C,SI_FN11*%
X80043750Y50646250D03*
X80043750Y44926250D03*
X86643750Y50646250D03*
X86643750Y44926250D03*
%TD*%
D14*
%TO.C,D65*%
X154781250Y46196250D03*
D15*
X154781250Y53816250D03*
%TD*%
D14*
%TO.C,D21*%
X-21431250Y22383750D03*
D15*
X-21431250Y30003750D03*
%TD*%
D14*
%TO.C,D82*%
X-35718750Y-34766250D03*
D15*
X-35718750Y-27146250D03*
%TD*%
D16*
%TO.C,C6*%
X137878226Y-19217199D03*
X136534724Y-20560701D03*
%TD*%
D14*
%TO.C,D15*%
X-135731250Y22383750D03*
D15*
X-135731250Y30003750D03*
%TD*%
D14*
%TO.C,D73*%
X116681250Y-53816250D03*
D15*
X116681250Y-46196250D03*
%TD*%
D14*
%TO.C,D16*%
X-116681250Y22383750D03*
D15*
X-116681250Y30003750D03*
%TD*%
D17*
%TO.C,F1*%
X112441475Y46408050D03*
X112441475Y43608050D03*
%TD*%
D14*
%TO.C,D8*%
X-11906250Y46196250D03*
D15*
X-11906250Y53816250D03*
%TD*%
D14*
%TO.C,D86*%
X40481250Y-34766250D03*
D15*
X40481250Y-27146250D03*
%TD*%
D18*
%TO.C,C3*%
X115362475Y-21732950D03*
X115362475Y-23632950D03*
%TD*%
D14*
%TO.C,D23*%
X16668750Y22383750D03*
D15*
X16668750Y30003750D03*
%TD*%
D14*
%TO.C,D27*%
X87153750Y35718750D03*
D15*
X79533750Y35718750D03*
%TD*%
D14*
%TO.C,D56*%
X-150018750Y-53816250D03*
D15*
X-150018750Y-46196250D03*
%TD*%
D19*
%TO.C,C5*%
X131557475Y-11874950D03*
X133457475Y-11874950D03*
%TD*%
D14*
%TO.C,D17*%
X-97631250Y22383750D03*
D15*
X-97631250Y30003750D03*
%TD*%
D14*
%TO.C,D31*%
X-107156250Y3333750D03*
D15*
X-107156250Y10953750D03*
%TD*%
D14*
%TO.C,D75*%
X154781250Y-53816250D03*
D15*
X154781250Y-46196250D03*
%TD*%
D14*
%TO.C,D4*%
X-97631250Y46196250D03*
D15*
X-97631250Y53816250D03*
%TD*%
D14*
%TO.C,D60*%
X59531250Y-53816250D03*
D15*
X59531250Y-46196250D03*
%TD*%
D14*
%TO.C,D38*%
X26193750Y3333750D03*
D15*
X26193750Y10953750D03*
%TD*%
D14*
%TO.C,D51*%
X11906250Y-15716250D03*
D15*
X11906250Y-8096250D03*
%TD*%
D14*
%TO.C,D40*%
X64293750Y3333750D03*
D15*
X64293750Y10953750D03*
%TD*%
D14*
%TO.C,D83*%
X-16668750Y-34766250D03*
D15*
X-16668750Y-27146250D03*
%TD*%
D14*
%TO.C,D13*%
X92868750Y46196250D03*
D15*
X92868750Y53816250D03*
%TD*%
D20*
%TO.C,R1*%
X116274975Y-25463950D03*
X114449975Y-25463950D03*
%TD*%
D14*
%TO.C,D62*%
X107156250Y-53816250D03*
D15*
X107156250Y-46196250D03*
%TD*%
D14*
%TO.C,D37*%
X7143750Y3333750D03*
D15*
X7143750Y10953750D03*
%TD*%
D14*
%TO.C,D42*%
X80962500Y-15716250D03*
D15*
X80962500Y-8096250D03*
%TD*%
D14*
%TO.C,D63*%
X130016250Y40481250D03*
D15*
X122396250Y40481250D03*
%TD*%
D14*
%TO.C,D53*%
X50006250Y-15716250D03*
D15*
X50006250Y-8096250D03*
%TD*%
D14*
%TO.C,D25*%
X54768750Y22383750D03*
D15*
X54768750Y30003750D03*
%TD*%
D21*
%TO.C,J1*%
X160193475Y-14287950D03*
X157653475Y-14287950D03*
X160193475Y-16827950D03*
X157653475Y-16827950D03*
X160193475Y-19367950D03*
D22*
X157653475Y-19367950D03*
%TD*%
D14*
%TO.C,D3*%
X-116681250Y46196250D03*
D15*
X-116681250Y53816250D03*
%TD*%
D14*
%TO.C,D84*%
X2381250Y-34766250D03*
D15*
X2381250Y-27146250D03*
%TD*%
D23*
%TO.C,R2*%
X120036075Y-7050850D03*
X120036075Y-8875850D03*
%TD*%
D14*
%TO.C,D44*%
X-121443750Y-15716250D03*
D15*
X-121443750Y-8096250D03*
%TD*%
D14*
%TO.C,D34*%
X-50006250Y3333750D03*
D15*
X-50006250Y10953750D03*
%TD*%
D24*
%TO.C,U1*%
X119158250Y-11254950D03*
X119958250Y-11254950D03*
X120758250Y-11254950D03*
X121558250Y-11254950D03*
X122358250Y-11254950D03*
X123158250Y-11254950D03*
X123958250Y-11254950D03*
X124758250Y-11254950D03*
X125558250Y-11254950D03*
X126358250Y-11254950D03*
X127158250Y-11254950D03*
D25*
X128858250Y-12954950D03*
X128858250Y-13754950D03*
X128858250Y-14554950D03*
X128858250Y-15354950D03*
X128858250Y-16154950D03*
X128858250Y-16954950D03*
X128858250Y-17754950D03*
X128858250Y-18554950D03*
X128858250Y-19354950D03*
X128858250Y-20154950D03*
X128858250Y-20954950D03*
D24*
X127158250Y-22654950D03*
X126358250Y-22654950D03*
X125558250Y-22654950D03*
X124758250Y-22654950D03*
X123958250Y-22654950D03*
X123158250Y-22654950D03*
X122358250Y-22654950D03*
X121558250Y-22654950D03*
X120758250Y-22654950D03*
X119958250Y-22654950D03*
X119158250Y-22654950D03*
D25*
X117458250Y-20954950D03*
X117458250Y-20154950D03*
X117458250Y-19354950D03*
X117458250Y-18554950D03*
X117458250Y-17754950D03*
X117458250Y-16954950D03*
X117458250Y-16154950D03*
X117458250Y-15354950D03*
X117458250Y-14554950D03*
X117458250Y-13754950D03*
X117458250Y-12954950D03*
%TD*%
D26*
%TO.C,USB1*%
X111409875Y55725250D03*
X117189875Y55725250D03*
D27*
X111074875Y54280250D03*
X111849875Y54280250D03*
D28*
X112549875Y54280250D03*
X113049875Y54280250D03*
X113549875Y54280250D03*
X114049875Y54280250D03*
X114549875Y54280250D03*
X115049875Y54280250D03*
X115549875Y54280250D03*
X116049875Y54280250D03*
D27*
X116749875Y54280250D03*
X117524875Y54280250D03*
%TD*%
D14*
%TO.C,D71*%
X154781250Y3333750D03*
D15*
X154781250Y10953750D03*
%TD*%
D14*
%TO.C,D87*%
X59531250Y-34766250D03*
D15*
X59531250Y-27146250D03*
%TD*%
D14*
%TO.C,D89*%
X95250000Y-34766250D03*
D15*
X95250000Y-27146250D03*
%TD*%
D14*
%TO.C,D29*%
X-150018750Y3333750D03*
D15*
X-150018750Y10953750D03*
%TD*%
D14*
%TO.C,D49*%
X-26193750Y-15716250D03*
D15*
X-26193750Y-8096250D03*
%TD*%
D14*
%TO.C,D20*%
X-40481250Y22383750D03*
D15*
X-40481250Y30003750D03*
%TD*%
D14*
%TO.C,D32*%
X-88106250Y3333750D03*
D15*
X-88106250Y10953750D03*
%TD*%
D14*
%TO.C,D39*%
X45243750Y3333750D03*
D15*
X45243750Y10953750D03*
%TD*%
D14*
%TO.C,D26*%
X73818750Y22383750D03*
D15*
X73818750Y30003750D03*
%TD*%
D29*
%TO.C,U2*%
X115299875Y50965050D03*
D30*
X115299875Y49265050D03*
X113299875Y49265050D03*
X113299875Y51165050D03*
%TD*%
D14*
%TO.C,D14*%
X-154781250Y22383750D03*
D15*
X-154781250Y30003750D03*
%TD*%
D31*
%TO.C,C7*%
X137370226Y-14718701D03*
X136026724Y-13375199D03*
%TD*%
D14*
%TO.C,D67*%
X135731250Y22383750D03*
D15*
X135731250Y30003750D03*
%TD*%
D14*
%TO.C,D30*%
X-126206250Y3333750D03*
D15*
X-126206250Y10953750D03*
%TD*%
D23*
%TO.C,R5*%
X117648475Y51127550D03*
X117648475Y49302550D03*
%TD*%
D14*
%TO.C,D41*%
X83343750Y3333750D03*
D15*
X83343750Y10953750D03*
%TD*%
D14*
%TO.C,D43*%
X-147637500Y-15716250D03*
D15*
X-147637500Y-8096250D03*
%TD*%
D14*
%TO.C,D78*%
X-111918750Y-34766250D03*
D15*
X-111918750Y-27146250D03*
%TD*%
D14*
%TO.C,D12*%
X73818750Y46196250D03*
D15*
X73818750Y53816250D03*
%TD*%
D18*
%TO.C,C2*%
X115362475Y-12461950D03*
X115362475Y-14361950D03*
%TD*%
D14*
%TO.C,D7*%
X-30956250Y46196250D03*
D15*
X-30956250Y53816250D03*
%TD*%
D14*
%TO.C,D2*%
X-135731250Y46196250D03*
D15*
X-135731250Y53816250D03*
%TD*%
D14*
%TO.C,D50*%
X-7143750Y-15716250D03*
D15*
X-7143750Y-8096250D03*
%TD*%
D14*
%TO.C,D9*%
X7143750Y46196250D03*
D15*
X7143750Y53816250D03*
%TD*%
D14*
%TO.C,D1*%
X-154781250Y46196250D03*
D15*
X-154781250Y53816250D03*
%TD*%
D14*
%TO.C,D54*%
X69056250Y-15716250D03*
D15*
X69056250Y-8096250D03*
%TD*%
D14*
%TO.C,D47*%
X-64293750Y-15716250D03*
D15*
X-64293750Y-8096250D03*
%TD*%
D14*
%TO.C,D24*%
X35718750Y22383750D03*
D15*
X35718750Y30003750D03*
%TD*%
D14*
%TO.C,D74*%
X135731250Y-53816250D03*
D15*
X135731250Y-46196250D03*
%TD*%
D14*
%TO.C,D68*%
X154781250Y22383750D03*
D15*
X154781250Y30003750D03*
%TD*%
D14*
%TO.C,D11*%
X54768750Y46196250D03*
D15*
X54768750Y53816250D03*
%TD*%
D14*
%TO.C,D46*%
X-83343750Y-15716250D03*
D15*
X-83343750Y-8096250D03*
%TD*%
D32*
%TO.C,Y1*%
X134462252Y-18333808D03*
X132906617Y-16778173D03*
X134108698Y-15576092D03*
X135664333Y-17131727D03*
%TD*%
D14*
%TO.C,D10*%
X35718750Y46196250D03*
D15*
X35718750Y53816250D03*
%TD*%
D14*
%TO.C,D28*%
X106203750Y35718750D03*
D15*
X98583750Y35718750D03*
%TD*%
D14*
%TO.C,D55*%
X107156250Y3333750D03*
D15*
X107156250Y10953750D03*
%TD*%
D14*
%TO.C,D61*%
X83343750Y-53816250D03*
D15*
X83343750Y-46196250D03*
%TD*%
D19*
%TO.C,C4*%
X125852675Y-25400750D03*
X127752675Y-25400750D03*
%TD*%
D14*
%TO.C,D33*%
X-69056250Y3333750D03*
D15*
X-69056250Y10953750D03*
%TD*%
D33*
%TO.C,C1*%
X123744475Y-7937950D03*
X121844475Y-7937950D03*
%TD*%
D14*
%TO.C,D80*%
X-73818750Y-34766250D03*
D15*
X-73818750Y-27146250D03*
%TD*%
D14*
%TO.C,D22*%
X-2381250Y22383750D03*
D15*
X-2381250Y30003750D03*
%TD*%
D14*
%TO.C,D36*%
X-11906250Y3333750D03*
D15*
X-11906250Y10953750D03*
%TD*%
D14*
%TO.C,D18*%
X-78581250Y22383750D03*
D15*
X-78581250Y30003750D03*
%TD*%
D14*
%TO.C,D64*%
X135731250Y46196250D03*
D15*
X135731250Y53816250D03*
%TD*%
D14*
%TO.C,D72*%
X135731250Y-34766250D03*
D15*
X135731250Y-27146250D03*
%TD*%
D14*
%TO.C,D59*%
X-21431250Y-53816250D03*
D15*
X-21431250Y-46196250D03*
%TD*%
D34*
%TO.C,SW1*%
X150105475Y-19927950D03*
X150105475Y-13727950D03*
X146405475Y-19927950D03*
X146405475Y-13727950D03*
%TD*%
D35*
%TO.C,R6*%
X147342975Y-10223950D03*
X149167975Y-10223950D03*
%TD*%
D14*
%TO.C,D70*%
X135731250Y3333750D03*
D15*
X135731250Y10953750D03*
%TD*%
D14*
%TO.C,D79*%
X-92868750Y-34766250D03*
D15*
X-92868750Y-27146250D03*
%TD*%
D14*
%TO.C,D85*%
X21431250Y-34766250D03*
D15*
X21431250Y-27146250D03*
%TD*%
D14*
%TO.C,D57*%
X-126206250Y-53816250D03*
D15*
X-126206250Y-46196250D03*
%TD*%
D14*
%TO.C,D81*%
X-54768750Y-34766250D03*
D15*
X-54768750Y-27146250D03*
%TD*%
D14*
%TO.C,D45*%
X-102393750Y-15716250D03*
D15*
X-102393750Y-8096250D03*
%TD*%
D14*
%TO.C,D66*%
X130016250Y35718750D03*
D15*
X122396250Y35718750D03*
%TD*%
D14*
%TO.C,D52*%
X30956250Y-15716250D03*
D15*
X30956250Y-8096250D03*
%TD*%
D14*
%TO.C,D58*%
X-102393750Y-53816250D03*
D15*
X-102393750Y-46196250D03*
%TD*%
D14*
%TO.C,D6*%
X-50006250Y46196250D03*
D15*
X-50006250Y53816250D03*
%TD*%
D14*
%TO.C,D77*%
X-142875000Y-34766250D03*
D15*
X-142875000Y-27146250D03*
%TD*%
D23*
%TO.C,R3*%
X117902475Y-7048950D03*
X117902475Y-8873950D03*
%TD*%
D14*
%TO.C,D48*%
X-45243750Y-15716250D03*
D15*
X-45243750Y-8096250D03*
%TD*%
D14*
%TO.C,D69*%
X130016250Y-2381250D03*
D15*
X122396250Y-2381250D03*
%TD*%
D14*
%TO.C,D5*%
X-78581250Y46196250D03*
D15*
X-78581250Y53816250D03*
%TD*%
D23*
%TO.C,R4*%
X111171475Y51127550D03*
X111171475Y49302550D03*
%TD*%
D14*
%TO.C,D19*%
X-59531250Y22383750D03*
D15*
X-59531250Y30003750D03*
%TD*%
D14*
%TO.C,D35*%
X-30956250Y3333750D03*
D15*
X-30956250Y10953750D03*
%TD*%
M02*
