%TF.GenerationSoftware,KiCad,Pcbnew,9.0.0*%
%TF.CreationDate,2025-06-21T12:03:02-06:00*%
%TF.ProjectId,kbd8x_mkii_kicad_9.0,6b626438-785f-46d6-9b69-695f6b696361,rev?*%
%TF.SameCoordinates,Original*%
%TF.FileFunction,Soldermask,Top*%
%TF.FilePolarity,Negative*%
%FSLAX46Y46*%
G04 Gerber Fmt 4.6, Leading zero omitted, Abs format (unit mm)*
G04 Created by KiCad (PCBNEW 9.0.0) date 2025-06-21 12:03:02*
%MOMM*%
%LPD*%
G01*
G04 APERTURE LIST*
%ADD10C,1.651000*%
%ADD11R,1.651000X1.651000*%
%ADD12O,1.000000X1.600000*%
%ADD13O,1.000000X2.100000*%
G04 APERTURE END LIST*
D10*
%TO.C,D65*%
X154781250Y46196250D03*
D11*
X154781250Y53816250D03*
%TD*%
D10*
%TO.C,D21*%
X-21431250Y22383750D03*
D11*
X-21431250Y30003750D03*
%TD*%
D10*
%TO.C,D82*%
X-35718750Y-34766250D03*
D11*
X-35718750Y-27146250D03*
%TD*%
D10*
%TO.C,D15*%
X-135731250Y22383750D03*
D11*
X-135731250Y30003750D03*
%TD*%
D10*
%TO.C,D73*%
X116681250Y-53816250D03*
D11*
X116681250Y-46196250D03*
%TD*%
D10*
%TO.C,D16*%
X-116681250Y22383750D03*
D11*
X-116681250Y30003750D03*
%TD*%
D10*
%TO.C,D8*%
X-11906250Y46196250D03*
D11*
X-11906250Y53816250D03*
%TD*%
D10*
%TO.C,D86*%
X40481250Y-34766250D03*
D11*
X40481250Y-27146250D03*
%TD*%
D10*
%TO.C,D23*%
X16668750Y22383750D03*
D11*
X16668750Y30003750D03*
%TD*%
D10*
%TO.C,D27*%
X87153750Y35718750D03*
D11*
X79533750Y35718750D03*
%TD*%
D10*
%TO.C,D56*%
X-150018750Y-53816250D03*
D11*
X-150018750Y-46196250D03*
%TD*%
D10*
%TO.C,D17*%
X-97631250Y22383750D03*
D11*
X-97631250Y30003750D03*
%TD*%
D10*
%TO.C,D31*%
X-107156250Y3333750D03*
D11*
X-107156250Y10953750D03*
%TD*%
D10*
%TO.C,D75*%
X154781250Y-53816250D03*
D11*
X154781250Y-46196250D03*
%TD*%
D10*
%TO.C,D4*%
X-97631250Y46196250D03*
D11*
X-97631250Y53816250D03*
%TD*%
D10*
%TO.C,D60*%
X59531250Y-53816250D03*
D11*
X59531250Y-46196250D03*
%TD*%
D10*
%TO.C,D38*%
X26193750Y3333750D03*
D11*
X26193750Y10953750D03*
%TD*%
D10*
%TO.C,D51*%
X11906250Y-15716250D03*
D11*
X11906250Y-8096250D03*
%TD*%
D10*
%TO.C,D40*%
X64293750Y3333750D03*
D11*
X64293750Y10953750D03*
%TD*%
D10*
%TO.C,D83*%
X-16668750Y-34766250D03*
D11*
X-16668750Y-27146250D03*
%TD*%
D10*
%TO.C,D13*%
X92868750Y46196250D03*
D11*
X92868750Y53816250D03*
%TD*%
D10*
%TO.C,D62*%
X107156250Y-53816250D03*
D11*
X107156250Y-46196250D03*
%TD*%
D10*
%TO.C,D37*%
X7143750Y3333750D03*
D11*
X7143750Y10953750D03*
%TD*%
D10*
%TO.C,D42*%
X80962500Y-15716250D03*
D11*
X80962500Y-8096250D03*
%TD*%
D10*
%TO.C,D63*%
X130016250Y40481250D03*
D11*
X122396250Y40481250D03*
%TD*%
D10*
%TO.C,D53*%
X50006250Y-15716250D03*
D11*
X50006250Y-8096250D03*
%TD*%
D10*
%TO.C,D25*%
X54768750Y22383750D03*
D11*
X54768750Y30003750D03*
%TD*%
D10*
%TO.C,D3*%
X-116681250Y46196250D03*
D11*
X-116681250Y53816250D03*
%TD*%
D10*
%TO.C,D84*%
X2381250Y-34766250D03*
D11*
X2381250Y-27146250D03*
%TD*%
D10*
%TO.C,D44*%
X-121443750Y-15716250D03*
D11*
X-121443750Y-8096250D03*
%TD*%
D10*
%TO.C,D34*%
X-50006250Y3333750D03*
D11*
X-50006250Y10953750D03*
%TD*%
D12*
%TO.C,USB1*%
X109979875Y59375250D03*
D13*
X109979875Y55195250D03*
D12*
X118619875Y59375250D03*
D13*
X118619875Y55195250D03*
%TD*%
D10*
%TO.C,D71*%
X154781250Y3333750D03*
D11*
X154781250Y10953750D03*
%TD*%
D10*
%TO.C,D87*%
X59531250Y-34766250D03*
D11*
X59531250Y-27146250D03*
%TD*%
D10*
%TO.C,D89*%
X95250000Y-34766250D03*
D11*
X95250000Y-27146250D03*
%TD*%
D10*
%TO.C,D29*%
X-150018750Y3333750D03*
D11*
X-150018750Y10953750D03*
%TD*%
D10*
%TO.C,D49*%
X-26193750Y-15716250D03*
D11*
X-26193750Y-8096250D03*
%TD*%
D10*
%TO.C,D20*%
X-40481250Y22383750D03*
D11*
X-40481250Y30003750D03*
%TD*%
D10*
%TO.C,D32*%
X-88106250Y3333750D03*
D11*
X-88106250Y10953750D03*
%TD*%
D10*
%TO.C,D39*%
X45243750Y3333750D03*
D11*
X45243750Y10953750D03*
%TD*%
D10*
%TO.C,D26*%
X73818750Y22383750D03*
D11*
X73818750Y30003750D03*
%TD*%
D10*
%TO.C,D14*%
X-154781250Y22383750D03*
D11*
X-154781250Y30003750D03*
%TD*%
D10*
%TO.C,D67*%
X135731250Y22383750D03*
D11*
X135731250Y30003750D03*
%TD*%
D10*
%TO.C,D30*%
X-126206250Y3333750D03*
D11*
X-126206250Y10953750D03*
%TD*%
D10*
%TO.C,D41*%
X83343750Y3333750D03*
D11*
X83343750Y10953750D03*
%TD*%
D10*
%TO.C,D43*%
X-147637500Y-15716250D03*
D11*
X-147637500Y-8096250D03*
%TD*%
D10*
%TO.C,D78*%
X-111918750Y-34766250D03*
D11*
X-111918750Y-27146250D03*
%TD*%
D10*
%TO.C,D12*%
X73818750Y46196250D03*
D11*
X73818750Y53816250D03*
%TD*%
D10*
%TO.C,D7*%
X-30956250Y46196250D03*
D11*
X-30956250Y53816250D03*
%TD*%
D10*
%TO.C,D2*%
X-135731250Y46196250D03*
D11*
X-135731250Y53816250D03*
%TD*%
D10*
%TO.C,D50*%
X-7143750Y-15716250D03*
D11*
X-7143750Y-8096250D03*
%TD*%
D10*
%TO.C,D9*%
X7143750Y46196250D03*
D11*
X7143750Y53816250D03*
%TD*%
D10*
%TO.C,D1*%
X-154781250Y46196250D03*
D11*
X-154781250Y53816250D03*
%TD*%
D10*
%TO.C,D54*%
X69056250Y-15716250D03*
D11*
X69056250Y-8096250D03*
%TD*%
D10*
%TO.C,D47*%
X-64293750Y-15716250D03*
D11*
X-64293750Y-8096250D03*
%TD*%
D10*
%TO.C,D24*%
X35718750Y22383750D03*
D11*
X35718750Y30003750D03*
%TD*%
D10*
%TO.C,D74*%
X135731250Y-53816250D03*
D11*
X135731250Y-46196250D03*
%TD*%
D10*
%TO.C,D68*%
X154781250Y22383750D03*
D11*
X154781250Y30003750D03*
%TD*%
D10*
%TO.C,D11*%
X54768750Y46196250D03*
D11*
X54768750Y53816250D03*
%TD*%
D10*
%TO.C,D46*%
X-83343750Y-15716250D03*
D11*
X-83343750Y-8096250D03*
%TD*%
D10*
%TO.C,D10*%
X35718750Y46196250D03*
D11*
X35718750Y53816250D03*
%TD*%
D10*
%TO.C,D28*%
X106203750Y35718750D03*
D11*
X98583750Y35718750D03*
%TD*%
D10*
%TO.C,D55*%
X107156250Y3333750D03*
D11*
X107156250Y10953750D03*
%TD*%
D10*
%TO.C,D61*%
X83343750Y-53816250D03*
D11*
X83343750Y-46196250D03*
%TD*%
D10*
%TO.C,D33*%
X-69056250Y3333750D03*
D11*
X-69056250Y10953750D03*
%TD*%
D10*
%TO.C,D80*%
X-73818750Y-34766250D03*
D11*
X-73818750Y-27146250D03*
%TD*%
D10*
%TO.C,D22*%
X-2381250Y22383750D03*
D11*
X-2381250Y30003750D03*
%TD*%
D10*
%TO.C,D36*%
X-11906250Y3333750D03*
D11*
X-11906250Y10953750D03*
%TD*%
D10*
%TO.C,D18*%
X-78581250Y22383750D03*
D11*
X-78581250Y30003750D03*
%TD*%
D10*
%TO.C,D64*%
X135731250Y46196250D03*
D11*
X135731250Y53816250D03*
%TD*%
D10*
%TO.C,D72*%
X135731250Y-34766250D03*
D11*
X135731250Y-27146250D03*
%TD*%
D10*
%TO.C,D59*%
X-21431250Y-53816250D03*
D11*
X-21431250Y-46196250D03*
%TD*%
D10*
%TO.C,D70*%
X135731250Y3333750D03*
D11*
X135731250Y10953750D03*
%TD*%
D10*
%TO.C,D79*%
X-92868750Y-34766250D03*
D11*
X-92868750Y-27146250D03*
%TD*%
D10*
%TO.C,D85*%
X21431250Y-34766250D03*
D11*
X21431250Y-27146250D03*
%TD*%
D10*
%TO.C,D57*%
X-126206250Y-53816250D03*
D11*
X-126206250Y-46196250D03*
%TD*%
D10*
%TO.C,D81*%
X-54768750Y-34766250D03*
D11*
X-54768750Y-27146250D03*
%TD*%
D10*
%TO.C,D45*%
X-102393750Y-15716250D03*
D11*
X-102393750Y-8096250D03*
%TD*%
D10*
%TO.C,D66*%
X130016250Y35718750D03*
D11*
X122396250Y35718750D03*
%TD*%
D10*
%TO.C,D52*%
X30956250Y-15716250D03*
D11*
X30956250Y-8096250D03*
%TD*%
D10*
%TO.C,D58*%
X-102393750Y-53816250D03*
D11*
X-102393750Y-46196250D03*
%TD*%
D10*
%TO.C,D6*%
X-50006250Y46196250D03*
D11*
X-50006250Y53816250D03*
%TD*%
D10*
%TO.C,D77*%
X-142875000Y-34766250D03*
D11*
X-142875000Y-27146250D03*
%TD*%
D10*
%TO.C,D48*%
X-45243750Y-15716250D03*
D11*
X-45243750Y-8096250D03*
%TD*%
D10*
%TO.C,D69*%
X130016250Y-2381250D03*
D11*
X122396250Y-2381250D03*
%TD*%
D10*
%TO.C,D5*%
X-78581250Y46196250D03*
D11*
X-78581250Y53816250D03*
%TD*%
D10*
%TO.C,D19*%
X-59531250Y22383750D03*
D11*
X-59531250Y30003750D03*
%TD*%
D10*
%TO.C,D35*%
X-30956250Y3333750D03*
D11*
X-30956250Y10953750D03*
%TD*%
M02*
